<mxfile host="app.diagrams.net" agent="Mozilla/5.0 (Macintosh; Intel Mac OS X 10_15_7) AppleWebKit/537.36 (KHTML, like Gecko) Chrome/133.0.0.0 Safari/537.36" version="26.0.16">
  <diagram name="第 1 页" id="0ZHGATqTJJYwtDfuUvvV">
    <mxGraphModel dx="2261" dy="1823" grid="1" gridSize="10" guides="1" tooltips="1" connect="1" arrows="1" fold="1" page="1" pageScale="1" pageWidth="827" pageHeight="1169" math="0" shadow="0">
      <root>
        <mxCell id="0" />
        <mxCell id="1" parent="0" />
        <mxCell id="zXx96FTG_lg0kcmIFyQ1-1" value="" style="edgeStyle=orthogonalEdgeStyle;rounded=0;orthogonalLoop=1;jettySize=auto;html=1;" edge="1" parent="1" source="7Xz4EL3dT2qsOErIy4jS-2" target="7Xz4EL3dT2qsOErIy4jS-4">
          <mxGeometry relative="1" as="geometry" />
        </mxCell>
        <mxCell id="8toNQD8QST1rocxcnVbk-106" value="" style="rounded=0;whiteSpace=wrap;html=1;" parent="1" vertex="1">
          <mxGeometry x="1654" y="80" width="1080" height="480" as="geometry" />
        </mxCell>
        <mxCell id="8toNQD8QST1rocxcnVbk-87" style="edgeStyle=orthogonalEdgeStyle;rounded=0;orthogonalLoop=1;jettySize=auto;html=1;exitX=0.5;exitY=1;exitDx=0;exitDy=0;entryX=0.5;entryY=0;entryDx=0;entryDy=0;" parent="1" source="7Xz4EL3dT2qsOErIy4jS-518" target="8toNQD8QST1rocxcnVbk-79" edge="1">
          <mxGeometry relative="1" as="geometry" />
        </mxCell>
        <mxCell id="8toNQD8QST1rocxcnVbk-88" style="edgeStyle=orthogonalEdgeStyle;rounded=0;orthogonalLoop=1;jettySize=auto;html=1;exitX=0.5;exitY=1;exitDx=0;exitDy=0;entryX=0.5;entryY=0;entryDx=0;entryDy=0;" parent="1" source="7Xz4EL3dT2qsOErIy4jS-519" target="8toNQD8QST1rocxcnVbk-79" edge="1">
          <mxGeometry relative="1" as="geometry" />
        </mxCell>
        <mxCell id="8toNQD8QST1rocxcnVbk-89" style="edgeStyle=orthogonalEdgeStyle;rounded=0;orthogonalLoop=1;jettySize=auto;html=1;exitX=0.5;exitY=1;exitDx=0;exitDy=0;entryX=0.5;entryY=0;entryDx=0;entryDy=0;" parent="1" source="7Xz4EL3dT2qsOErIy4jS-520" target="8toNQD8QST1rocxcnVbk-79" edge="1">
          <mxGeometry relative="1" as="geometry" />
        </mxCell>
        <mxCell id="8toNQD8QST1rocxcnVbk-90" style="edgeStyle=orthogonalEdgeStyle;rounded=0;orthogonalLoop=1;jettySize=auto;html=1;exitX=0.5;exitY=1;exitDx=0;exitDy=0;entryX=0.5;entryY=0;entryDx=0;entryDy=0;" parent="1" source="7Xz4EL3dT2qsOErIy4jS-522" target="8toNQD8QST1rocxcnVbk-79" edge="1">
          <mxGeometry relative="1" as="geometry">
            <Array as="points">
              <mxPoint x="2504" y="280" />
              <mxPoint x="2504" y="320" />
              <mxPoint x="1944" y="320" />
            </Array>
          </mxGeometry>
        </mxCell>
        <mxCell id="8toNQD8QST1rocxcnVbk-91" style="edgeStyle=orthogonalEdgeStyle;rounded=0;orthogonalLoop=1;jettySize=auto;html=1;exitX=0.5;exitY=1;exitDx=0;exitDy=0;entryX=0.5;entryY=0;entryDx=0;entryDy=0;" parent="1" source="7Xz4EL3dT2qsOErIy4jS-521" target="8toNQD8QST1rocxcnVbk-79" edge="1">
          <mxGeometry relative="1" as="geometry" />
        </mxCell>
        <mxCell id="8toNQD8QST1rocxcnVbk-86" style="edgeStyle=orthogonalEdgeStyle;rounded=0;orthogonalLoop=1;jettySize=auto;html=1;exitX=0.5;exitY=1;exitDx=0;exitDy=0;entryX=0.5;entryY=0;entryDx=0;entryDy=0;" parent="1" source="7Xz4EL3dT2qsOErIy4jS-517" target="8toNQD8QST1rocxcnVbk-79" edge="1">
          <mxGeometry relative="1" as="geometry" />
        </mxCell>
        <mxCell id="8toNQD8QST1rocxcnVbk-93" value="Display at Bottom" style="edgeLabel;html=1;align=center;verticalAlign=middle;resizable=0;points=[];" parent="8toNQD8QST1rocxcnVbk-86" vertex="1" connectable="0">
          <mxGeometry x="-0.2125" relative="1" as="geometry">
            <mxPoint y="18" as="offset" />
          </mxGeometry>
        </mxCell>
        <mxCell id="8toNQD8QST1rocxcnVbk-77" value="" style="rounded=0;whiteSpace=wrap;html=1;" parent="1" vertex="1">
          <mxGeometry x="1241" y="80" width="320" height="480" as="geometry" />
        </mxCell>
        <mxCell id="8toNQD8QST1rocxcnVbk-66" value="" style="whiteSpace=wrap;html=1;fillColor=default;" parent="1" vertex="1">
          <mxGeometry x="-360" y="80" width="1550" height="1360" as="geometry" />
        </mxCell>
        <mxCell id="7Xz4EL3dT2qsOErIy4jS-424" style="edgeStyle=orthogonalEdgeStyle;rounded=0;orthogonalLoop=1;jettySize=auto;html=1;exitX=0.5;exitY=1;exitDx=0;exitDy=0;entryX=0.5;entryY=0;entryDx=0;entryDy=0;" parent="1" source="7Xz4EL3dT2qsOErIy4jS-363" target="7Xz4EL3dT2qsOErIy4jS-422" edge="1">
          <mxGeometry relative="1" as="geometry">
            <mxPoint x="580" y="1280" as="targetPoint" />
          </mxGeometry>
        </mxCell>
        <mxCell id="7Xz4EL3dT2qsOErIy4jS-9" style="edgeStyle=orthogonalEdgeStyle;rounded=0;orthogonalLoop=1;jettySize=auto;html=1;exitX=0.5;exitY=1;exitDx=0;exitDy=0;entryX=0.5;entryY=0;entryDx=0;entryDy=0;" parent="1" source="7Xz4EL3dT2qsOErIy4jS-1" target="7Xz4EL3dT2qsOErIy4jS-2" edge="1">
          <mxGeometry relative="1" as="geometry" />
        </mxCell>
        <mxCell id="7Xz4EL3dT2qsOErIy4jS-10" value="&lt;font style=&quot;font-size: 11px; background-color: light-dark(#ffffff, var(--ge-dark-color, #121212));&quot;&gt;Suffix &amp;amp; Preffix by&amp;nbsp;&lt;/font&gt;&lt;div&gt;&lt;span style=&quot;text-wrap-mode: wrap; background-color: light-dark(#ffffff, var(--ge-dark-color, #121212));&quot;&gt;&lt;font style=&quot;font-size: 11px;&quot;&gt;BA Rule&lt;/font&gt;&lt;/span&gt;&lt;/div&gt;" style="edgeLabel;html=1;align=center;verticalAlign=middle;resizable=0;points=[];" parent="7Xz4EL3dT2qsOErIy4jS-9" vertex="1" connectable="0">
          <mxGeometry x="0.15" y="2" relative="1" as="geometry">
            <mxPoint x="-2" y="-6" as="offset" />
          </mxGeometry>
        </mxCell>
        <mxCell id="7Xz4EL3dT2qsOErIy4jS-1" value="Sales Keywords&amp;nbsp;&lt;div&gt;vs Importance&lt;/div&gt;" style="rounded=1;whiteSpace=wrap;html=1;" parent="1" vertex="1">
          <mxGeometry x="80" y="160" width="160" height="40" as="geometry" />
        </mxCell>
        <mxCell id="7Xz4EL3dT2qsOErIy4jS-11" style="edgeStyle=orthogonalEdgeStyle;rounded=0;orthogonalLoop=1;jettySize=auto;html=1;exitX=0.5;exitY=1;exitDx=0;exitDy=0;" parent="1" source="7Xz4EL3dT2qsOErIy4jS-2" target="7Xz4EL3dT2qsOErIy4jS-4" edge="1">
          <mxGeometry relative="1" as="geometry" />
        </mxCell>
        <mxCell id="7Xz4EL3dT2qsOErIy4jS-12" value="Add Google Trends&amp;nbsp;&lt;div&gt;&amp;amp; Competition&lt;/div&gt;" style="edgeLabel;html=1;align=center;verticalAlign=middle;resizable=0;points=[];" parent="7Xz4EL3dT2qsOErIy4jS-11" vertex="1" connectable="0">
          <mxGeometry x="-0.225" y="-2" relative="1" as="geometry">
            <mxPoint x="2" y="9" as="offset" />
          </mxGeometry>
        </mxCell>
        <mxCell id="7Xz4EL3dT2qsOErIy4jS-2" value="Extend Keywords&amp;nbsp;&lt;div&gt;vs Importance&lt;/div&gt;" style="rounded=1;whiteSpace=wrap;html=1;" parent="1" vertex="1">
          <mxGeometry x="80" y="280" width="160" height="40" as="geometry" />
        </mxCell>
        <mxCell id="7Xz4EL3dT2qsOErIy4jS-221" style="edgeStyle=orthogonalEdgeStyle;rounded=0;orthogonalLoop=1;jettySize=auto;html=1;exitX=0.5;exitY=1;exitDx=0;exitDy=0;entryX=0.5;entryY=0;entryDx=0;entryDy=0;" parent="1" source="7Xz4EL3dT2qsOErIy4jS-3" target="7Xz4EL3dT2qsOErIy4jS-220" edge="1">
          <mxGeometry relative="1" as="geometry" />
        </mxCell>
        <mxCell id="7Xz4EL3dT2qsOErIy4jS-222" value="Exclude Inside-Business&lt;div&gt;Remove Filters &amp;amp; Sum Clicks&lt;/div&gt;" style="edgeLabel;html=1;align=center;verticalAlign=middle;resizable=0;points=[];" parent="7Xz4EL3dT2qsOErIy4jS-221" vertex="1" connectable="0">
          <mxGeometry x="-0.15" y="1" relative="1" as="geometry">
            <mxPoint as="offset" />
          </mxGeometry>
        </mxCell>
        <mxCell id="7Xz4EL3dT2qsOErIy4jS-3" value="Pages vs&amp;nbsp;&lt;div&gt;Monthly Clicks&lt;/div&gt;" style="rounded=1;whiteSpace=wrap;html=1;" parent="1" vertex="1">
          <mxGeometry x="520" y="160" width="120" height="40" as="geometry" />
        </mxCell>
        <mxCell id="7Xz4EL3dT2qsOErIy4jS-264" style="edgeStyle=orthogonalEdgeStyle;rounded=0;orthogonalLoop=1;jettySize=auto;html=1;exitX=0.5;exitY=1;exitDx=0;exitDy=0;entryX=0.5;entryY=0;entryDx=0;entryDy=0;" parent="1" source="7Xz4EL3dT2qsOErIy4jS-4" target="7Xz4EL3dT2qsOErIy4jS-263" edge="1">
          <mxGeometry relative="1" as="geometry" />
        </mxCell>
        <mxCell id="7Xz4EL3dT2qsOErIy4jS-265" value="Add Campaign Total Cost&amp;nbsp;&lt;div&gt;for Keyword&lt;/div&gt;" style="edgeLabel;html=1;align=center;verticalAlign=middle;resizable=0;points=[];fontColor=#FFB570;" parent="7Xz4EL3dT2qsOErIy4jS-264" vertex="1" connectable="0">
          <mxGeometry x="-0.2583" y="-4" relative="1" as="geometry">
            <mxPoint as="offset" />
          </mxGeometry>
        </mxCell>
        <mxCell id="7Xz4EL3dT2qsOErIy4jS-4" value="Extend Keywords&amp;nbsp;&lt;div&gt;&amp;nbsp;vs Importance&amp;nbsp;&lt;/div&gt;&lt;div&gt;&lt;span style=&quot;background-color: transparent; color: light-dark(rgb(0, 0, 0), rgb(255, 255, 255));&quot;&gt;vs Trends vs Competition&lt;/span&gt;&lt;/div&gt;" style="rounded=1;whiteSpace=wrap;html=1;" parent="1" vertex="1">
          <mxGeometry x="80" y="400" width="160" height="50" as="geometry" />
        </mxCell>
        <mxCell id="7Xz4EL3dT2qsOErIy4jS-181" style="edgeStyle=orthogonalEdgeStyle;rounded=0;orthogonalLoop=1;jettySize=auto;html=1;exitX=0.5;exitY=1;exitDx=0;exitDy=0;entryX=0.5;entryY=0;entryDx=0;entryDy=0;" parent="1" source="7Xz4EL3dT2qsOErIy4jS-263" target="7Xz4EL3dT2qsOErIy4jS-180" edge="1">
          <mxGeometry relative="1" as="geometry">
            <mxPoint x="160" y="820" as="sourcePoint" />
            <mxPoint x="160" y="920" as="targetPoint" />
          </mxGeometry>
        </mxCell>
        <mxCell id="7Xz4EL3dT2qsOErIy4jS-182" value="Add Ranking for SERP/Showroom&lt;div&gt;If rank = null&lt;/div&gt;&lt;div&gt;Url = Showroom Url,&lt;/div&gt;&lt;div&gt;Rank = 5&lt;span style=&quot;background-color: light-dark(#ffffff, var(--ge-dark-color, #121212)); color: light-dark(rgb(0, 0, 0), rgb(255, 255, 255));&quot;&gt;0&lt;/span&gt;&lt;/div&gt;" style="edgeLabel;html=1;align=center;verticalAlign=middle;resizable=0;points=[];" parent="7Xz4EL3dT2qsOErIy4jS-181" vertex="1" connectable="0">
          <mxGeometry x="-0.2875" relative="1" as="geometry">
            <mxPoint y="11" as="offset" />
          </mxGeometry>
        </mxCell>
        <mxCell id="7Xz4EL3dT2qsOErIy4jS-420" value="Calculate Total Weight:&lt;div&gt;&lt;span style=&quot;background-color: light-dark(#ffffff, var(--ge-dark-color, #121212)); color: light-dark(rgb(0, 0, 0), rgb(255, 255, 255));&quot;&gt;normalize(w) +&amp;nbsp;&lt;/span&gt;&lt;/div&gt;&lt;div&gt;&lt;span style=&quot;background-color: light-dark(#ffffff, var(--ge-dark-color, #121212)); color: light-dark(rgb(0, 0, 0), rgb(255, 255, 255));&quot;&gt;normalize(&lt;/span&gt;&lt;span style=&quot;background-color: light-dark(#ffffff, var(--ge-dark-color, #121212)); color: light-dark(rgb(0, 0, 0), rgb(255, 255, 255));&quot;&gt;log(trends)) +&amp;nbsp;&lt;/span&gt;&lt;/div&gt;&lt;div&gt;&lt;span style=&quot;background-color: light-dark(#ffffff, var(--ge-dark-color, #121212)); color: light-dark(rgb(0, 0, 0), rgb(255, 255, 255));&quot;&gt;normalize(&lt;/span&gt;&lt;span style=&quot;background-color: light-dark(#ffffff, var(--ge-dark-color, #121212)); color: light-dark(rgb(0, 0, 0), rgb(255, 255, 255));&quot;&gt;rank/10)*2&lt;/span&gt;&lt;span style=&quot;background-color: light-dark(#ffffff, var(--ge-dark-color, #121212));&quot;&gt;&lt;font style=&quot;color: light-dark(rgb(255, 181, 112), rgb(255, 255, 255));&quot;&gt; -&amp;nbsp;&lt;/font&gt;&lt;/span&gt;&lt;/div&gt;&lt;div&gt;&lt;font style=&quot;color: rgb(255, 181, 112);&quot;&gt;&lt;span style=&quot;background-color: light-dark(#ffffff, var(--ge-dark-color, #121212));&quot;&gt;normalize(&lt;/span&gt;&lt;span style=&quot;background-color: light-dark(#ffffff, var(--ge-dark-color, #121212));&quot;&gt;&lt;font style=&quot;&quot;&gt;log(cost+1))&lt;/font&gt;&lt;/span&gt;&lt;/font&gt;&lt;/div&gt;" style="edgeStyle=orthogonalEdgeStyle;rounded=0;orthogonalLoop=1;jettySize=auto;html=1;exitX=0.5;exitY=1;exitDx=0;exitDy=0;entryX=0.5;entryY=0;entryDx=0;entryDy=0;" parent="1" source="7Xz4EL3dT2qsOErIy4jS-180" target="7Xz4EL3dT2qsOErIy4jS-337" edge="1">
          <mxGeometry x="0.1429" relative="1" as="geometry">
            <mxPoint as="offset" />
            <mxPoint x="160" y="1130" as="sourcePoint" />
          </mxGeometry>
        </mxCell>
        <mxCell id="7Xz4EL3dT2qsOErIy4jS-21" value="" style="shape=table;startSize=0;container=1;collapsible=0;childLayout=tableLayout;fontSize=16;" parent="1" vertex="1">
          <mxGeometry x="-320" y="160" width="160" height="40" as="geometry" />
        </mxCell>
        <mxCell id="7Xz4EL3dT2qsOErIy4jS-26" value="" style="shape=tableRow;horizontal=0;startSize=0;swimlaneHead=0;swimlaneBody=0;strokeColor=inherit;top=0;left=0;bottom=0;right=0;collapsible=0;dropTarget=0;fillColor=none;points=[[0,0.5],[1,0.5]];portConstraint=eastwest;fontSize=16;" parent="7Xz4EL3dT2qsOErIy4jS-21" vertex="1">
          <mxGeometry width="160" height="20" as="geometry" />
        </mxCell>
        <mxCell id="7Xz4EL3dT2qsOErIy4jS-28" value="kw1" style="shape=partialRectangle;html=1;whiteSpace=wrap;connectable=0;strokeColor=inherit;overflow=hidden;fillColor=none;top=0;left=0;bottom=0;right=0;pointerEvents=1;fontSize=10;" parent="7Xz4EL3dT2qsOErIy4jS-26" vertex="1">
          <mxGeometry width="40" height="20" as="geometry">
            <mxRectangle width="40" height="20" as="alternateBounds" />
          </mxGeometry>
        </mxCell>
        <mxCell id="7Xz4EL3dT2qsOErIy4jS-29" value="weight1" style="shape=partialRectangle;html=1;whiteSpace=wrap;connectable=0;strokeColor=inherit;overflow=hidden;fillColor=none;top=0;left=0;bottom=0;right=0;pointerEvents=1;fontSize=10;" parent="7Xz4EL3dT2qsOErIy4jS-26" vertex="1">
          <mxGeometry x="40" width="60" height="20" as="geometry">
            <mxRectangle width="60" height="20" as="alternateBounds" />
          </mxGeometry>
        </mxCell>
        <mxCell id="7Xz4EL3dT2qsOErIy4jS-489" value="country1" style="shape=partialRectangle;html=1;whiteSpace=wrap;connectable=0;strokeColor=inherit;overflow=hidden;fillColor=none;top=0;left=0;bottom=0;right=0;pointerEvents=1;fontSize=10;" parent="7Xz4EL3dT2qsOErIy4jS-26" vertex="1">
          <mxGeometry x="100" width="60" height="20" as="geometry">
            <mxRectangle width="60" height="20" as="alternateBounds" />
          </mxGeometry>
        </mxCell>
        <mxCell id="7Xz4EL3dT2qsOErIy4jS-30" value="" style="shape=tableRow;horizontal=0;startSize=0;swimlaneHead=0;swimlaneBody=0;strokeColor=inherit;top=0;left=0;bottom=0;right=0;collapsible=0;dropTarget=0;fillColor=none;points=[[0,0.5],[1,0.5]];portConstraint=eastwest;fontSize=16;" parent="7Xz4EL3dT2qsOErIy4jS-21" vertex="1">
          <mxGeometry y="20" width="160" height="20" as="geometry" />
        </mxCell>
        <mxCell id="7Xz4EL3dT2qsOErIy4jS-32" value="kw2" style="shape=partialRectangle;html=1;whiteSpace=wrap;connectable=0;strokeColor=inherit;overflow=hidden;fillColor=none;top=0;left=0;bottom=0;right=0;pointerEvents=1;fontSize=10;" parent="7Xz4EL3dT2qsOErIy4jS-30" vertex="1">
          <mxGeometry width="40" height="20" as="geometry">
            <mxRectangle width="40" height="20" as="alternateBounds" />
          </mxGeometry>
        </mxCell>
        <mxCell id="7Xz4EL3dT2qsOErIy4jS-33" value="weight2" style="shape=partialRectangle;html=1;whiteSpace=wrap;connectable=0;strokeColor=inherit;overflow=hidden;fillColor=none;top=0;left=0;bottom=0;right=0;pointerEvents=1;fontSize=10;" parent="7Xz4EL3dT2qsOErIy4jS-30" vertex="1">
          <mxGeometry x="40" width="60" height="20" as="geometry">
            <mxRectangle width="60" height="20" as="alternateBounds" />
          </mxGeometry>
        </mxCell>
        <mxCell id="7Xz4EL3dT2qsOErIy4jS-490" value="country2" style="shape=partialRectangle;html=1;whiteSpace=wrap;connectable=0;strokeColor=inherit;overflow=hidden;fillColor=none;top=0;left=0;bottom=0;right=0;pointerEvents=1;fontSize=10;" parent="7Xz4EL3dT2qsOErIy4jS-30" vertex="1">
          <mxGeometry x="100" width="60" height="20" as="geometry">
            <mxRectangle width="60" height="20" as="alternateBounds" />
          </mxGeometry>
        </mxCell>
        <mxCell id="7Xz4EL3dT2qsOErIy4jS-180" value="Extend+Trend Keywords&lt;div&gt;vs Importance&amp;nbsp;&lt;span style=&quot;background-color: transparent; color: light-dark(rgb(0, 0, 0), rgb(255, 255, 255));&quot;&gt;vs Trends&lt;/span&gt;&lt;span style=&quot;background-color: transparent; color: light-dark(rgb(0, 0, 0), rgb(255, 255, 255));&quot;&gt;&amp;nbsp;vs Rank&lt;/span&gt;&lt;span style=&quot;background-color: transparent; color: light-dark(rgb(0, 0, 0), rgb(255, 255, 255));&quot;&gt;&amp;nbsp;&lt;/span&gt;&lt;font style=&quot;color: rgb(255, 181, 112);&quot;&gt;&lt;span style=&quot;background-color: transparent;&quot;&gt;vs Campaign&lt;/span&gt;&lt;span style=&quot;background-color: transparent;&quot;&gt;&amp;nbsp;Cost&lt;/span&gt;&lt;/font&gt;&lt;/div&gt;" style="rounded=1;whiteSpace=wrap;html=1;" parent="1" vertex="1">
          <mxGeometry x="80" y="755" width="160" height="50" as="geometry" />
        </mxCell>
        <mxCell id="7Xz4EL3dT2qsOErIy4jS-47" value="" style="shape=table;startSize=0;container=1;collapsible=0;childLayout=tableLayout;fontSize=16;" parent="1" vertex="1">
          <mxGeometry x="-320" y="380" width="280" height="80" as="geometry" />
        </mxCell>
        <mxCell id="7Xz4EL3dT2qsOErIy4jS-48" value="" style="shape=tableRow;horizontal=0;startSize=0;swimlaneHead=0;swimlaneBody=0;strokeColor=inherit;top=0;left=0;bottom=0;right=0;collapsible=0;dropTarget=0;fillColor=none;points=[[0,0.5],[1,0.5]];portConstraint=eastwest;fontSize=16;" parent="7Xz4EL3dT2qsOErIy4jS-47" vertex="1">
          <mxGeometry width="280" height="20" as="geometry" />
        </mxCell>
        <mxCell id="7Xz4EL3dT2qsOErIy4jS-84" value="kw1" style="shape=partialRectangle;html=1;whiteSpace=wrap;connectable=0;strokeColor=inherit;overflow=hidden;fillColor=none;top=0;left=0;bottom=0;right=0;pointerEvents=1;fontSize=10;" parent="7Xz4EL3dT2qsOErIy4jS-48" vertex="1">
          <mxGeometry width="28" height="20" as="geometry">
            <mxRectangle width="28" height="20" as="alternateBounds" />
          </mxGeometry>
        </mxCell>
        <mxCell id="7Xz4EL3dT2qsOErIy4jS-49" value="kw1 ex1" style="shape=partialRectangle;html=1;whiteSpace=wrap;connectable=0;strokeColor=inherit;overflow=hidden;fillColor=none;top=0;left=0;bottom=0;right=0;pointerEvents=1;fontSize=10;" parent="7Xz4EL3dT2qsOErIy4jS-48" vertex="1">
          <mxGeometry x="28" width="49" height="20" as="geometry">
            <mxRectangle width="49" height="20" as="alternateBounds" />
          </mxGeometry>
        </mxCell>
        <mxCell id="7Xz4EL3dT2qsOErIy4jS-50" value="w1" style="shape=partialRectangle;html=1;whiteSpace=wrap;connectable=0;strokeColor=inherit;overflow=hidden;fillColor=none;top=0;left=0;bottom=0;right=0;pointerEvents=1;fontSize=10;" parent="7Xz4EL3dT2qsOErIy4jS-48" vertex="1">
          <mxGeometry x="77" width="35" height="20" as="geometry">
            <mxRectangle width="35" height="20" as="alternateBounds" />
          </mxGeometry>
        </mxCell>
        <mxCell id="7Xz4EL3dT2qsOErIy4jS-60" value="trends1" style="shape=partialRectangle;html=1;whiteSpace=wrap;connectable=0;strokeColor=inherit;overflow=hidden;fillColor=none;top=0;left=0;bottom=0;right=0;pointerEvents=1;fontSize=10;" parent="7Xz4EL3dT2qsOErIy4jS-48" vertex="1">
          <mxGeometry x="112" width="47" height="20" as="geometry">
            <mxRectangle width="47" height="20" as="alternateBounds" />
          </mxGeometry>
        </mxCell>
        <mxCell id="8toNQD8QST1rocxcnVbk-13" value="competition1" style="shape=partialRectangle;html=1;whiteSpace=wrap;connectable=0;strokeColor=inherit;overflow=hidden;fillColor=none;top=0;left=0;bottom=0;right=0;pointerEvents=1;fontSize=10;" parent="7Xz4EL3dT2qsOErIy4jS-48" vertex="1">
          <mxGeometry x="159" width="65" height="20" as="geometry">
            <mxRectangle width="65" height="20" as="alternateBounds" />
          </mxGeometry>
        </mxCell>
        <mxCell id="7Xz4EL3dT2qsOErIy4jS-495" value="country1" style="shape=partialRectangle;html=1;whiteSpace=wrap;connectable=0;strokeColor=inherit;overflow=hidden;fillColor=none;top=0;left=0;bottom=0;right=0;pointerEvents=1;fontSize=10;" parent="7Xz4EL3dT2qsOErIy4jS-48" vertex="1">
          <mxGeometry x="224" width="56" height="20" as="geometry">
            <mxRectangle width="56" height="20" as="alternateBounds" />
          </mxGeometry>
        </mxCell>
        <mxCell id="7Xz4EL3dT2qsOErIy4jS-51" style="shape=tableRow;horizontal=0;startSize=0;swimlaneHead=0;swimlaneBody=0;strokeColor=inherit;top=0;left=0;bottom=0;right=0;collapsible=0;dropTarget=0;fillColor=none;points=[[0,0.5],[1,0.5]];portConstraint=eastwest;fontSize=16;" parent="7Xz4EL3dT2qsOErIy4jS-47" vertex="1">
          <mxGeometry y="20" width="280" height="20" as="geometry" />
        </mxCell>
        <mxCell id="7Xz4EL3dT2qsOErIy4jS-85" value="kw1" style="shape=partialRectangle;html=1;whiteSpace=wrap;connectable=0;strokeColor=inherit;overflow=hidden;fillColor=none;top=0;left=0;bottom=0;right=0;pointerEvents=1;fontSize=10;" parent="7Xz4EL3dT2qsOErIy4jS-51" vertex="1">
          <mxGeometry width="28" height="20" as="geometry">
            <mxRectangle width="28" height="20" as="alternateBounds" />
          </mxGeometry>
        </mxCell>
        <mxCell id="7Xz4EL3dT2qsOErIy4jS-52" value="kw1 ex2" style="shape=partialRectangle;html=1;whiteSpace=wrap;connectable=0;strokeColor=inherit;overflow=hidden;fillColor=none;top=0;left=0;bottom=0;right=0;pointerEvents=1;fontSize=10;" parent="7Xz4EL3dT2qsOErIy4jS-51" vertex="1">
          <mxGeometry x="28" width="49" height="20" as="geometry">
            <mxRectangle width="49" height="20" as="alternateBounds" />
          </mxGeometry>
        </mxCell>
        <mxCell id="7Xz4EL3dT2qsOErIy4jS-53" value="w1" style="shape=partialRectangle;html=1;whiteSpace=wrap;connectable=0;strokeColor=inherit;overflow=hidden;fillColor=none;top=0;left=0;bottom=0;right=0;pointerEvents=1;fontSize=10;" parent="7Xz4EL3dT2qsOErIy4jS-51" vertex="1">
          <mxGeometry x="77" width="35" height="20" as="geometry">
            <mxRectangle width="35" height="20" as="alternateBounds" />
          </mxGeometry>
        </mxCell>
        <mxCell id="7Xz4EL3dT2qsOErIy4jS-61" value="trends2" style="shape=partialRectangle;html=1;whiteSpace=wrap;connectable=0;strokeColor=inherit;overflow=hidden;fillColor=none;top=0;left=0;bottom=0;right=0;pointerEvents=1;fontSize=10;" parent="7Xz4EL3dT2qsOErIy4jS-51" vertex="1">
          <mxGeometry x="112" width="47" height="20" as="geometry">
            <mxRectangle width="47" height="20" as="alternateBounds" />
          </mxGeometry>
        </mxCell>
        <mxCell id="8toNQD8QST1rocxcnVbk-14" value="competition2" style="shape=partialRectangle;html=1;whiteSpace=wrap;connectable=0;strokeColor=inherit;overflow=hidden;fillColor=none;top=0;left=0;bottom=0;right=0;pointerEvents=1;fontSize=10;" parent="7Xz4EL3dT2qsOErIy4jS-51" vertex="1">
          <mxGeometry x="159" width="65" height="20" as="geometry">
            <mxRectangle width="65" height="20" as="alternateBounds" />
          </mxGeometry>
        </mxCell>
        <mxCell id="7Xz4EL3dT2qsOErIy4jS-496" value="&lt;meta charset=&quot;utf-8&quot;&gt;&lt;span style=&quot;color: rgb(0, 0, 0); font-family: Helvetica; font-size: 10px; font-style: normal; font-variant-ligatures: normal; font-variant-caps: normal; font-weight: 400; letter-spacing: normal; orphans: 2; text-align: center; text-indent: 0px; text-transform: none; widows: 2; word-spacing: 0px; -webkit-text-stroke-width: 0px; white-space: normal; background-color: rgb(251, 251, 251); text-decoration-thickness: initial; text-decoration-style: initial; text-decoration-color: initial; display: inline !important; float: none;&quot;&gt;country1&lt;/span&gt;" style="shape=partialRectangle;html=1;whiteSpace=wrap;connectable=0;strokeColor=inherit;overflow=hidden;fillColor=none;top=0;left=0;bottom=0;right=0;pointerEvents=1;fontSize=10;" parent="7Xz4EL3dT2qsOErIy4jS-51" vertex="1">
          <mxGeometry x="224" width="56" height="20" as="geometry">
            <mxRectangle width="56" height="20" as="alternateBounds" />
          </mxGeometry>
        </mxCell>
        <mxCell id="7Xz4EL3dT2qsOErIy4jS-54" value="" style="shape=tableRow;horizontal=0;startSize=0;swimlaneHead=0;swimlaneBody=0;strokeColor=inherit;top=0;left=0;bottom=0;right=0;collapsible=0;dropTarget=0;fillColor=none;points=[[0,0.5],[1,0.5]];portConstraint=eastwest;fontSize=16;" parent="7Xz4EL3dT2qsOErIy4jS-47" vertex="1">
          <mxGeometry y="40" width="280" height="20" as="geometry" />
        </mxCell>
        <mxCell id="7Xz4EL3dT2qsOErIy4jS-87" value="kw2" style="shape=partialRectangle;html=1;whiteSpace=wrap;connectable=0;strokeColor=inherit;overflow=hidden;fillColor=none;top=0;left=0;bottom=0;right=0;pointerEvents=1;fontSize=10;" parent="7Xz4EL3dT2qsOErIy4jS-54" vertex="1">
          <mxGeometry width="28" height="20" as="geometry">
            <mxRectangle width="28" height="20" as="alternateBounds" />
          </mxGeometry>
        </mxCell>
        <mxCell id="7Xz4EL3dT2qsOErIy4jS-55" value="kw2 ex1" style="shape=partialRectangle;html=1;whiteSpace=wrap;connectable=0;strokeColor=inherit;overflow=hidden;fillColor=none;top=0;left=0;bottom=0;right=0;pointerEvents=1;fontSize=10;" parent="7Xz4EL3dT2qsOErIy4jS-54" vertex="1">
          <mxGeometry x="28" width="49" height="20" as="geometry">
            <mxRectangle width="49" height="20" as="alternateBounds" />
          </mxGeometry>
        </mxCell>
        <mxCell id="7Xz4EL3dT2qsOErIy4jS-56" value="w2" style="shape=partialRectangle;html=1;whiteSpace=wrap;connectable=0;strokeColor=inherit;overflow=hidden;fillColor=none;top=0;left=0;bottom=0;right=0;pointerEvents=1;fontSize=10;" parent="7Xz4EL3dT2qsOErIy4jS-54" vertex="1">
          <mxGeometry x="77" width="35" height="20" as="geometry">
            <mxRectangle width="35" height="20" as="alternateBounds" />
          </mxGeometry>
        </mxCell>
        <mxCell id="7Xz4EL3dT2qsOErIy4jS-62" value="trends3" style="shape=partialRectangle;html=1;whiteSpace=wrap;connectable=0;strokeColor=inherit;overflow=hidden;fillColor=none;top=0;left=0;bottom=0;right=0;pointerEvents=1;fontSize=10;" parent="7Xz4EL3dT2qsOErIy4jS-54" vertex="1">
          <mxGeometry x="112" width="47" height="20" as="geometry">
            <mxRectangle width="47" height="20" as="alternateBounds" />
          </mxGeometry>
        </mxCell>
        <mxCell id="8toNQD8QST1rocxcnVbk-17" value="competition3" style="shape=partialRectangle;html=1;whiteSpace=wrap;connectable=0;strokeColor=inherit;overflow=hidden;fillColor=none;top=0;left=0;bottom=0;right=0;pointerEvents=1;fontSize=10;" parent="7Xz4EL3dT2qsOErIy4jS-54" vertex="1">
          <mxGeometry x="159" width="65" height="20" as="geometry">
            <mxRectangle width="65" height="20" as="alternateBounds" />
          </mxGeometry>
        </mxCell>
        <mxCell id="7Xz4EL3dT2qsOErIy4jS-499" value="&lt;span style=&quot;color: rgb(0, 0, 0); font-family: Helvetica; font-size: 10px; font-style: normal; font-variant-ligatures: normal; font-variant-caps: normal; font-weight: 400; letter-spacing: normal; orphans: 2; text-align: center; text-indent: 0px; text-transform: none; widows: 2; word-spacing: 0px; -webkit-text-stroke-width: 0px; white-space: normal; background-color: rgb(251, 251, 251); text-decoration-thickness: initial; text-decoration-style: initial; text-decoration-color: initial; float: none; display: inline !important;&quot;&gt;country2&lt;/span&gt;" style="shape=partialRectangle;html=1;whiteSpace=wrap;connectable=0;strokeColor=inherit;overflow=hidden;fillColor=none;top=0;left=0;bottom=0;right=0;pointerEvents=1;fontSize=10;" parent="7Xz4EL3dT2qsOErIy4jS-54" vertex="1">
          <mxGeometry x="224" width="56" height="20" as="geometry">
            <mxRectangle width="56" height="20" as="alternateBounds" />
          </mxGeometry>
        </mxCell>
        <mxCell id="7Xz4EL3dT2qsOErIy4jS-57" style="shape=tableRow;horizontal=0;startSize=0;swimlaneHead=0;swimlaneBody=0;strokeColor=inherit;top=0;left=0;bottom=0;right=0;collapsible=0;dropTarget=0;fillColor=none;points=[[0,0.5],[1,0.5]];portConstraint=eastwest;fontSize=16;" parent="7Xz4EL3dT2qsOErIy4jS-47" vertex="1">
          <mxGeometry y="60" width="280" height="20" as="geometry" />
        </mxCell>
        <mxCell id="7Xz4EL3dT2qsOErIy4jS-88" value="kw2" style="shape=partialRectangle;html=1;whiteSpace=wrap;connectable=0;strokeColor=inherit;overflow=hidden;fillColor=none;top=0;left=0;bottom=0;right=0;pointerEvents=1;fontSize=10;" parent="7Xz4EL3dT2qsOErIy4jS-57" vertex="1">
          <mxGeometry width="28" height="20" as="geometry">
            <mxRectangle width="28" height="20" as="alternateBounds" />
          </mxGeometry>
        </mxCell>
        <mxCell id="7Xz4EL3dT2qsOErIy4jS-58" value="kw2 ex2" style="shape=partialRectangle;html=1;whiteSpace=wrap;connectable=0;strokeColor=inherit;overflow=hidden;fillColor=none;top=0;left=0;bottom=0;right=0;pointerEvents=1;fontSize=10;" parent="7Xz4EL3dT2qsOErIy4jS-57" vertex="1">
          <mxGeometry x="28" width="49" height="20" as="geometry">
            <mxRectangle width="49" height="20" as="alternateBounds" />
          </mxGeometry>
        </mxCell>
        <mxCell id="7Xz4EL3dT2qsOErIy4jS-59" value="w2" style="shape=partialRectangle;html=1;whiteSpace=wrap;connectable=0;strokeColor=inherit;overflow=hidden;fillColor=none;top=0;left=0;bottom=0;right=0;pointerEvents=1;fontSize=10;" parent="7Xz4EL3dT2qsOErIy4jS-57" vertex="1">
          <mxGeometry x="77" width="35" height="20" as="geometry">
            <mxRectangle width="35" height="20" as="alternateBounds" />
          </mxGeometry>
        </mxCell>
        <mxCell id="7Xz4EL3dT2qsOErIy4jS-63" value="trends4" style="shape=partialRectangle;html=1;whiteSpace=wrap;connectable=0;strokeColor=inherit;overflow=hidden;fillColor=none;top=0;left=0;bottom=0;right=0;pointerEvents=1;fontSize=10;" parent="7Xz4EL3dT2qsOErIy4jS-57" vertex="1">
          <mxGeometry x="112" width="47" height="20" as="geometry">
            <mxRectangle width="47" height="20" as="alternateBounds" />
          </mxGeometry>
        </mxCell>
        <mxCell id="8toNQD8QST1rocxcnVbk-18" value="competition4" style="shape=partialRectangle;html=1;whiteSpace=wrap;connectable=0;strokeColor=inherit;overflow=hidden;fillColor=none;top=0;left=0;bottom=0;right=0;pointerEvents=1;fontSize=10;" parent="7Xz4EL3dT2qsOErIy4jS-57" vertex="1">
          <mxGeometry x="159" width="65" height="20" as="geometry">
            <mxRectangle width="65" height="20" as="alternateBounds" />
          </mxGeometry>
        </mxCell>
        <mxCell id="7Xz4EL3dT2qsOErIy4jS-500" value="&lt;meta charset=&quot;utf-8&quot;&gt;&lt;span style=&quot;color: rgb(0, 0, 0); font-family: Helvetica; font-size: 10px; font-style: normal; font-variant-ligatures: normal; font-variant-caps: normal; font-weight: 400; letter-spacing: normal; orphans: 2; text-align: center; text-indent: 0px; text-transform: none; widows: 2; word-spacing: 0px; -webkit-text-stroke-width: 0px; white-space: normal; background-color: rgb(251, 251, 251); text-decoration-thickness: initial; text-decoration-style: initial; text-decoration-color: initial; display: inline !important; float: none;&quot;&gt;country2&lt;/span&gt;" style="shape=partialRectangle;html=1;whiteSpace=wrap;connectable=0;strokeColor=inherit;overflow=hidden;fillColor=none;top=0;left=0;bottom=0;right=0;pointerEvents=1;fontSize=10;" parent="7Xz4EL3dT2qsOErIy4jS-57" vertex="1">
          <mxGeometry x="224" width="56" height="20" as="geometry">
            <mxRectangle width="56" height="20" as="alternateBounds" />
          </mxGeometry>
        </mxCell>
        <mxCell id="7Xz4EL3dT2qsOErIy4jS-34" value="" style="shape=table;startSize=0;container=1;collapsible=0;childLayout=tableLayout;fontSize=16;" parent="1" vertex="1">
          <mxGeometry x="-320" y="260" width="173" height="80" as="geometry" />
        </mxCell>
        <mxCell id="7Xz4EL3dT2qsOErIy4jS-44" style="shape=tableRow;horizontal=0;startSize=0;swimlaneHead=0;swimlaneBody=0;strokeColor=inherit;top=0;left=0;bottom=0;right=0;collapsible=0;dropTarget=0;fillColor=none;points=[[0,0.5],[1,0.5]];portConstraint=eastwest;fontSize=16;" parent="7Xz4EL3dT2qsOErIy4jS-34" vertex="1">
          <mxGeometry width="173" height="20" as="geometry" />
        </mxCell>
        <mxCell id="7Xz4EL3dT2qsOErIy4jS-73" value="kw1" style="shape=partialRectangle;html=1;whiteSpace=wrap;connectable=0;strokeColor=inherit;overflow=hidden;fillColor=none;top=0;left=0;bottom=0;right=0;pointerEvents=1;fontSize=10;" parent="7Xz4EL3dT2qsOErIy4jS-44" vertex="1">
          <mxGeometry width="30" height="20" as="geometry">
            <mxRectangle width="30" height="20" as="alternateBounds" />
          </mxGeometry>
        </mxCell>
        <mxCell id="7Xz4EL3dT2qsOErIy4jS-45" value="kw1 ex1" style="shape=partialRectangle;html=1;whiteSpace=wrap;connectable=0;strokeColor=inherit;overflow=hidden;fillColor=none;top=0;left=0;bottom=0;right=0;pointerEvents=1;fontSize=10;" parent="7Xz4EL3dT2qsOErIy4jS-44" vertex="1">
          <mxGeometry x="30" width="57" height="20" as="geometry">
            <mxRectangle width="57" height="20" as="alternateBounds" />
          </mxGeometry>
        </mxCell>
        <mxCell id="7Xz4EL3dT2qsOErIy4jS-46" value="w1" style="shape=partialRectangle;html=1;whiteSpace=wrap;connectable=0;strokeColor=inherit;overflow=hidden;fillColor=none;top=0;left=0;bottom=0;right=0;pointerEvents=1;fontSize=10;" parent="7Xz4EL3dT2qsOErIy4jS-44" vertex="1">
          <mxGeometry x="87" width="43" height="20" as="geometry">
            <mxRectangle width="43" height="20" as="alternateBounds" />
          </mxGeometry>
        </mxCell>
        <mxCell id="7Xz4EL3dT2qsOErIy4jS-491" value="country1" style="shape=partialRectangle;html=1;whiteSpace=wrap;connectable=0;strokeColor=inherit;overflow=hidden;fillColor=none;top=0;left=0;bottom=0;right=0;pointerEvents=1;fontSize=10;" parent="7Xz4EL3dT2qsOErIy4jS-44" vertex="1">
          <mxGeometry x="130" width="43" height="20" as="geometry">
            <mxRectangle width="43" height="20" as="alternateBounds" />
          </mxGeometry>
        </mxCell>
        <mxCell id="7Xz4EL3dT2qsOErIy4jS-76" style="shape=tableRow;horizontal=0;startSize=0;swimlaneHead=0;swimlaneBody=0;strokeColor=inherit;top=0;left=0;bottom=0;right=0;collapsible=0;dropTarget=0;fillColor=none;points=[[0,0.5],[1,0.5]];portConstraint=eastwest;fontSize=16;" parent="7Xz4EL3dT2qsOErIy4jS-34" vertex="1">
          <mxGeometry y="20" width="173" height="20" as="geometry" />
        </mxCell>
        <mxCell id="7Xz4EL3dT2qsOErIy4jS-77" value="kw1" style="shape=partialRectangle;html=1;whiteSpace=wrap;connectable=0;strokeColor=inherit;overflow=hidden;fillColor=none;top=0;left=0;bottom=0;right=0;pointerEvents=1;fontSize=10;" parent="7Xz4EL3dT2qsOErIy4jS-76" vertex="1">
          <mxGeometry width="30" height="20" as="geometry">
            <mxRectangle width="30" height="20" as="alternateBounds" />
          </mxGeometry>
        </mxCell>
        <mxCell id="7Xz4EL3dT2qsOErIy4jS-78" value="kw1 ex2" style="shape=partialRectangle;html=1;whiteSpace=wrap;connectable=0;strokeColor=inherit;overflow=hidden;fillColor=none;top=0;left=0;bottom=0;right=0;pointerEvents=1;fontSize=10;" parent="7Xz4EL3dT2qsOErIy4jS-76" vertex="1">
          <mxGeometry x="30" width="57" height="20" as="geometry">
            <mxRectangle width="57" height="20" as="alternateBounds" />
          </mxGeometry>
        </mxCell>
        <mxCell id="7Xz4EL3dT2qsOErIy4jS-79" value="w1" style="shape=partialRectangle;html=1;whiteSpace=wrap;connectable=0;strokeColor=inherit;overflow=hidden;fillColor=none;top=0;left=0;bottom=0;right=0;pointerEvents=1;fontSize=10;" parent="7Xz4EL3dT2qsOErIy4jS-76" vertex="1">
          <mxGeometry x="87" width="43" height="20" as="geometry">
            <mxRectangle width="43" height="20" as="alternateBounds" />
          </mxGeometry>
        </mxCell>
        <mxCell id="7Xz4EL3dT2qsOErIy4jS-492" value="country1" style="shape=partialRectangle;html=1;whiteSpace=wrap;connectable=0;strokeColor=inherit;overflow=hidden;fillColor=none;top=0;left=0;bottom=0;right=0;pointerEvents=1;fontSize=10;" parent="7Xz4EL3dT2qsOErIy4jS-76" vertex="1">
          <mxGeometry x="130" width="43" height="20" as="geometry">
            <mxRectangle width="43" height="20" as="alternateBounds" />
          </mxGeometry>
        </mxCell>
        <mxCell id="7Xz4EL3dT2qsOErIy4jS-41" style="shape=tableRow;horizontal=0;startSize=0;swimlaneHead=0;swimlaneBody=0;strokeColor=inherit;top=0;left=0;bottom=0;right=0;collapsible=0;dropTarget=0;fillColor=none;points=[[0,0.5],[1,0.5]];portConstraint=eastwest;fontSize=16;" parent="7Xz4EL3dT2qsOErIy4jS-34" vertex="1">
          <mxGeometry y="40" width="173" height="20" as="geometry" />
        </mxCell>
        <mxCell id="7Xz4EL3dT2qsOErIy4jS-75" value="kw2" style="shape=partialRectangle;html=1;whiteSpace=wrap;connectable=0;strokeColor=inherit;overflow=hidden;fillColor=none;top=0;left=0;bottom=0;right=0;pointerEvents=1;fontSize=10;" parent="7Xz4EL3dT2qsOErIy4jS-41" vertex="1">
          <mxGeometry width="30" height="20" as="geometry">
            <mxRectangle width="30" height="20" as="alternateBounds" />
          </mxGeometry>
        </mxCell>
        <mxCell id="7Xz4EL3dT2qsOErIy4jS-42" value="kw2 ex1" style="shape=partialRectangle;html=1;whiteSpace=wrap;connectable=0;strokeColor=inherit;overflow=hidden;fillColor=none;top=0;left=0;bottom=0;right=0;pointerEvents=1;fontSize=10;" parent="7Xz4EL3dT2qsOErIy4jS-41" vertex="1">
          <mxGeometry x="30" width="57" height="20" as="geometry">
            <mxRectangle width="57" height="20" as="alternateBounds" />
          </mxGeometry>
        </mxCell>
        <mxCell id="7Xz4EL3dT2qsOErIy4jS-43" value="w2" style="shape=partialRectangle;html=1;whiteSpace=wrap;connectable=0;strokeColor=inherit;overflow=hidden;fillColor=none;top=0;left=0;bottom=0;right=0;pointerEvents=1;fontSize=10;" parent="7Xz4EL3dT2qsOErIy4jS-41" vertex="1">
          <mxGeometry x="87" width="43" height="20" as="geometry">
            <mxRectangle width="43" height="20" as="alternateBounds" />
          </mxGeometry>
        </mxCell>
        <mxCell id="7Xz4EL3dT2qsOErIy4jS-493" value="country2" style="shape=partialRectangle;html=1;whiteSpace=wrap;connectable=0;strokeColor=inherit;overflow=hidden;fillColor=none;top=0;left=0;bottom=0;right=0;pointerEvents=1;fontSize=10;" parent="7Xz4EL3dT2qsOErIy4jS-41" vertex="1">
          <mxGeometry x="130" width="43" height="20" as="geometry">
            <mxRectangle width="43" height="20" as="alternateBounds" />
          </mxGeometry>
        </mxCell>
        <mxCell id="7Xz4EL3dT2qsOErIy4jS-80" style="shape=tableRow;horizontal=0;startSize=0;swimlaneHead=0;swimlaneBody=0;strokeColor=inherit;top=0;left=0;bottom=0;right=0;collapsible=0;dropTarget=0;fillColor=none;points=[[0,0.5],[1,0.5]];portConstraint=eastwest;fontSize=16;" parent="7Xz4EL3dT2qsOErIy4jS-34" vertex="1">
          <mxGeometry y="60" width="173" height="20" as="geometry" />
        </mxCell>
        <mxCell id="7Xz4EL3dT2qsOErIy4jS-81" value="kw2" style="shape=partialRectangle;html=1;whiteSpace=wrap;connectable=0;strokeColor=inherit;overflow=hidden;fillColor=none;top=0;left=0;bottom=0;right=0;pointerEvents=1;fontSize=10;" parent="7Xz4EL3dT2qsOErIy4jS-80" vertex="1">
          <mxGeometry width="30" height="20" as="geometry">
            <mxRectangle width="30" height="20" as="alternateBounds" />
          </mxGeometry>
        </mxCell>
        <mxCell id="7Xz4EL3dT2qsOErIy4jS-82" value="kw2 ex2" style="shape=partialRectangle;html=1;whiteSpace=wrap;connectable=0;strokeColor=inherit;overflow=hidden;fillColor=none;top=0;left=0;bottom=0;right=0;pointerEvents=1;fontSize=10;" parent="7Xz4EL3dT2qsOErIy4jS-80" vertex="1">
          <mxGeometry x="30" width="57" height="20" as="geometry">
            <mxRectangle width="57" height="20" as="alternateBounds" />
          </mxGeometry>
        </mxCell>
        <mxCell id="7Xz4EL3dT2qsOErIy4jS-83" value="w2" style="shape=partialRectangle;html=1;whiteSpace=wrap;connectable=0;strokeColor=inherit;overflow=hidden;fillColor=none;top=0;left=0;bottom=0;right=0;pointerEvents=1;fontSize=10;" parent="7Xz4EL3dT2qsOErIy4jS-80" vertex="1">
          <mxGeometry x="87" width="43" height="20" as="geometry">
            <mxRectangle width="43" height="20" as="alternateBounds" />
          </mxGeometry>
        </mxCell>
        <mxCell id="7Xz4EL3dT2qsOErIy4jS-494" value="country2" style="shape=partialRectangle;html=1;whiteSpace=wrap;connectable=0;strokeColor=inherit;overflow=hidden;fillColor=none;top=0;left=0;bottom=0;right=0;pointerEvents=1;fontSize=10;" parent="7Xz4EL3dT2qsOErIy4jS-80" vertex="1">
          <mxGeometry x="130" width="43" height="20" as="geometry">
            <mxRectangle width="43" height="20" as="alternateBounds" />
          </mxGeometry>
        </mxCell>
        <mxCell id="7Xz4EL3dT2qsOErIy4jS-142" value="" style="shape=table;startSize=0;container=1;collapsible=0;childLayout=tableLayout;fontSize=16;" parent="1" vertex="1">
          <mxGeometry x="-320" y="740" width="350" height="80" as="geometry" />
        </mxCell>
        <mxCell id="7Xz4EL3dT2qsOErIy4jS-143" value="" style="shape=tableRow;horizontal=0;startSize=0;swimlaneHead=0;swimlaneBody=0;strokeColor=inherit;top=0;left=0;bottom=0;right=0;collapsible=0;dropTarget=0;fillColor=none;points=[[0,0.5],[1,0.5]];portConstraint=eastwest;fontSize=16;" parent="7Xz4EL3dT2qsOErIy4jS-142" vertex="1">
          <mxGeometry width="350" height="20" as="geometry" />
        </mxCell>
        <mxCell id="7Xz4EL3dT2qsOErIy4jS-144" value="kw1" style="shape=partialRectangle;html=1;whiteSpace=wrap;connectable=0;strokeColor=inherit;overflow=hidden;fillColor=none;top=0;left=0;bottom=0;right=0;pointerEvents=1;fontSize=10;" parent="7Xz4EL3dT2qsOErIy4jS-143" vertex="1">
          <mxGeometry width="40" height="20" as="geometry">
            <mxRectangle width="40" height="20" as="alternateBounds" />
          </mxGeometry>
        </mxCell>
        <mxCell id="7Xz4EL3dT2qsOErIy4jS-145" value="kw1 ex1" style="shape=partialRectangle;html=1;whiteSpace=wrap;connectable=0;strokeColor=inherit;overflow=hidden;fillColor=none;top=0;left=0;bottom=0;right=0;pointerEvents=1;fontSize=10;" parent="7Xz4EL3dT2qsOErIy4jS-143" vertex="1">
          <mxGeometry x="40" width="50" height="20" as="geometry">
            <mxRectangle width="50" height="20" as="alternateBounds" />
          </mxGeometry>
        </mxCell>
        <mxCell id="7Xz4EL3dT2qsOErIy4jS-146" value="w1" style="shape=partialRectangle;html=1;whiteSpace=wrap;connectable=0;strokeColor=inherit;overflow=hidden;fillColor=none;top=0;left=0;bottom=0;right=0;pointerEvents=1;fontSize=10;" parent="7Xz4EL3dT2qsOErIy4jS-143" vertex="1">
          <mxGeometry x="90" width="30" height="20" as="geometry">
            <mxRectangle width="30" height="20" as="alternateBounds" />
          </mxGeometry>
        </mxCell>
        <mxCell id="7Xz4EL3dT2qsOErIy4jS-147" value="trends1" style="shape=partialRectangle;html=1;whiteSpace=wrap;connectable=0;strokeColor=inherit;overflow=hidden;fillColor=none;top=0;left=0;bottom=0;right=0;pointerEvents=1;fontSize=10;" parent="7Xz4EL3dT2qsOErIy4jS-143" vertex="1">
          <mxGeometry x="120" width="50" height="20" as="geometry">
            <mxRectangle width="50" height="20" as="alternateBounds" />
          </mxGeometry>
        </mxCell>
        <mxCell id="8toNQD8QST1rocxcnVbk-44" value="competition1" style="shape=partialRectangle;html=1;whiteSpace=wrap;connectable=0;strokeColor=inherit;overflow=hidden;fillColor=none;top=0;left=0;bottom=0;right=0;pointerEvents=1;fontSize=10;" parent="7Xz4EL3dT2qsOErIy4jS-143" vertex="1">
          <mxGeometry x="170" width="70" height="20" as="geometry">
            <mxRectangle width="70" height="20" as="alternateBounds" />
          </mxGeometry>
        </mxCell>
        <mxCell id="7Xz4EL3dT2qsOErIy4jS-173" value="rank1" style="shape=partialRectangle;html=1;whiteSpace=wrap;connectable=0;strokeColor=inherit;overflow=hidden;fillColor=none;top=0;left=0;bottom=0;right=0;pointerEvents=1;fontSize=10;" parent="7Xz4EL3dT2qsOErIy4jS-143" vertex="1">
          <mxGeometry x="240" width="40" height="20" as="geometry">
            <mxRectangle width="40" height="20" as="alternateBounds" />
          </mxGeometry>
        </mxCell>
        <mxCell id="7Xz4EL3dT2qsOErIy4jS-322" style="shape=partialRectangle;html=1;whiteSpace=wrap;connectable=0;strokeColor=inherit;overflow=hidden;fillColor=none;top=0;left=0;bottom=0;right=0;pointerEvents=1;fontSize=10;fontColor=#FFB570;" parent="7Xz4EL3dT2qsOErIy4jS-143" vertex="1">
          <mxGeometry x="280" width="30" height="20" as="geometry">
            <mxRectangle width="30" height="20" as="alternateBounds" />
          </mxGeometry>
        </mxCell>
        <mxCell id="8toNQD8QST1rocxcnVbk-1" value="kw_url1" style="shape=partialRectangle;html=1;whiteSpace=wrap;connectable=0;strokeColor=inherit;overflow=hidden;fillColor=none;top=0;left=0;bottom=0;right=0;pointerEvents=1;fontSize=10;fontColor=#000000;" parent="7Xz4EL3dT2qsOErIy4jS-143" vertex="1">
          <mxGeometry x="310" width="40" height="20" as="geometry">
            <mxRectangle width="40" height="20" as="alternateBounds" />
          </mxGeometry>
        </mxCell>
        <mxCell id="7Xz4EL3dT2qsOErIy4jS-148" style="shape=tableRow;horizontal=0;startSize=0;swimlaneHead=0;swimlaneBody=0;strokeColor=inherit;top=0;left=0;bottom=0;right=0;collapsible=0;dropTarget=0;fillColor=none;points=[[0,0.5],[1,0.5]];portConstraint=eastwest;fontSize=16;" parent="7Xz4EL3dT2qsOErIy4jS-142" vertex="1">
          <mxGeometry y="20" width="350" height="20" as="geometry" />
        </mxCell>
        <mxCell id="7Xz4EL3dT2qsOErIy4jS-149" value="kw1" style="shape=partialRectangle;html=1;whiteSpace=wrap;connectable=0;strokeColor=inherit;overflow=hidden;fillColor=none;top=0;left=0;bottom=0;right=0;pointerEvents=1;fontSize=10;" parent="7Xz4EL3dT2qsOErIy4jS-148" vertex="1">
          <mxGeometry width="40" height="20" as="geometry">
            <mxRectangle width="40" height="20" as="alternateBounds" />
          </mxGeometry>
        </mxCell>
        <mxCell id="7Xz4EL3dT2qsOErIy4jS-150" value="kw1 ex2" style="shape=partialRectangle;html=1;whiteSpace=wrap;connectable=0;strokeColor=inherit;overflow=hidden;fillColor=none;top=0;left=0;bottom=0;right=0;pointerEvents=1;fontSize=10;" parent="7Xz4EL3dT2qsOErIy4jS-148" vertex="1">
          <mxGeometry x="40" width="50" height="20" as="geometry">
            <mxRectangle width="50" height="20" as="alternateBounds" />
          </mxGeometry>
        </mxCell>
        <mxCell id="7Xz4EL3dT2qsOErIy4jS-151" value="w1" style="shape=partialRectangle;html=1;whiteSpace=wrap;connectable=0;strokeColor=inherit;overflow=hidden;fillColor=none;top=0;left=0;bottom=0;right=0;pointerEvents=1;fontSize=10;" parent="7Xz4EL3dT2qsOErIy4jS-148" vertex="1">
          <mxGeometry x="90" width="30" height="20" as="geometry">
            <mxRectangle width="30" height="20" as="alternateBounds" />
          </mxGeometry>
        </mxCell>
        <mxCell id="7Xz4EL3dT2qsOErIy4jS-152" value="trends2" style="shape=partialRectangle;html=1;whiteSpace=wrap;connectable=0;strokeColor=inherit;overflow=hidden;fillColor=none;top=0;left=0;bottom=0;right=0;pointerEvents=1;fontSize=10;" parent="7Xz4EL3dT2qsOErIy4jS-148" vertex="1">
          <mxGeometry x="120" width="50" height="20" as="geometry">
            <mxRectangle width="50" height="20" as="alternateBounds" />
          </mxGeometry>
        </mxCell>
        <mxCell id="8toNQD8QST1rocxcnVbk-45" value="competition2" style="shape=partialRectangle;html=1;whiteSpace=wrap;connectable=0;strokeColor=inherit;overflow=hidden;fillColor=none;top=0;left=0;bottom=0;right=0;pointerEvents=1;fontSize=10;" parent="7Xz4EL3dT2qsOErIy4jS-148" vertex="1">
          <mxGeometry x="170" width="70" height="20" as="geometry">
            <mxRectangle width="70" height="20" as="alternateBounds" />
          </mxGeometry>
        </mxCell>
        <mxCell id="7Xz4EL3dT2qsOErIy4jS-174" value="rank2" style="shape=partialRectangle;html=1;whiteSpace=wrap;connectable=0;strokeColor=inherit;overflow=hidden;fillColor=none;top=0;left=0;bottom=0;right=0;pointerEvents=1;fontSize=10;" parent="7Xz4EL3dT2qsOErIy4jS-148" vertex="1">
          <mxGeometry x="240" width="40" height="20" as="geometry">
            <mxRectangle width="40" height="20" as="alternateBounds" />
          </mxGeometry>
        </mxCell>
        <mxCell id="7Xz4EL3dT2qsOErIy4jS-323" value="cost1" style="shape=partialRectangle;html=1;whiteSpace=wrap;connectable=0;strokeColor=inherit;overflow=hidden;fillColor=none;top=0;left=0;bottom=0;right=0;pointerEvents=1;fontSize=10;fontColor=#FFB570;" parent="7Xz4EL3dT2qsOErIy4jS-148" vertex="1">
          <mxGeometry x="280" width="30" height="20" as="geometry">
            <mxRectangle width="30" height="20" as="alternateBounds" />
          </mxGeometry>
        </mxCell>
        <mxCell id="8toNQD8QST1rocxcnVbk-2" value="kw_url2" style="shape=partialRectangle;html=1;whiteSpace=wrap;connectable=0;strokeColor=inherit;overflow=hidden;fillColor=none;top=0;left=0;bottom=0;right=0;pointerEvents=1;fontSize=10;fontColor=#000000;" parent="7Xz4EL3dT2qsOErIy4jS-148" vertex="1">
          <mxGeometry x="310" width="40" height="20" as="geometry">
            <mxRectangle width="40" height="20" as="alternateBounds" />
          </mxGeometry>
        </mxCell>
        <mxCell id="7Xz4EL3dT2qsOErIy4jS-158" value="" style="shape=tableRow;horizontal=0;startSize=0;swimlaneHead=0;swimlaneBody=0;strokeColor=inherit;top=0;left=0;bottom=0;right=0;collapsible=0;dropTarget=0;fillColor=none;points=[[0,0.5],[1,0.5]];portConstraint=eastwest;fontSize=16;" parent="7Xz4EL3dT2qsOErIy4jS-142" vertex="1">
          <mxGeometry y="40" width="350" height="20" as="geometry" />
        </mxCell>
        <mxCell id="7Xz4EL3dT2qsOErIy4jS-159" value="kw2" style="shape=partialRectangle;html=1;whiteSpace=wrap;connectable=0;strokeColor=inherit;overflow=hidden;fillColor=none;top=0;left=0;bottom=0;right=0;pointerEvents=1;fontSize=10;" parent="7Xz4EL3dT2qsOErIy4jS-158" vertex="1">
          <mxGeometry width="40" height="20" as="geometry">
            <mxRectangle width="40" height="20" as="alternateBounds" />
          </mxGeometry>
        </mxCell>
        <mxCell id="7Xz4EL3dT2qsOErIy4jS-160" value="kw2 ex1" style="shape=partialRectangle;html=1;whiteSpace=wrap;connectable=0;strokeColor=inherit;overflow=hidden;fillColor=none;top=0;left=0;bottom=0;right=0;pointerEvents=1;fontSize=10;" parent="7Xz4EL3dT2qsOErIy4jS-158" vertex="1">
          <mxGeometry x="40" width="50" height="20" as="geometry">
            <mxRectangle width="50" height="20" as="alternateBounds" />
          </mxGeometry>
        </mxCell>
        <mxCell id="7Xz4EL3dT2qsOErIy4jS-161" value="w2" style="shape=partialRectangle;html=1;whiteSpace=wrap;connectable=0;strokeColor=inherit;overflow=hidden;fillColor=none;top=0;left=0;bottom=0;right=0;pointerEvents=1;fontSize=10;" parent="7Xz4EL3dT2qsOErIy4jS-158" vertex="1">
          <mxGeometry x="90" width="30" height="20" as="geometry">
            <mxRectangle width="30" height="20" as="alternateBounds" />
          </mxGeometry>
        </mxCell>
        <mxCell id="7Xz4EL3dT2qsOErIy4jS-162" value="trends3" style="shape=partialRectangle;html=1;whiteSpace=wrap;connectable=0;strokeColor=inherit;overflow=hidden;fillColor=none;top=0;left=0;bottom=0;right=0;pointerEvents=1;fontSize=10;" parent="7Xz4EL3dT2qsOErIy4jS-158" vertex="1">
          <mxGeometry x="120" width="50" height="20" as="geometry">
            <mxRectangle width="50" height="20" as="alternateBounds" />
          </mxGeometry>
        </mxCell>
        <mxCell id="8toNQD8QST1rocxcnVbk-47" value="competition3" style="shape=partialRectangle;html=1;whiteSpace=wrap;connectable=0;strokeColor=inherit;overflow=hidden;fillColor=none;top=0;left=0;bottom=0;right=0;pointerEvents=1;fontSize=10;" parent="7Xz4EL3dT2qsOErIy4jS-158" vertex="1">
          <mxGeometry x="170" width="70" height="20" as="geometry">
            <mxRectangle width="70" height="20" as="alternateBounds" />
          </mxGeometry>
        </mxCell>
        <mxCell id="7Xz4EL3dT2qsOErIy4jS-176" value="rank3" style="shape=partialRectangle;html=1;whiteSpace=wrap;connectable=0;strokeColor=inherit;overflow=hidden;fillColor=none;top=0;left=0;bottom=0;right=0;pointerEvents=1;fontSize=10;" parent="7Xz4EL3dT2qsOErIy4jS-158" vertex="1">
          <mxGeometry x="240" width="40" height="20" as="geometry">
            <mxRectangle width="40" height="20" as="alternateBounds" />
          </mxGeometry>
        </mxCell>
        <mxCell id="7Xz4EL3dT2qsOErIy4jS-325" style="shape=partialRectangle;html=1;whiteSpace=wrap;connectable=0;strokeColor=inherit;overflow=hidden;fillColor=none;top=0;left=0;bottom=0;right=0;pointerEvents=1;fontSize=10;fontColor=#FFB570;" parent="7Xz4EL3dT2qsOErIy4jS-158" vertex="1">
          <mxGeometry x="280" width="30" height="20" as="geometry">
            <mxRectangle width="30" height="20" as="alternateBounds" />
          </mxGeometry>
        </mxCell>
        <mxCell id="8toNQD8QST1rocxcnVbk-4" value="kw_url3" style="shape=partialRectangle;html=1;whiteSpace=wrap;connectable=0;strokeColor=inherit;overflow=hidden;fillColor=none;top=0;left=0;bottom=0;right=0;pointerEvents=1;fontSize=10;fontColor=#000000;" parent="7Xz4EL3dT2qsOErIy4jS-158" vertex="1">
          <mxGeometry x="310" width="40" height="20" as="geometry">
            <mxRectangle width="40" height="20" as="alternateBounds" />
          </mxGeometry>
        </mxCell>
        <mxCell id="7Xz4EL3dT2qsOErIy4jS-163" style="shape=tableRow;horizontal=0;startSize=0;swimlaneHead=0;swimlaneBody=0;strokeColor=inherit;top=0;left=0;bottom=0;right=0;collapsible=0;dropTarget=0;fillColor=none;points=[[0,0.5],[1,0.5]];portConstraint=eastwest;fontSize=16;" parent="7Xz4EL3dT2qsOErIy4jS-142" vertex="1">
          <mxGeometry y="60" width="350" height="20" as="geometry" />
        </mxCell>
        <mxCell id="7Xz4EL3dT2qsOErIy4jS-164" value="kw2" style="shape=partialRectangle;html=1;whiteSpace=wrap;connectable=0;strokeColor=inherit;overflow=hidden;fillColor=none;top=0;left=0;bottom=0;right=0;pointerEvents=1;fontSize=10;" parent="7Xz4EL3dT2qsOErIy4jS-163" vertex="1">
          <mxGeometry width="40" height="20" as="geometry">
            <mxRectangle width="40" height="20" as="alternateBounds" />
          </mxGeometry>
        </mxCell>
        <mxCell id="7Xz4EL3dT2qsOErIy4jS-165" value="kw2 ex2" style="shape=partialRectangle;html=1;whiteSpace=wrap;connectable=0;strokeColor=inherit;overflow=hidden;fillColor=none;top=0;left=0;bottom=0;right=0;pointerEvents=1;fontSize=10;" parent="7Xz4EL3dT2qsOErIy4jS-163" vertex="1">
          <mxGeometry x="40" width="50" height="20" as="geometry">
            <mxRectangle width="50" height="20" as="alternateBounds" />
          </mxGeometry>
        </mxCell>
        <mxCell id="7Xz4EL3dT2qsOErIy4jS-166" value="w2" style="shape=partialRectangle;html=1;whiteSpace=wrap;connectable=0;strokeColor=inherit;overflow=hidden;fillColor=none;top=0;left=0;bottom=0;right=0;pointerEvents=1;fontSize=10;" parent="7Xz4EL3dT2qsOErIy4jS-163" vertex="1">
          <mxGeometry x="90" width="30" height="20" as="geometry">
            <mxRectangle width="30" height="20" as="alternateBounds" />
          </mxGeometry>
        </mxCell>
        <mxCell id="7Xz4EL3dT2qsOErIy4jS-167" value="trends4" style="shape=partialRectangle;html=1;whiteSpace=wrap;connectable=0;strokeColor=inherit;overflow=hidden;fillColor=none;top=0;left=0;bottom=0;right=0;pointerEvents=1;fontSize=10;" parent="7Xz4EL3dT2qsOErIy4jS-163" vertex="1">
          <mxGeometry x="120" width="50" height="20" as="geometry">
            <mxRectangle width="50" height="20" as="alternateBounds" />
          </mxGeometry>
        </mxCell>
        <mxCell id="8toNQD8QST1rocxcnVbk-48" value="competition4" style="shape=partialRectangle;html=1;whiteSpace=wrap;connectable=0;strokeColor=inherit;overflow=hidden;fillColor=none;top=0;left=0;bottom=0;right=0;pointerEvents=1;fontSize=10;" parent="7Xz4EL3dT2qsOErIy4jS-163" vertex="1">
          <mxGeometry x="170" width="70" height="20" as="geometry">
            <mxRectangle width="70" height="20" as="alternateBounds" />
          </mxGeometry>
        </mxCell>
        <mxCell id="7Xz4EL3dT2qsOErIy4jS-177" value="rank4" style="shape=partialRectangle;html=1;whiteSpace=wrap;connectable=0;strokeColor=inherit;overflow=hidden;fillColor=none;top=0;left=0;bottom=0;right=0;pointerEvents=1;fontSize=10;" parent="7Xz4EL3dT2qsOErIy4jS-163" vertex="1">
          <mxGeometry x="240" width="40" height="20" as="geometry">
            <mxRectangle width="40" height="20" as="alternateBounds" />
          </mxGeometry>
        </mxCell>
        <mxCell id="7Xz4EL3dT2qsOErIy4jS-326" style="shape=partialRectangle;html=1;whiteSpace=wrap;connectable=0;strokeColor=inherit;overflow=hidden;fillColor=none;top=0;left=0;bottom=0;right=0;pointerEvents=1;fontSize=10;fontColor=#FFB570;" parent="7Xz4EL3dT2qsOErIy4jS-163" vertex="1">
          <mxGeometry x="280" width="30" height="20" as="geometry">
            <mxRectangle width="30" height="20" as="alternateBounds" />
          </mxGeometry>
        </mxCell>
        <mxCell id="8toNQD8QST1rocxcnVbk-5" value="kw_url4" style="shape=partialRectangle;html=1;whiteSpace=wrap;connectable=0;strokeColor=inherit;overflow=hidden;fillColor=none;top=0;left=0;bottom=0;right=0;pointerEvents=1;fontSize=10;fontColor=#000000;" parent="7Xz4EL3dT2qsOErIy4jS-163" vertex="1">
          <mxGeometry x="310" width="40" height="20" as="geometry">
            <mxRectangle width="40" height="20" as="alternateBounds" />
          </mxGeometry>
        </mxCell>
        <mxCell id="7Xz4EL3dT2qsOErIy4jS-224" style="edgeStyle=orthogonalEdgeStyle;rounded=0;orthogonalLoop=1;jettySize=auto;html=1;exitX=0.5;exitY=1;exitDx=0;exitDy=0;entryX=0.5;entryY=0;entryDx=0;entryDy=0;" parent="1" source="7Xz4EL3dT2qsOErIy4jS-220" target="7Xz4EL3dT2qsOErIy4jS-223" edge="1">
          <mxGeometry relative="1" as="geometry" />
        </mxCell>
        <mxCell id="7Xz4EL3dT2qsOErIy4jS-226" value="Calculate Weight:&lt;div&gt;weight = log(clicks)&lt;/div&gt;" style="edgeLabel;html=1;align=center;verticalAlign=middle;resizable=0;points=[];" parent="7Xz4EL3dT2qsOErIy4jS-224" vertex="1" connectable="0">
          <mxGeometry x="-0.125" y="-3" relative="1" as="geometry">
            <mxPoint as="offset" />
          </mxGeometry>
        </mxCell>
        <mxCell id="7Xz4EL3dT2qsOErIy4jS-220" value="Group Pages vs Monthly Clicks" style="rounded=1;whiteSpace=wrap;html=1;" parent="1" vertex="1">
          <mxGeometry x="520" y="280" width="120" height="40" as="geometry" />
        </mxCell>
        <mxCell id="7Xz4EL3dT2qsOErIy4jS-340" style="edgeStyle=orthogonalEdgeStyle;rounded=0;orthogonalLoop=1;jettySize=auto;html=1;exitX=0.5;exitY=1;exitDx=0;exitDy=0;entryX=0.5;entryY=0;entryDx=0;entryDy=0;" parent="1" source="7Xz4EL3dT2qsOErIy4jS-223" target="7Xz4EL3dT2qsOErIy4jS-339" edge="1">
          <mxGeometry relative="1" as="geometry" />
        </mxCell>
        <mxCell id="7Xz4EL3dT2qsOErIy4jS-341" value="Get Current Link Num &amp;amp;&lt;div&gt;Available Internal Link Num&lt;div&gt;&amp;nbsp;for Pages&lt;/div&gt;&lt;/div&gt;" style="edgeLabel;html=1;align=center;verticalAlign=middle;resizable=0;points=[];" parent="7Xz4EL3dT2qsOErIy4jS-340" vertex="1" connectable="0">
          <mxGeometry x="-0.3125" y="-3" relative="1" as="geometry">
            <mxPoint x="3" y="12" as="offset" />
          </mxGeometry>
        </mxCell>
        <mxCell id="7Xz4EL3dT2qsOErIy4jS-223" value="Distinct Pages vs Weight" style="rounded=1;whiteSpace=wrap;html=1;" parent="1" vertex="1">
          <mxGeometry x="520" y="400" width="120" height="40" as="geometry" />
        </mxCell>
        <mxCell id="7Xz4EL3dT2qsOErIy4jS-227" value="" style="shape=table;startSize=0;container=1;collapsible=0;childLayout=tableLayout;fontSize=16;" parent="1" vertex="1">
          <mxGeometry x="720" y="160" width="170" height="80" as="geometry" />
        </mxCell>
        <mxCell id="7Xz4EL3dT2qsOErIy4jS-228" value="" style="shape=tableRow;horizontal=0;startSize=0;swimlaneHead=0;swimlaneBody=0;strokeColor=inherit;top=0;left=0;bottom=0;right=0;collapsible=0;dropTarget=0;fillColor=none;points=[[0,0.5],[1,0.5]];portConstraint=eastwest;fontSize=16;" parent="7Xz4EL3dT2qsOErIy4jS-227" vertex="1">
          <mxGeometry width="170" height="20" as="geometry" />
        </mxCell>
        <mxCell id="7Xz4EL3dT2qsOErIy4jS-229" value="url1" style="shape=partialRectangle;html=1;whiteSpace=wrap;connectable=0;strokeColor=inherit;overflow=hidden;fillColor=none;top=0;left=0;bottom=0;right=0;pointerEvents=1;fontSize=10;" parent="7Xz4EL3dT2qsOErIy4jS-228" vertex="1">
          <mxGeometry width="54" height="20" as="geometry">
            <mxRectangle width="54" height="20" as="alternateBounds" />
          </mxGeometry>
        </mxCell>
        <mxCell id="7Xz4EL3dT2qsOErIy4jS-230" value="clicks1" style="shape=partialRectangle;html=1;whiteSpace=wrap;connectable=0;strokeColor=inherit;overflow=hidden;fillColor=none;top=0;left=0;bottom=0;right=0;pointerEvents=1;fontSize=10;" parent="7Xz4EL3dT2qsOErIy4jS-228" vertex="1">
          <mxGeometry x="54" width="62" height="20" as="geometry">
            <mxRectangle width="62" height="20" as="alternateBounds" />
          </mxGeometry>
        </mxCell>
        <mxCell id="7Xz4EL3dT2qsOErIy4jS-353" value="PSERP" style="shape=partialRectangle;html=1;whiteSpace=wrap;connectable=0;strokeColor=inherit;overflow=hidden;fillColor=none;top=0;left=0;bottom=0;right=0;pointerEvents=1;fontSize=10;" parent="7Xz4EL3dT2qsOErIy4jS-228" vertex="1">
          <mxGeometry x="116" width="54" height="20" as="geometry">
            <mxRectangle width="54" height="20" as="alternateBounds" />
          </mxGeometry>
        </mxCell>
        <mxCell id="7Xz4EL3dT2qsOErIy4jS-231" value="" style="shape=tableRow;horizontal=0;startSize=0;swimlaneHead=0;swimlaneBody=0;strokeColor=inherit;top=0;left=0;bottom=0;right=0;collapsible=0;dropTarget=0;fillColor=none;points=[[0,0.5],[1,0.5]];portConstraint=eastwest;fontSize=16;" parent="7Xz4EL3dT2qsOErIy4jS-227" vertex="1">
          <mxGeometry y="20" width="170" height="20" as="geometry" />
        </mxCell>
        <mxCell id="7Xz4EL3dT2qsOErIy4jS-232" value="url1_filter1" style="shape=partialRectangle;html=1;whiteSpace=wrap;connectable=0;strokeColor=inherit;overflow=hidden;fillColor=none;top=0;left=0;bottom=0;right=0;pointerEvents=1;fontSize=10;" parent="7Xz4EL3dT2qsOErIy4jS-231" vertex="1">
          <mxGeometry width="54" height="20" as="geometry">
            <mxRectangle width="54" height="20" as="alternateBounds" />
          </mxGeometry>
        </mxCell>
        <mxCell id="7Xz4EL3dT2qsOErIy4jS-233" value="clicks2" style="shape=partialRectangle;html=1;whiteSpace=wrap;connectable=0;strokeColor=inherit;overflow=hidden;fillColor=none;top=0;left=0;bottom=0;right=0;pointerEvents=1;fontSize=10;" parent="7Xz4EL3dT2qsOErIy4jS-231" vertex="1">
          <mxGeometry x="54" width="62" height="20" as="geometry">
            <mxRectangle width="62" height="20" as="alternateBounds" />
          </mxGeometry>
        </mxCell>
        <mxCell id="7Xz4EL3dT2qsOErIy4jS-354" value="PSERP" style="shape=partialRectangle;html=1;whiteSpace=wrap;connectable=0;strokeColor=inherit;overflow=hidden;fillColor=none;top=0;left=0;bottom=0;right=0;pointerEvents=1;fontSize=10;" parent="7Xz4EL3dT2qsOErIy4jS-231" vertex="1">
          <mxGeometry x="116" width="54" height="20" as="geometry">
            <mxRectangle width="54" height="20" as="alternateBounds" />
          </mxGeometry>
        </mxCell>
        <mxCell id="7Xz4EL3dT2qsOErIy4jS-237" style="shape=tableRow;horizontal=0;startSize=0;swimlaneHead=0;swimlaneBody=0;strokeColor=inherit;top=0;left=0;bottom=0;right=0;collapsible=0;dropTarget=0;fillColor=none;points=[[0,0.5],[1,0.5]];portConstraint=eastwest;fontSize=16;" parent="7Xz4EL3dT2qsOErIy4jS-227" vertex="1">
          <mxGeometry y="40" width="170" height="20" as="geometry" />
        </mxCell>
        <mxCell id="7Xz4EL3dT2qsOErIy4jS-238" value="url2" style="shape=partialRectangle;html=1;whiteSpace=wrap;connectable=0;strokeColor=inherit;overflow=hidden;fillColor=none;top=0;left=0;bottom=0;right=0;pointerEvents=1;fontSize=10;" parent="7Xz4EL3dT2qsOErIy4jS-237" vertex="1">
          <mxGeometry width="54" height="20" as="geometry">
            <mxRectangle width="54" height="20" as="alternateBounds" />
          </mxGeometry>
        </mxCell>
        <mxCell id="7Xz4EL3dT2qsOErIy4jS-239" value="clicks3" style="shape=partialRectangle;html=1;whiteSpace=wrap;connectable=0;strokeColor=inherit;overflow=hidden;fillColor=none;top=0;left=0;bottom=0;right=0;pointerEvents=1;fontSize=10;" parent="7Xz4EL3dT2qsOErIy4jS-237" vertex="1">
          <mxGeometry x="54" width="62" height="20" as="geometry">
            <mxRectangle width="62" height="20" as="alternateBounds" />
          </mxGeometry>
        </mxCell>
        <mxCell id="7Xz4EL3dT2qsOErIy4jS-355" value="CSERP" style="shape=partialRectangle;html=1;whiteSpace=wrap;connectable=0;strokeColor=inherit;overflow=hidden;fillColor=none;top=0;left=0;bottom=0;right=0;pointerEvents=1;fontSize=10;" parent="7Xz4EL3dT2qsOErIy4jS-237" vertex="1">
          <mxGeometry x="116" width="54" height="20" as="geometry">
            <mxRectangle width="54" height="20" as="alternateBounds" />
          </mxGeometry>
        </mxCell>
        <mxCell id="7Xz4EL3dT2qsOErIy4jS-234" style="shape=tableRow;horizontal=0;startSize=0;swimlaneHead=0;swimlaneBody=0;strokeColor=inherit;top=0;left=0;bottom=0;right=0;collapsible=0;dropTarget=0;fillColor=none;points=[[0,0.5],[1,0.5]];portConstraint=eastwest;fontSize=16;" parent="7Xz4EL3dT2qsOErIy4jS-227" vertex="1">
          <mxGeometry y="60" width="170" height="20" as="geometry" />
        </mxCell>
        <mxCell id="7Xz4EL3dT2qsOErIy4jS-235" value="url2_filer1" style="shape=partialRectangle;html=1;whiteSpace=wrap;connectable=0;strokeColor=inherit;overflow=hidden;fillColor=none;top=0;left=0;bottom=0;right=0;pointerEvents=1;fontSize=10;" parent="7Xz4EL3dT2qsOErIy4jS-234" vertex="1">
          <mxGeometry width="54" height="20" as="geometry">
            <mxRectangle width="54" height="20" as="alternateBounds" />
          </mxGeometry>
        </mxCell>
        <mxCell id="7Xz4EL3dT2qsOErIy4jS-236" value="clicks4" style="shape=partialRectangle;html=1;whiteSpace=wrap;connectable=0;strokeColor=inherit;overflow=hidden;fillColor=none;top=0;left=0;bottom=0;right=0;pointerEvents=1;fontSize=10;" parent="7Xz4EL3dT2qsOErIy4jS-234" vertex="1">
          <mxGeometry x="54" width="62" height="20" as="geometry">
            <mxRectangle width="62" height="20" as="alternateBounds" />
          </mxGeometry>
        </mxCell>
        <mxCell id="7Xz4EL3dT2qsOErIy4jS-356" value="CSERP" style="shape=partialRectangle;html=1;whiteSpace=wrap;connectable=0;strokeColor=inherit;overflow=hidden;fillColor=none;top=0;left=0;bottom=0;right=0;pointerEvents=1;fontSize=10;" parent="7Xz4EL3dT2qsOErIy4jS-234" vertex="1">
          <mxGeometry x="116" width="54" height="20" as="geometry">
            <mxRectangle width="54" height="20" as="alternateBounds" />
          </mxGeometry>
        </mxCell>
        <mxCell id="7Xz4EL3dT2qsOErIy4jS-241" value="" style="shape=table;startSize=0;container=1;collapsible=0;childLayout=tableLayout;fontSize=16;" parent="1" vertex="1">
          <mxGeometry x="720" y="280" width="160" height="40" as="geometry" />
        </mxCell>
        <mxCell id="7Xz4EL3dT2qsOErIy4jS-242" value="" style="shape=tableRow;horizontal=0;startSize=0;swimlaneHead=0;swimlaneBody=0;strokeColor=inherit;top=0;left=0;bottom=0;right=0;collapsible=0;dropTarget=0;fillColor=none;points=[[0,0.5],[1,0.5]];portConstraint=eastwest;fontSize=16;" parent="7Xz4EL3dT2qsOErIy4jS-241" vertex="1">
          <mxGeometry width="160" height="20" as="geometry" />
        </mxCell>
        <mxCell id="7Xz4EL3dT2qsOErIy4jS-243" value="url1" style="shape=partialRectangle;html=1;whiteSpace=wrap;connectable=0;strokeColor=inherit;overflow=hidden;fillColor=none;top=0;left=0;bottom=0;right=0;pointerEvents=1;fontSize=10;" parent="7Xz4EL3dT2qsOErIy4jS-242" vertex="1">
          <mxGeometry width="29" height="20" as="geometry">
            <mxRectangle width="29" height="20" as="alternateBounds" />
          </mxGeometry>
        </mxCell>
        <mxCell id="7Xz4EL3dT2qsOErIy4jS-244" value="clicks1+clicks2" style="shape=partialRectangle;html=1;whiteSpace=wrap;connectable=0;strokeColor=inherit;overflow=hidden;fillColor=none;top=0;left=0;bottom=0;right=0;pointerEvents=1;fontSize=10;" parent="7Xz4EL3dT2qsOErIy4jS-242" vertex="1">
          <mxGeometry x="29" width="87" height="20" as="geometry">
            <mxRectangle width="87" height="20" as="alternateBounds" />
          </mxGeometry>
        </mxCell>
        <mxCell id="7Xz4EL3dT2qsOErIy4jS-357" value="PSERP" style="shape=partialRectangle;html=1;whiteSpace=wrap;connectable=0;strokeColor=inherit;overflow=hidden;fillColor=none;top=0;left=0;bottom=0;right=0;pointerEvents=1;fontSize=10;" parent="7Xz4EL3dT2qsOErIy4jS-242" vertex="1">
          <mxGeometry x="116" width="44" height="20" as="geometry">
            <mxRectangle width="44" height="20" as="alternateBounds" />
          </mxGeometry>
        </mxCell>
        <mxCell id="7Xz4EL3dT2qsOErIy4jS-248" style="shape=tableRow;horizontal=0;startSize=0;swimlaneHead=0;swimlaneBody=0;strokeColor=inherit;top=0;left=0;bottom=0;right=0;collapsible=0;dropTarget=0;fillColor=none;points=[[0,0.5],[1,0.5]];portConstraint=eastwest;fontSize=16;" parent="7Xz4EL3dT2qsOErIy4jS-241" vertex="1">
          <mxGeometry y="20" width="160" height="20" as="geometry" />
        </mxCell>
        <mxCell id="7Xz4EL3dT2qsOErIy4jS-249" value="url2" style="shape=partialRectangle;html=1;whiteSpace=wrap;connectable=0;strokeColor=inherit;overflow=hidden;fillColor=none;top=0;left=0;bottom=0;right=0;pointerEvents=1;fontSize=10;" parent="7Xz4EL3dT2qsOErIy4jS-248" vertex="1">
          <mxGeometry width="29" height="20" as="geometry">
            <mxRectangle width="29" height="20" as="alternateBounds" />
          </mxGeometry>
        </mxCell>
        <mxCell id="7Xz4EL3dT2qsOErIy4jS-250" value="clicks3+clicks4" style="shape=partialRectangle;html=1;whiteSpace=wrap;connectable=0;strokeColor=inherit;overflow=hidden;fillColor=none;top=0;left=0;bottom=0;right=0;pointerEvents=1;fontSize=10;" parent="7Xz4EL3dT2qsOErIy4jS-248" vertex="1">
          <mxGeometry x="29" width="87" height="20" as="geometry">
            <mxRectangle width="87" height="20" as="alternateBounds" />
          </mxGeometry>
        </mxCell>
        <mxCell id="7Xz4EL3dT2qsOErIy4jS-358" value="CSERP" style="shape=partialRectangle;html=1;whiteSpace=wrap;connectable=0;strokeColor=inherit;overflow=hidden;fillColor=none;top=0;left=0;bottom=0;right=0;pointerEvents=1;fontSize=10;" parent="7Xz4EL3dT2qsOErIy4jS-248" vertex="1">
          <mxGeometry x="116" width="44" height="20" as="geometry">
            <mxRectangle width="44" height="20" as="alternateBounds" />
          </mxGeometry>
        </mxCell>
        <mxCell id="7Xz4EL3dT2qsOErIy4jS-254" value="" style="shape=table;startSize=0;container=1;collapsible=0;childLayout=tableLayout;fontSize=16;" parent="1" vertex="1">
          <mxGeometry x="720" y="400" width="160" height="40" as="geometry" />
        </mxCell>
        <mxCell id="7Xz4EL3dT2qsOErIy4jS-255" value="" style="shape=tableRow;horizontal=0;startSize=0;swimlaneHead=0;swimlaneBody=0;strokeColor=inherit;top=0;left=0;bottom=0;right=0;collapsible=0;dropTarget=0;fillColor=none;points=[[0,0.5],[1,0.5]];portConstraint=eastwest;fontSize=16;" parent="7Xz4EL3dT2qsOErIy4jS-254" vertex="1">
          <mxGeometry width="160" height="20" as="geometry" />
        </mxCell>
        <mxCell id="7Xz4EL3dT2qsOErIy4jS-256" value="url1" style="shape=partialRectangle;html=1;whiteSpace=wrap;connectable=0;strokeColor=inherit;overflow=hidden;fillColor=none;top=0;left=0;bottom=0;right=0;pointerEvents=1;fontSize=10;" parent="7Xz4EL3dT2qsOErIy4jS-255" vertex="1">
          <mxGeometry width="30" height="20" as="geometry">
            <mxRectangle width="30" height="20" as="alternateBounds" />
          </mxGeometry>
        </mxCell>
        <mxCell id="7Xz4EL3dT2qsOErIy4jS-257" value="clicks1,2" style="shape=partialRectangle;html=1;whiteSpace=wrap;connectable=0;strokeColor=inherit;overflow=hidden;fillColor=none;top=0;left=0;bottom=0;right=0;pointerEvents=1;fontSize=10;" parent="7Xz4EL3dT2qsOErIy4jS-255" vertex="1">
          <mxGeometry x="30" width="50" height="20" as="geometry">
            <mxRectangle width="50" height="20" as="alternateBounds" />
          </mxGeometry>
        </mxCell>
        <mxCell id="7Xz4EL3dT2qsOErIy4jS-261" value="weight1" style="shape=partialRectangle;html=1;whiteSpace=wrap;connectable=0;strokeColor=inherit;overflow=hidden;fillColor=none;top=0;left=0;bottom=0;right=0;pointerEvents=1;fontSize=10;" parent="7Xz4EL3dT2qsOErIy4jS-255" vertex="1">
          <mxGeometry x="80" width="40" height="20" as="geometry">
            <mxRectangle width="40" height="20" as="alternateBounds" />
          </mxGeometry>
        </mxCell>
        <mxCell id="7Xz4EL3dT2qsOErIy4jS-359" value="PSERP" style="shape=partialRectangle;html=1;whiteSpace=wrap;connectable=0;strokeColor=inherit;overflow=hidden;fillColor=none;top=0;left=0;bottom=0;right=0;pointerEvents=1;fontSize=10;" parent="7Xz4EL3dT2qsOErIy4jS-255" vertex="1">
          <mxGeometry x="120" width="40" height="20" as="geometry">
            <mxRectangle width="40" height="20" as="alternateBounds" />
          </mxGeometry>
        </mxCell>
        <mxCell id="7Xz4EL3dT2qsOErIy4jS-258" style="shape=tableRow;horizontal=0;startSize=0;swimlaneHead=0;swimlaneBody=0;strokeColor=inherit;top=0;left=0;bottom=0;right=0;collapsible=0;dropTarget=0;fillColor=none;points=[[0,0.5],[1,0.5]];portConstraint=eastwest;fontSize=16;" parent="7Xz4EL3dT2qsOErIy4jS-254" vertex="1">
          <mxGeometry y="20" width="160" height="20" as="geometry" />
        </mxCell>
        <mxCell id="7Xz4EL3dT2qsOErIy4jS-259" value="url2" style="shape=partialRectangle;html=1;whiteSpace=wrap;connectable=0;strokeColor=inherit;overflow=hidden;fillColor=none;top=0;left=0;bottom=0;right=0;pointerEvents=1;fontSize=10;" parent="7Xz4EL3dT2qsOErIy4jS-258" vertex="1">
          <mxGeometry width="30" height="20" as="geometry">
            <mxRectangle width="30" height="20" as="alternateBounds" />
          </mxGeometry>
        </mxCell>
        <mxCell id="7Xz4EL3dT2qsOErIy4jS-260" value="clicks3,4" style="shape=partialRectangle;html=1;whiteSpace=wrap;connectable=0;strokeColor=inherit;overflow=hidden;fillColor=none;top=0;left=0;bottom=0;right=0;pointerEvents=1;fontSize=10;" parent="7Xz4EL3dT2qsOErIy4jS-258" vertex="1">
          <mxGeometry x="30" width="50" height="20" as="geometry">
            <mxRectangle width="50" height="20" as="alternateBounds" />
          </mxGeometry>
        </mxCell>
        <mxCell id="7Xz4EL3dT2qsOErIy4jS-262" value="weight2" style="shape=partialRectangle;html=1;whiteSpace=wrap;connectable=0;strokeColor=inherit;overflow=hidden;fillColor=none;top=0;left=0;bottom=0;right=0;pointerEvents=1;fontSize=10;" parent="7Xz4EL3dT2qsOErIy4jS-258" vertex="1">
          <mxGeometry x="80" width="40" height="20" as="geometry">
            <mxRectangle width="40" height="20" as="alternateBounds" />
          </mxGeometry>
        </mxCell>
        <mxCell id="7Xz4EL3dT2qsOErIy4jS-360" value="CSERP" style="shape=partialRectangle;html=1;whiteSpace=wrap;connectable=0;strokeColor=inherit;overflow=hidden;fillColor=none;top=0;left=0;bottom=0;right=0;pointerEvents=1;fontSize=10;" parent="7Xz4EL3dT2qsOErIy4jS-258" vertex="1">
          <mxGeometry x="120" width="40" height="20" as="geometry">
            <mxRectangle width="40" height="20" as="alternateBounds" />
          </mxGeometry>
        </mxCell>
        <mxCell id="7Xz4EL3dT2qsOErIy4jS-263" value="Extend Keywords&amp;nbsp;&lt;div&gt;&amp;nbsp;vs Importance&amp;nbsp;&lt;span style=&quot;background-color: transparent; color: light-dark(rgb(0, 0, 0), rgb(255, 255, 255));&quot;&gt;vs Trends vs Competition&lt;/span&gt;&lt;span style=&quot;background-color: transparent;&quot;&gt;&lt;font style=&quot;color: light-dark(rgb(255, 181, 112), rgb(255, 255, 255));&quot;&gt; vs Campaign Cost&lt;/font&gt;&lt;/span&gt;&lt;/div&gt;" style="rounded=1;whiteSpace=wrap;html=1;" parent="1" vertex="1">
          <mxGeometry x="80" y="550" width="160" height="60" as="geometry" />
        </mxCell>
        <mxCell id="7Xz4EL3dT2qsOErIy4jS-266" value="" style="shape=table;startSize=0;container=1;collapsible=0;childLayout=tableLayout;fontSize=16;" parent="1" vertex="1">
          <mxGeometry x="-320" y="545" width="280" height="80" as="geometry" />
        </mxCell>
        <mxCell id="7Xz4EL3dT2qsOErIy4jS-267" value="" style="shape=tableRow;horizontal=0;startSize=0;swimlaneHead=0;swimlaneBody=0;strokeColor=inherit;top=0;left=0;bottom=0;right=0;collapsible=0;dropTarget=0;fillColor=none;points=[[0,0.5],[1,0.5]];portConstraint=eastwest;fontSize=16;" parent="7Xz4EL3dT2qsOErIy4jS-266" vertex="1">
          <mxGeometry width="280" height="20" as="geometry" />
        </mxCell>
        <mxCell id="7Xz4EL3dT2qsOErIy4jS-268" value="kw1" style="shape=partialRectangle;html=1;whiteSpace=wrap;connectable=0;strokeColor=inherit;overflow=hidden;fillColor=none;top=0;left=0;bottom=0;right=0;pointerEvents=1;fontSize=10;" parent="7Xz4EL3dT2qsOErIy4jS-267" vertex="1">
          <mxGeometry width="28" height="20" as="geometry">
            <mxRectangle width="28" height="20" as="alternateBounds" />
          </mxGeometry>
        </mxCell>
        <mxCell id="7Xz4EL3dT2qsOErIy4jS-269" value="kw1 ex1" style="shape=partialRectangle;html=1;whiteSpace=wrap;connectable=0;strokeColor=inherit;overflow=hidden;fillColor=none;top=0;left=0;bottom=0;right=0;pointerEvents=1;fontSize=10;" parent="7Xz4EL3dT2qsOErIy4jS-267" vertex="1">
          <mxGeometry x="28" width="48" height="20" as="geometry">
            <mxRectangle width="48" height="20" as="alternateBounds" />
          </mxGeometry>
        </mxCell>
        <mxCell id="7Xz4EL3dT2qsOErIy4jS-270" value="w1" style="shape=partialRectangle;html=1;whiteSpace=wrap;connectable=0;strokeColor=inherit;overflow=hidden;fillColor=none;top=0;left=0;bottom=0;right=0;pointerEvents=1;fontSize=10;" parent="7Xz4EL3dT2qsOErIy4jS-267" vertex="1">
          <mxGeometry x="76" width="24" height="20" as="geometry">
            <mxRectangle width="24" height="20" as="alternateBounds" />
          </mxGeometry>
        </mxCell>
        <mxCell id="7Xz4EL3dT2qsOErIy4jS-271" value="trends1" style="shape=partialRectangle;html=1;whiteSpace=wrap;connectable=0;strokeColor=inherit;overflow=hidden;fillColor=none;top=0;left=0;bottom=0;right=0;pointerEvents=1;fontSize=10;" parent="7Xz4EL3dT2qsOErIy4jS-267" vertex="1">
          <mxGeometry x="100" width="50" height="20" as="geometry">
            <mxRectangle width="50" height="20" as="alternateBounds" />
          </mxGeometry>
        </mxCell>
        <mxCell id="8toNQD8QST1rocxcnVbk-22" value="competition1" style="shape=partialRectangle;html=1;whiteSpace=wrap;connectable=0;strokeColor=inherit;overflow=hidden;fillColor=none;top=0;left=0;bottom=0;right=0;pointerEvents=1;fontSize=10;" parent="7Xz4EL3dT2qsOErIy4jS-267" vertex="1">
          <mxGeometry x="150" width="74" height="20" as="geometry">
            <mxRectangle width="74" height="20" as="alternateBounds" />
          </mxGeometry>
        </mxCell>
        <mxCell id="7Xz4EL3dT2qsOErIy4jS-307" value="" style="shape=partialRectangle;html=1;whiteSpace=wrap;connectable=0;strokeColor=inherit;overflow=hidden;fillColor=none;top=0;left=0;bottom=0;right=0;pointerEvents=1;fontSize=10;textShadow=0;fontColor=#FFB570;" parent="7Xz4EL3dT2qsOErIy4jS-267" vertex="1">
          <mxGeometry x="224" width="56" height="20" as="geometry">
            <mxRectangle width="56" height="20" as="alternateBounds" />
          </mxGeometry>
        </mxCell>
        <mxCell id="7Xz4EL3dT2qsOErIy4jS-272" style="shape=tableRow;horizontal=0;startSize=0;swimlaneHead=0;swimlaneBody=0;strokeColor=inherit;top=0;left=0;bottom=0;right=0;collapsible=0;dropTarget=0;fillColor=none;points=[[0,0.5],[1,0.5]];portConstraint=eastwest;fontSize=16;" parent="7Xz4EL3dT2qsOErIy4jS-266" vertex="1">
          <mxGeometry y="20" width="280" height="20" as="geometry" />
        </mxCell>
        <mxCell id="7Xz4EL3dT2qsOErIy4jS-273" value="kw1" style="shape=partialRectangle;html=1;whiteSpace=wrap;connectable=0;strokeColor=inherit;overflow=hidden;fillColor=none;top=0;left=0;bottom=0;right=0;pointerEvents=1;fontSize=10;" parent="7Xz4EL3dT2qsOErIy4jS-272" vertex="1">
          <mxGeometry width="28" height="20" as="geometry">
            <mxRectangle width="28" height="20" as="alternateBounds" />
          </mxGeometry>
        </mxCell>
        <mxCell id="7Xz4EL3dT2qsOErIy4jS-274" value="kw1 ex2" style="shape=partialRectangle;html=1;whiteSpace=wrap;connectable=0;strokeColor=inherit;overflow=hidden;fillColor=none;top=0;left=0;bottom=0;right=0;pointerEvents=1;fontSize=10;" parent="7Xz4EL3dT2qsOErIy4jS-272" vertex="1">
          <mxGeometry x="28" width="48" height="20" as="geometry">
            <mxRectangle width="48" height="20" as="alternateBounds" />
          </mxGeometry>
        </mxCell>
        <mxCell id="7Xz4EL3dT2qsOErIy4jS-275" value="w1" style="shape=partialRectangle;html=1;whiteSpace=wrap;connectable=0;strokeColor=inherit;overflow=hidden;fillColor=none;top=0;left=0;bottom=0;right=0;pointerEvents=1;fontSize=10;" parent="7Xz4EL3dT2qsOErIy4jS-272" vertex="1">
          <mxGeometry x="76" width="24" height="20" as="geometry">
            <mxRectangle width="24" height="20" as="alternateBounds" />
          </mxGeometry>
        </mxCell>
        <mxCell id="7Xz4EL3dT2qsOErIy4jS-276" value="trends2" style="shape=partialRectangle;html=1;whiteSpace=wrap;connectable=0;strokeColor=inherit;overflow=hidden;fillColor=none;top=0;left=0;bottom=0;right=0;pointerEvents=1;fontSize=10;" parent="7Xz4EL3dT2qsOErIy4jS-272" vertex="1">
          <mxGeometry x="100" width="50" height="20" as="geometry">
            <mxRectangle width="50" height="20" as="alternateBounds" />
          </mxGeometry>
        </mxCell>
        <mxCell id="8toNQD8QST1rocxcnVbk-23" value="competition2" style="shape=partialRectangle;html=1;whiteSpace=wrap;connectable=0;strokeColor=inherit;overflow=hidden;fillColor=none;top=0;left=0;bottom=0;right=0;pointerEvents=1;fontSize=10;" parent="7Xz4EL3dT2qsOErIy4jS-272" vertex="1">
          <mxGeometry x="150" width="74" height="20" as="geometry">
            <mxRectangle width="74" height="20" as="alternateBounds" />
          </mxGeometry>
        </mxCell>
        <mxCell id="7Xz4EL3dT2qsOErIy4jS-308" value="cost1" style="shape=partialRectangle;html=1;whiteSpace=wrap;connectable=0;strokeColor=inherit;overflow=hidden;fillColor=none;top=0;left=0;bottom=0;right=0;pointerEvents=1;fontSize=10;textShadow=0;fontColor=#FFB570;" parent="7Xz4EL3dT2qsOErIy4jS-272" vertex="1">
          <mxGeometry x="224" width="56" height="20" as="geometry">
            <mxRectangle width="56" height="20" as="alternateBounds" />
          </mxGeometry>
        </mxCell>
        <mxCell id="7Xz4EL3dT2qsOErIy4jS-287" value="" style="shape=tableRow;horizontal=0;startSize=0;swimlaneHead=0;swimlaneBody=0;strokeColor=inherit;top=0;left=0;bottom=0;right=0;collapsible=0;dropTarget=0;fillColor=none;points=[[0,0.5],[1,0.5]];portConstraint=eastwest;fontSize=16;" parent="7Xz4EL3dT2qsOErIy4jS-266" vertex="1">
          <mxGeometry y="40" width="280" height="20" as="geometry" />
        </mxCell>
        <mxCell id="7Xz4EL3dT2qsOErIy4jS-288" value="kw2" style="shape=partialRectangle;html=1;whiteSpace=wrap;connectable=0;strokeColor=inherit;overflow=hidden;fillColor=none;top=0;left=0;bottom=0;right=0;pointerEvents=1;fontSize=10;" parent="7Xz4EL3dT2qsOErIy4jS-287" vertex="1">
          <mxGeometry width="28" height="20" as="geometry">
            <mxRectangle width="28" height="20" as="alternateBounds" />
          </mxGeometry>
        </mxCell>
        <mxCell id="7Xz4EL3dT2qsOErIy4jS-289" value="kw2 ex1" style="shape=partialRectangle;html=1;whiteSpace=wrap;connectable=0;strokeColor=inherit;overflow=hidden;fillColor=none;top=0;left=0;bottom=0;right=0;pointerEvents=1;fontSize=10;" parent="7Xz4EL3dT2qsOErIy4jS-287" vertex="1">
          <mxGeometry x="28" width="48" height="20" as="geometry">
            <mxRectangle width="48" height="20" as="alternateBounds" />
          </mxGeometry>
        </mxCell>
        <mxCell id="7Xz4EL3dT2qsOErIy4jS-290" value="w2" style="shape=partialRectangle;html=1;whiteSpace=wrap;connectable=0;strokeColor=inherit;overflow=hidden;fillColor=none;top=0;left=0;bottom=0;right=0;pointerEvents=1;fontSize=10;" parent="7Xz4EL3dT2qsOErIy4jS-287" vertex="1">
          <mxGeometry x="76" width="24" height="20" as="geometry">
            <mxRectangle width="24" height="20" as="alternateBounds" />
          </mxGeometry>
        </mxCell>
        <mxCell id="7Xz4EL3dT2qsOErIy4jS-291" value="trends3" style="shape=partialRectangle;html=1;whiteSpace=wrap;connectable=0;strokeColor=inherit;overflow=hidden;fillColor=none;top=0;left=0;bottom=0;right=0;pointerEvents=1;fontSize=10;" parent="7Xz4EL3dT2qsOErIy4jS-287" vertex="1">
          <mxGeometry x="100" width="50" height="20" as="geometry">
            <mxRectangle width="50" height="20" as="alternateBounds" />
          </mxGeometry>
        </mxCell>
        <mxCell id="8toNQD8QST1rocxcnVbk-26" value="competition3" style="shape=partialRectangle;html=1;whiteSpace=wrap;connectable=0;strokeColor=inherit;overflow=hidden;fillColor=none;top=0;left=0;bottom=0;right=0;pointerEvents=1;fontSize=10;" parent="7Xz4EL3dT2qsOErIy4jS-287" vertex="1">
          <mxGeometry x="150" width="74" height="20" as="geometry">
            <mxRectangle width="74" height="20" as="alternateBounds" />
          </mxGeometry>
        </mxCell>
        <mxCell id="7Xz4EL3dT2qsOErIy4jS-311" style="shape=partialRectangle;html=1;whiteSpace=wrap;connectable=0;strokeColor=inherit;overflow=hidden;fillColor=none;top=0;left=0;bottom=0;right=0;pointerEvents=1;fontSize=10;textShadow=0;fontColor=#FFB570;" parent="7Xz4EL3dT2qsOErIy4jS-287" vertex="1">
          <mxGeometry x="224" width="56" height="20" as="geometry">
            <mxRectangle width="56" height="20" as="alternateBounds" />
          </mxGeometry>
        </mxCell>
        <mxCell id="7Xz4EL3dT2qsOErIy4jS-292" style="shape=tableRow;horizontal=0;startSize=0;swimlaneHead=0;swimlaneBody=0;strokeColor=inherit;top=0;left=0;bottom=0;right=0;collapsible=0;dropTarget=0;fillColor=none;points=[[0,0.5],[1,0.5]];portConstraint=eastwest;fontSize=16;" parent="7Xz4EL3dT2qsOErIy4jS-266" vertex="1">
          <mxGeometry y="60" width="280" height="20" as="geometry" />
        </mxCell>
        <mxCell id="7Xz4EL3dT2qsOErIy4jS-293" value="kw2" style="shape=partialRectangle;html=1;whiteSpace=wrap;connectable=0;strokeColor=inherit;overflow=hidden;fillColor=none;top=0;left=0;bottom=0;right=0;pointerEvents=1;fontSize=10;" parent="7Xz4EL3dT2qsOErIy4jS-292" vertex="1">
          <mxGeometry width="28" height="20" as="geometry">
            <mxRectangle width="28" height="20" as="alternateBounds" />
          </mxGeometry>
        </mxCell>
        <mxCell id="7Xz4EL3dT2qsOErIy4jS-294" value="kw2 ex2" style="shape=partialRectangle;html=1;whiteSpace=wrap;connectable=0;strokeColor=inherit;overflow=hidden;fillColor=none;top=0;left=0;bottom=0;right=0;pointerEvents=1;fontSize=10;" parent="7Xz4EL3dT2qsOErIy4jS-292" vertex="1">
          <mxGeometry x="28" width="48" height="20" as="geometry">
            <mxRectangle width="48" height="20" as="alternateBounds" />
          </mxGeometry>
        </mxCell>
        <mxCell id="7Xz4EL3dT2qsOErIy4jS-295" value="w2" style="shape=partialRectangle;html=1;whiteSpace=wrap;connectable=0;strokeColor=inherit;overflow=hidden;fillColor=none;top=0;left=0;bottom=0;right=0;pointerEvents=1;fontSize=10;" parent="7Xz4EL3dT2qsOErIy4jS-292" vertex="1">
          <mxGeometry x="76" width="24" height="20" as="geometry">
            <mxRectangle width="24" height="20" as="alternateBounds" />
          </mxGeometry>
        </mxCell>
        <mxCell id="7Xz4EL3dT2qsOErIy4jS-296" value="trends4" style="shape=partialRectangle;html=1;whiteSpace=wrap;connectable=0;strokeColor=inherit;overflow=hidden;fillColor=none;top=0;left=0;bottom=0;right=0;pointerEvents=1;fontSize=10;" parent="7Xz4EL3dT2qsOErIy4jS-292" vertex="1">
          <mxGeometry x="100" width="50" height="20" as="geometry">
            <mxRectangle width="50" height="20" as="alternateBounds" />
          </mxGeometry>
        </mxCell>
        <mxCell id="8toNQD8QST1rocxcnVbk-27" value="competition4" style="shape=partialRectangle;html=1;whiteSpace=wrap;connectable=0;strokeColor=inherit;overflow=hidden;fillColor=none;top=0;left=0;bottom=0;right=0;pointerEvents=1;fontSize=10;" parent="7Xz4EL3dT2qsOErIy4jS-292" vertex="1">
          <mxGeometry x="150" width="74" height="20" as="geometry">
            <mxRectangle width="74" height="20" as="alternateBounds" />
          </mxGeometry>
        </mxCell>
        <mxCell id="7Xz4EL3dT2qsOErIy4jS-312" style="shape=partialRectangle;html=1;whiteSpace=wrap;connectable=0;strokeColor=inherit;overflow=hidden;fillColor=none;top=0;left=0;bottom=0;right=0;pointerEvents=1;fontSize=10;textShadow=0;fontColor=#FFB570;" parent="7Xz4EL3dT2qsOErIy4jS-292" vertex="1">
          <mxGeometry x="224" width="56" height="20" as="geometry">
            <mxRectangle width="56" height="20" as="alternateBounds" />
          </mxGeometry>
        </mxCell>
        <mxCell id="7Xz4EL3dT2qsOErIy4jS-423" style="edgeStyle=orthogonalEdgeStyle;rounded=0;orthogonalLoop=1;jettySize=auto;html=1;exitX=1;exitY=0.5;exitDx=0;exitDy=0;entryX=0.5;entryY=0;entryDx=0;entryDy=0;" parent="1" source="7Xz4EL3dT2qsOErIy4jS-337" target="7Xz4EL3dT2qsOErIy4jS-422" edge="1">
          <mxGeometry relative="1" as="geometry" />
        </mxCell>
        <mxCell id="7Xz4EL3dT2qsOErIy4jS-425" value="Calculate Keyword Link Position Weight:&lt;div&gt;&lt;span style=&quot;color: light-dark(rgb(0, 0, 0), rgb(255, 255, 255)); background-color: light-dark(#ffffff, var(--ge-dark-color, #121212));&quot;&gt;kw link pos weight=&lt;/span&gt;sum(link pos weight)/sum(kw weight)*kw weight&lt;/div&gt;&lt;div&gt;remove keywords and recalculate if:&lt;/div&gt;&lt;div&gt;min(kw link pos weight)&amp;gt;=min(link pos weight) &amp;amp; kw num&amp;lt;= link pos num&lt;div&gt;&lt;br&gt;&lt;/div&gt;&lt;/div&gt;" style="edgeLabel;html=1;align=center;verticalAlign=middle;resizable=0;points=[];" parent="7Xz4EL3dT2qsOErIy4jS-423" vertex="1" connectable="0">
          <mxGeometry x="0.2835" y="1" relative="1" as="geometry">
            <mxPoint x="-41" y="-49" as="offset" />
          </mxGeometry>
        </mxCell>
        <mxCell id="7Xz4EL3dT2qsOErIy4jS-337" value="Filter Keywords vs Importance&amp;nbsp;&lt;span style=&quot;color: light-dark(rgb(0, 0, 0), rgb(255, 255, 255)); background-color: transparent;&quot;&gt;vs Trends&lt;/span&gt;&lt;span style=&quot;color: light-dark(rgb(0, 0, 0), rgb(255, 255, 255)); background-color: transparent;&quot;&gt;&amp;nbsp;vs Rank&lt;/span&gt;&lt;span style=&quot;color: light-dark(rgb(0, 0, 0), rgb(255, 255, 255)); background-color: transparent;&quot;&gt;&amp;nbsp;&lt;/span&gt;&lt;span style=&quot;background-color: transparent;&quot;&gt;&lt;font style=&quot;color: light-dark(rgb(255, 181, 112), rgb(255, 255, 255));&quot;&gt;vs Campaign Cost&lt;/font&gt;&lt;/span&gt;&lt;span style=&quot;color: light-dark(rgb(0, 0, 0), rgb(255, 255, 255)); background-color: transparent;&quot;&gt; vs Total Weight&lt;/span&gt;&lt;span style=&quot;color: light-dark(rgb(0, 0, 0), rgb(255, 255, 255)); background-color: transparent;&quot;&gt;&amp;nbsp;&lt;/span&gt;" style="rounded=1;whiteSpace=wrap;html=1;" parent="1" vertex="1">
          <mxGeometry x="80" y="940" width="160" height="60" as="geometry" />
        </mxCell>
        <mxCell id="7Xz4EL3dT2qsOErIy4jS-364" style="edgeStyle=orthogonalEdgeStyle;rounded=0;orthogonalLoop=1;jettySize=auto;html=1;exitX=0.5;exitY=1;exitDx=0;exitDy=0;entryX=0.5;entryY=0;entryDx=0;entryDy=0;" parent="1" source="7Xz4EL3dT2qsOErIy4jS-339" target="7Xz4EL3dT2qsOErIy4jS-363" edge="1">
          <mxGeometry relative="1" as="geometry" />
        </mxCell>
        <mxCell id="7Xz4EL3dT2qsOErIy4jS-365" value="Calculate Weight for&amp;nbsp;&lt;div&gt;Each Internal Link Position:&lt;/div&gt;&lt;div&gt;&amp;nbsp;weight / (avaible linknum + current linknum)&lt;/div&gt;" style="edgeLabel;html=1;align=center;verticalAlign=middle;resizable=0;points=[];" parent="7Xz4EL3dT2qsOErIy4jS-364" vertex="1" connectable="0">
          <mxGeometry x="-0.2375" y="3" relative="1" as="geometry">
            <mxPoint as="offset" />
          </mxGeometry>
        </mxCell>
        <mxCell id="7Xz4EL3dT2qsOErIy4jS-339" value="Distinct Pages vs Weight vs LinkNum&amp;nbsp;" style="rounded=1;whiteSpace=wrap;html=1;" parent="1" vertex="1">
          <mxGeometry x="520" y="520" width="120" height="40" as="geometry" />
        </mxCell>
        <mxCell id="7Xz4EL3dT2qsOErIy4jS-342" value="" style="shape=table;startSize=0;container=1;collapsible=0;childLayout=tableLayout;fontSize=16;" parent="1" vertex="1">
          <mxGeometry x="720" y="520" width="290" height="40" as="geometry" />
        </mxCell>
        <mxCell id="7Xz4EL3dT2qsOErIy4jS-343" value="" style="shape=tableRow;horizontal=0;startSize=0;swimlaneHead=0;swimlaneBody=0;strokeColor=inherit;top=0;left=0;bottom=0;right=0;collapsible=0;dropTarget=0;fillColor=none;points=[[0,0.5],[1,0.5]];portConstraint=eastwest;fontSize=16;" parent="7Xz4EL3dT2qsOErIy4jS-342" vertex="1">
          <mxGeometry width="290" height="20" as="geometry" />
        </mxCell>
        <mxCell id="7Xz4EL3dT2qsOErIy4jS-344" value="url1" style="shape=partialRectangle;html=1;whiteSpace=wrap;connectable=0;strokeColor=inherit;overflow=hidden;fillColor=none;top=0;left=0;bottom=0;right=0;pointerEvents=1;fontSize=10;" parent="7Xz4EL3dT2qsOErIy4jS-343" vertex="1">
          <mxGeometry width="32" height="20" as="geometry">
            <mxRectangle width="32" height="20" as="alternateBounds" />
          </mxGeometry>
        </mxCell>
        <mxCell id="7Xz4EL3dT2qsOErIy4jS-345" value="clicks1,2" style="shape=partialRectangle;html=1;whiteSpace=wrap;connectable=0;strokeColor=inherit;overflow=hidden;fillColor=none;top=0;left=0;bottom=0;right=0;pointerEvents=1;fontSize=10;" parent="7Xz4EL3dT2qsOErIy4jS-343" vertex="1">
          <mxGeometry x="32" width="48" height="20" as="geometry">
            <mxRectangle width="48" height="20" as="alternateBounds" />
          </mxGeometry>
        </mxCell>
        <mxCell id="7Xz4EL3dT2qsOErIy4jS-346" value="weight1" style="shape=partialRectangle;html=1;whiteSpace=wrap;connectable=0;strokeColor=inherit;overflow=hidden;fillColor=none;top=0;left=0;bottom=0;right=0;pointerEvents=1;fontSize=10;" parent="7Xz4EL3dT2qsOErIy4jS-343" vertex="1">
          <mxGeometry x="80" width="40" height="20" as="geometry">
            <mxRectangle width="40" height="20" as="alternateBounds" />
          </mxGeometry>
        </mxCell>
        <mxCell id="7Xz4EL3dT2qsOErIy4jS-351" value="linknum1" style="shape=partialRectangle;html=1;whiteSpace=wrap;connectable=0;strokeColor=inherit;overflow=hidden;fillColor=none;top=0;left=0;bottom=0;right=0;pointerEvents=1;fontSize=10;" parent="7Xz4EL3dT2qsOErIy4jS-343" vertex="1">
          <mxGeometry x="120" width="50" height="20" as="geometry">
            <mxRectangle width="50" height="20" as="alternateBounds" />
          </mxGeometry>
        </mxCell>
        <mxCell id="zXx96FTG_lg0kcmIFyQ1-159" value="current linknum1" style="shape=partialRectangle;html=1;whiteSpace=wrap;connectable=0;strokeColor=inherit;overflow=hidden;fillColor=none;top=0;left=0;bottom=0;right=0;pointerEvents=1;fontSize=10;" vertex="1" parent="7Xz4EL3dT2qsOErIy4jS-343">
          <mxGeometry x="170" width="80" height="20" as="geometry">
            <mxRectangle width="80" height="20" as="alternateBounds" />
          </mxGeometry>
        </mxCell>
        <mxCell id="7Xz4EL3dT2qsOErIy4jS-361" value="PSERP" style="shape=partialRectangle;html=1;whiteSpace=wrap;connectable=0;strokeColor=inherit;overflow=hidden;fillColor=none;top=0;left=0;bottom=0;right=0;pointerEvents=1;fontSize=10;" parent="7Xz4EL3dT2qsOErIy4jS-343" vertex="1">
          <mxGeometry x="250" width="40" height="20" as="geometry">
            <mxRectangle width="40" height="20" as="alternateBounds" />
          </mxGeometry>
        </mxCell>
        <mxCell id="7Xz4EL3dT2qsOErIy4jS-347" style="shape=tableRow;horizontal=0;startSize=0;swimlaneHead=0;swimlaneBody=0;strokeColor=inherit;top=0;left=0;bottom=0;right=0;collapsible=0;dropTarget=0;fillColor=none;points=[[0,0.5],[1,0.5]];portConstraint=eastwest;fontSize=16;" parent="7Xz4EL3dT2qsOErIy4jS-342" vertex="1">
          <mxGeometry y="20" width="290" height="20" as="geometry" />
        </mxCell>
        <mxCell id="7Xz4EL3dT2qsOErIy4jS-348" value="url2" style="shape=partialRectangle;html=1;whiteSpace=wrap;connectable=0;strokeColor=inherit;overflow=hidden;fillColor=none;top=0;left=0;bottom=0;right=0;pointerEvents=1;fontSize=10;" parent="7Xz4EL3dT2qsOErIy4jS-347" vertex="1">
          <mxGeometry width="32" height="20" as="geometry">
            <mxRectangle width="32" height="20" as="alternateBounds" />
          </mxGeometry>
        </mxCell>
        <mxCell id="7Xz4EL3dT2qsOErIy4jS-349" value="clicks3,4" style="shape=partialRectangle;html=1;whiteSpace=wrap;connectable=0;strokeColor=inherit;overflow=hidden;fillColor=none;top=0;left=0;bottom=0;right=0;pointerEvents=1;fontSize=10;" parent="7Xz4EL3dT2qsOErIy4jS-347" vertex="1">
          <mxGeometry x="32" width="48" height="20" as="geometry">
            <mxRectangle width="48" height="20" as="alternateBounds" />
          </mxGeometry>
        </mxCell>
        <mxCell id="7Xz4EL3dT2qsOErIy4jS-350" value="weight2" style="shape=partialRectangle;html=1;whiteSpace=wrap;connectable=0;strokeColor=inherit;overflow=hidden;fillColor=none;top=0;left=0;bottom=0;right=0;pointerEvents=1;fontSize=10;" parent="7Xz4EL3dT2qsOErIy4jS-347" vertex="1">
          <mxGeometry x="80" width="40" height="20" as="geometry">
            <mxRectangle width="40" height="20" as="alternateBounds" />
          </mxGeometry>
        </mxCell>
        <mxCell id="7Xz4EL3dT2qsOErIy4jS-352" value="linknum2" style="shape=partialRectangle;html=1;whiteSpace=wrap;connectable=0;strokeColor=inherit;overflow=hidden;fillColor=none;top=0;left=0;bottom=0;right=0;pointerEvents=1;fontSize=10;" parent="7Xz4EL3dT2qsOErIy4jS-347" vertex="1">
          <mxGeometry x="120" width="50" height="20" as="geometry">
            <mxRectangle width="50" height="20" as="alternateBounds" />
          </mxGeometry>
        </mxCell>
        <mxCell id="zXx96FTG_lg0kcmIFyQ1-160" value="current linknum2" style="shape=partialRectangle;html=1;whiteSpace=wrap;connectable=0;strokeColor=inherit;overflow=hidden;fillColor=none;top=0;left=0;bottom=0;right=0;pointerEvents=1;fontSize=10;" vertex="1" parent="7Xz4EL3dT2qsOErIy4jS-347">
          <mxGeometry x="170" width="80" height="20" as="geometry">
            <mxRectangle width="80" height="20" as="alternateBounds" />
          </mxGeometry>
        </mxCell>
        <mxCell id="7Xz4EL3dT2qsOErIy4jS-362" value="CSERP" style="shape=partialRectangle;html=1;whiteSpace=wrap;connectable=0;strokeColor=inherit;overflow=hidden;fillColor=none;top=0;left=0;bottom=0;right=0;pointerEvents=1;fontSize=10;" parent="7Xz4EL3dT2qsOErIy4jS-347" vertex="1">
          <mxGeometry x="250" width="40" height="20" as="geometry">
            <mxRectangle width="40" height="20" as="alternateBounds" />
          </mxGeometry>
        </mxCell>
        <mxCell id="7Xz4EL3dT2qsOErIy4jS-451" style="edgeStyle=orthogonalEdgeStyle;rounded=0;orthogonalLoop=1;jettySize=auto;html=1;exitX=1;exitY=0.5;exitDx=0;exitDy=0;entryX=0;entryY=0.5;entryDx=0;entryDy=0;" parent="1" source="7Xz4EL3dT2qsOErIy4jS-363" target="7Xz4EL3dT2qsOErIy4jS-450" edge="1">
          <mxGeometry relative="1" as="geometry" />
        </mxCell>
        <mxCell id="7Xz4EL3dT2qsOErIy4jS-454" value="&lt;div&gt;&lt;span style=&quot;background-color: light-dark(#ffffff, var(--ge-dark-color, #121212)); color: light-dark(rgb(0, 0, 0), rgb(255, 255, 255));&quot;&gt;match by&amp;nbsp;&lt;/span&gt;&lt;span style=&quot;background-color: light-dark(#ffffff, var(--ge-dark-color, #121212));&quot;&gt;constraint solving:&lt;/span&gt;&lt;/div&gt;&lt;div&gt;url pos weight add = kw weight,&lt;/div&gt;&lt;div&gt;same url can not add&lt;/div&gt;" style="edgeLabel;html=1;align=center;verticalAlign=middle;resizable=0;points=[];" parent="7Xz4EL3dT2qsOErIy4jS-451" vertex="1" connectable="0">
          <mxGeometry x="0.3178" relative="1" as="geometry">
            <mxPoint y="-15" as="offset" />
          </mxGeometry>
        </mxCell>
        <mxCell id="7Xz4EL3dT2qsOErIy4jS-363" value="Distinct Pages vs Link Position vs Weight" style="rounded=1;whiteSpace=wrap;html=1;" parent="1" vertex="1">
          <mxGeometry x="520" y="640" width="120" height="50" as="geometry" />
        </mxCell>
        <mxCell id="7Xz4EL3dT2qsOErIy4jS-366" value="" style="shape=table;startSize=0;container=1;collapsible=0;childLayout=tableLayout;fontSize=16;" parent="1" vertex="1">
          <mxGeometry x="720" y="640" width="188" height="120" as="geometry" />
        </mxCell>
        <mxCell id="7Xz4EL3dT2qsOErIy4jS-367" value="" style="shape=tableRow;horizontal=0;startSize=0;swimlaneHead=0;swimlaneBody=0;strokeColor=inherit;top=0;left=0;bottom=0;right=0;collapsible=0;dropTarget=0;fillColor=none;points=[[0,0.5],[1,0.5]];portConstraint=eastwest;fontSize=16;" parent="7Xz4EL3dT2qsOErIy4jS-366" vertex="1">
          <mxGeometry width="188" height="20" as="geometry" />
        </mxCell>
        <mxCell id="7Xz4EL3dT2qsOErIy4jS-368" value="url1" style="shape=partialRectangle;html=1;whiteSpace=wrap;connectable=0;strokeColor=inherit;overflow=hidden;fillColor=none;top=0;left=0;bottom=0;right=0;pointerEvents=1;fontSize=10;" parent="7Xz4EL3dT2qsOErIy4jS-367" vertex="1">
          <mxGeometry width="35" height="20" as="geometry">
            <mxRectangle width="35" height="20" as="alternateBounds" />
          </mxGeometry>
        </mxCell>
        <mxCell id="7Xz4EL3dT2qsOErIy4jS-391" value="url1_pos1" style="shape=partialRectangle;html=1;whiteSpace=wrap;connectable=0;strokeColor=inherit;overflow=hidden;fillColor=none;top=0;left=0;bottom=0;right=0;pointerEvents=1;fontSize=10;" parent="7Xz4EL3dT2qsOErIy4jS-367" vertex="1">
          <mxGeometry x="35" width="63" height="20" as="geometry">
            <mxRectangle width="63" height="20" as="alternateBounds" />
          </mxGeometry>
        </mxCell>
        <mxCell id="7Xz4EL3dT2qsOErIy4jS-370" value="weight3" style="shape=partialRectangle;html=1;whiteSpace=wrap;connectable=0;strokeColor=inherit;overflow=hidden;fillColor=none;top=0;left=0;bottom=0;right=0;pointerEvents=1;fontSize=10;" parent="7Xz4EL3dT2qsOErIy4jS-367" vertex="1">
          <mxGeometry x="98" width="50" height="20" as="geometry">
            <mxRectangle width="50" height="20" as="alternateBounds" />
          </mxGeometry>
        </mxCell>
        <mxCell id="7Xz4EL3dT2qsOErIy4jS-372" value="PSERP" style="shape=partialRectangle;html=1;whiteSpace=wrap;connectable=0;strokeColor=inherit;overflow=hidden;fillColor=none;top=0;left=0;bottom=0;right=0;pointerEvents=1;fontSize=10;" parent="7Xz4EL3dT2qsOErIy4jS-367" vertex="1">
          <mxGeometry x="148" width="40" height="20" as="geometry">
            <mxRectangle width="40" height="20" as="alternateBounds" />
          </mxGeometry>
        </mxCell>
        <mxCell id="7Xz4EL3dT2qsOErIy4jS-385" style="shape=tableRow;horizontal=0;startSize=0;swimlaneHead=0;swimlaneBody=0;strokeColor=inherit;top=0;left=0;bottom=0;right=0;collapsible=0;dropTarget=0;fillColor=none;points=[[0,0.5],[1,0.5]];portConstraint=eastwest;fontSize=16;" parent="7Xz4EL3dT2qsOErIy4jS-366" vertex="1">
          <mxGeometry y="20" width="188" height="20" as="geometry" />
        </mxCell>
        <mxCell id="7Xz4EL3dT2qsOErIy4jS-386" value="url1" style="shape=partialRectangle;html=1;whiteSpace=wrap;connectable=0;strokeColor=inherit;overflow=hidden;fillColor=none;top=0;left=0;bottom=0;right=0;pointerEvents=1;fontSize=10;" parent="7Xz4EL3dT2qsOErIy4jS-385" vertex="1">
          <mxGeometry width="35" height="20" as="geometry">
            <mxRectangle width="35" height="20" as="alternateBounds" />
          </mxGeometry>
        </mxCell>
        <mxCell id="7Xz4EL3dT2qsOErIy4jS-392" value="url1_pos2" style="shape=partialRectangle;html=1;whiteSpace=wrap;connectable=0;strokeColor=inherit;overflow=hidden;fillColor=none;top=0;left=0;bottom=0;right=0;pointerEvents=1;fontSize=10;" parent="7Xz4EL3dT2qsOErIy4jS-385" vertex="1">
          <mxGeometry x="35" width="63" height="20" as="geometry">
            <mxRectangle width="63" height="20" as="alternateBounds" />
          </mxGeometry>
        </mxCell>
        <mxCell id="7Xz4EL3dT2qsOErIy4jS-388" value="weight3" style="shape=partialRectangle;html=1;whiteSpace=wrap;connectable=0;strokeColor=inherit;overflow=hidden;fillColor=none;top=0;left=0;bottom=0;right=0;pointerEvents=1;fontSize=10;" parent="7Xz4EL3dT2qsOErIy4jS-385" vertex="1">
          <mxGeometry x="98" width="50" height="20" as="geometry">
            <mxRectangle width="50" height="20" as="alternateBounds" />
          </mxGeometry>
        </mxCell>
        <mxCell id="7Xz4EL3dT2qsOErIy4jS-390" value="PSERP" style="shape=partialRectangle;html=1;whiteSpace=wrap;connectable=0;strokeColor=inherit;overflow=hidden;fillColor=none;top=0;left=0;bottom=0;right=0;pointerEvents=1;fontSize=10;" parent="7Xz4EL3dT2qsOErIy4jS-385" vertex="1">
          <mxGeometry x="148" width="40" height="20" as="geometry">
            <mxRectangle width="40" height="20" as="alternateBounds" />
          </mxGeometry>
        </mxCell>
        <mxCell id="zXx96FTG_lg0kcmIFyQ1-102" style="shape=tableRow;horizontal=0;startSize=0;swimlaneHead=0;swimlaneBody=0;strokeColor=inherit;top=0;left=0;bottom=0;right=0;collapsible=0;dropTarget=0;fillColor=none;points=[[0,0.5],[1,0.5]];portConstraint=eastwest;fontSize=16;" vertex="1" parent="7Xz4EL3dT2qsOErIy4jS-366">
          <mxGeometry y="40" width="188" height="20" as="geometry" />
        </mxCell>
        <mxCell id="zXx96FTG_lg0kcmIFyQ1-103" value="url1" style="shape=partialRectangle;html=1;whiteSpace=wrap;connectable=0;strokeColor=inherit;overflow=hidden;fillColor=none;top=0;left=0;bottom=0;right=0;pointerEvents=1;fontSize=10;" vertex="1" parent="zXx96FTG_lg0kcmIFyQ1-102">
          <mxGeometry width="35" height="20" as="geometry">
            <mxRectangle width="35" height="20" as="alternateBounds" />
          </mxGeometry>
        </mxCell>
        <mxCell id="zXx96FTG_lg0kcmIFyQ1-104" value="url1_pos3" style="shape=partialRectangle;html=1;whiteSpace=wrap;connectable=0;strokeColor=inherit;overflow=hidden;fillColor=none;top=0;left=0;bottom=0;right=0;pointerEvents=1;fontSize=10;" vertex="1" parent="zXx96FTG_lg0kcmIFyQ1-102">
          <mxGeometry x="35" width="63" height="20" as="geometry">
            <mxRectangle width="63" height="20" as="alternateBounds" />
          </mxGeometry>
        </mxCell>
        <mxCell id="zXx96FTG_lg0kcmIFyQ1-105" value="weight3" style="shape=partialRectangle;html=1;whiteSpace=wrap;connectable=0;strokeColor=inherit;overflow=hidden;fillColor=none;top=0;left=0;bottom=0;right=0;pointerEvents=1;fontSize=10;" vertex="1" parent="zXx96FTG_lg0kcmIFyQ1-102">
          <mxGeometry x="98" width="50" height="20" as="geometry">
            <mxRectangle width="50" height="20" as="alternateBounds" />
          </mxGeometry>
        </mxCell>
        <mxCell id="zXx96FTG_lg0kcmIFyQ1-106" value="PSERP" style="shape=partialRectangle;html=1;whiteSpace=wrap;connectable=0;strokeColor=inherit;overflow=hidden;fillColor=none;top=0;left=0;bottom=0;right=0;pointerEvents=1;fontSize=10;" vertex="1" parent="zXx96FTG_lg0kcmIFyQ1-102">
          <mxGeometry x="148" width="40" height="20" as="geometry">
            <mxRectangle width="40" height="20" as="alternateBounds" />
          </mxGeometry>
        </mxCell>
        <mxCell id="7Xz4EL3dT2qsOErIy4jS-373" style="shape=tableRow;horizontal=0;startSize=0;swimlaneHead=0;swimlaneBody=0;strokeColor=inherit;top=0;left=0;bottom=0;right=0;collapsible=0;dropTarget=0;fillColor=none;points=[[0,0.5],[1,0.5]];portConstraint=eastwest;fontSize=16;" parent="7Xz4EL3dT2qsOErIy4jS-366" vertex="1">
          <mxGeometry y="60" width="188" height="20" as="geometry" />
        </mxCell>
        <mxCell id="7Xz4EL3dT2qsOErIy4jS-374" value="url2" style="shape=partialRectangle;html=1;whiteSpace=wrap;connectable=0;strokeColor=inherit;overflow=hidden;fillColor=none;top=0;left=0;bottom=0;right=0;pointerEvents=1;fontSize=10;" parent="7Xz4EL3dT2qsOErIy4jS-373" vertex="1">
          <mxGeometry width="35" height="20" as="geometry">
            <mxRectangle width="35" height="20" as="alternateBounds" />
          </mxGeometry>
        </mxCell>
        <mxCell id="7Xz4EL3dT2qsOErIy4jS-393" value="url2_pos1" style="shape=partialRectangle;html=1;whiteSpace=wrap;connectable=0;strokeColor=inherit;overflow=hidden;fillColor=none;top=0;left=0;bottom=0;right=0;pointerEvents=1;fontSize=10;" parent="7Xz4EL3dT2qsOErIy4jS-373" vertex="1">
          <mxGeometry x="35" width="63" height="20" as="geometry">
            <mxRectangle width="63" height="20" as="alternateBounds" />
          </mxGeometry>
        </mxCell>
        <mxCell id="7Xz4EL3dT2qsOErIy4jS-376" value="weight4" style="shape=partialRectangle;html=1;whiteSpace=wrap;connectable=0;strokeColor=inherit;overflow=hidden;fillColor=none;top=0;left=0;bottom=0;right=0;pointerEvents=1;fontSize=10;" parent="7Xz4EL3dT2qsOErIy4jS-373" vertex="1">
          <mxGeometry x="98" width="50" height="20" as="geometry">
            <mxRectangle width="50" height="20" as="alternateBounds" />
          </mxGeometry>
        </mxCell>
        <mxCell id="7Xz4EL3dT2qsOErIy4jS-378" value="CSERP" style="shape=partialRectangle;html=1;whiteSpace=wrap;connectable=0;strokeColor=inherit;overflow=hidden;fillColor=none;top=0;left=0;bottom=0;right=0;pointerEvents=1;fontSize=10;" parent="7Xz4EL3dT2qsOErIy4jS-373" vertex="1">
          <mxGeometry x="148" width="40" height="20" as="geometry">
            <mxRectangle width="40" height="20" as="alternateBounds" />
          </mxGeometry>
        </mxCell>
        <mxCell id="7Xz4EL3dT2qsOErIy4jS-379" style="shape=tableRow;horizontal=0;startSize=0;swimlaneHead=0;swimlaneBody=0;strokeColor=inherit;top=0;left=0;bottom=0;right=0;collapsible=0;dropTarget=0;fillColor=none;points=[[0,0.5],[1,0.5]];portConstraint=eastwest;fontSize=16;" parent="7Xz4EL3dT2qsOErIy4jS-366" vertex="1">
          <mxGeometry y="80" width="188" height="20" as="geometry" />
        </mxCell>
        <mxCell id="7Xz4EL3dT2qsOErIy4jS-380" value="url2" style="shape=partialRectangle;html=1;whiteSpace=wrap;connectable=0;strokeColor=inherit;overflow=hidden;fillColor=none;top=0;left=0;bottom=0;right=0;pointerEvents=1;fontSize=10;" parent="7Xz4EL3dT2qsOErIy4jS-379" vertex="1">
          <mxGeometry width="35" height="20" as="geometry">
            <mxRectangle width="35" height="20" as="alternateBounds" />
          </mxGeometry>
        </mxCell>
        <mxCell id="7Xz4EL3dT2qsOErIy4jS-394" value="url2_pos2" style="shape=partialRectangle;html=1;whiteSpace=wrap;connectable=0;strokeColor=inherit;overflow=hidden;fillColor=none;top=0;left=0;bottom=0;right=0;pointerEvents=1;fontSize=10;" parent="7Xz4EL3dT2qsOErIy4jS-379" vertex="1">
          <mxGeometry x="35" width="63" height="20" as="geometry">
            <mxRectangle width="63" height="20" as="alternateBounds" />
          </mxGeometry>
        </mxCell>
        <mxCell id="7Xz4EL3dT2qsOErIy4jS-382" value="weight4" style="shape=partialRectangle;html=1;whiteSpace=wrap;connectable=0;strokeColor=inherit;overflow=hidden;fillColor=none;top=0;left=0;bottom=0;right=0;pointerEvents=1;fontSize=10;" parent="7Xz4EL3dT2qsOErIy4jS-379" vertex="1">
          <mxGeometry x="98" width="50" height="20" as="geometry">
            <mxRectangle width="50" height="20" as="alternateBounds" />
          </mxGeometry>
        </mxCell>
        <mxCell id="7Xz4EL3dT2qsOErIy4jS-384" value="CSERP" style="shape=partialRectangle;html=1;whiteSpace=wrap;connectable=0;strokeColor=inherit;overflow=hidden;fillColor=none;top=0;left=0;bottom=0;right=0;pointerEvents=1;fontSize=10;" parent="7Xz4EL3dT2qsOErIy4jS-379" vertex="1">
          <mxGeometry x="148" width="40" height="20" as="geometry">
            <mxRectangle width="40" height="20" as="alternateBounds" />
          </mxGeometry>
        </mxCell>
        <mxCell id="zXx96FTG_lg0kcmIFyQ1-107" style="shape=tableRow;horizontal=0;startSize=0;swimlaneHead=0;swimlaneBody=0;strokeColor=inherit;top=0;left=0;bottom=0;right=0;collapsible=0;dropTarget=0;fillColor=none;points=[[0,0.5],[1,0.5]];portConstraint=eastwest;fontSize=16;" vertex="1" parent="7Xz4EL3dT2qsOErIy4jS-366">
          <mxGeometry y="100" width="188" height="20" as="geometry" />
        </mxCell>
        <mxCell id="zXx96FTG_lg0kcmIFyQ1-108" value="url2" style="shape=partialRectangle;html=1;whiteSpace=wrap;connectable=0;strokeColor=inherit;overflow=hidden;fillColor=none;top=0;left=0;bottom=0;right=0;pointerEvents=1;fontSize=10;" vertex="1" parent="zXx96FTG_lg0kcmIFyQ1-107">
          <mxGeometry width="35" height="20" as="geometry">
            <mxRectangle width="35" height="20" as="alternateBounds" />
          </mxGeometry>
        </mxCell>
        <mxCell id="zXx96FTG_lg0kcmIFyQ1-109" value="url2_pos3" style="shape=partialRectangle;html=1;whiteSpace=wrap;connectable=0;strokeColor=inherit;overflow=hidden;fillColor=none;top=0;left=0;bottom=0;right=0;pointerEvents=1;fontSize=10;" vertex="1" parent="zXx96FTG_lg0kcmIFyQ1-107">
          <mxGeometry x="35" width="63" height="20" as="geometry">
            <mxRectangle width="63" height="20" as="alternateBounds" />
          </mxGeometry>
        </mxCell>
        <mxCell id="zXx96FTG_lg0kcmIFyQ1-110" value="weight4" style="shape=partialRectangle;html=1;whiteSpace=wrap;connectable=0;strokeColor=inherit;overflow=hidden;fillColor=none;top=0;left=0;bottom=0;right=0;pointerEvents=1;fontSize=10;" vertex="1" parent="zXx96FTG_lg0kcmIFyQ1-107">
          <mxGeometry x="98" width="50" height="20" as="geometry">
            <mxRectangle width="50" height="20" as="alternateBounds" />
          </mxGeometry>
        </mxCell>
        <mxCell id="zXx96FTG_lg0kcmIFyQ1-111" value="CSERP" style="shape=partialRectangle;html=1;whiteSpace=wrap;connectable=0;strokeColor=inherit;overflow=hidden;fillColor=none;top=0;left=0;bottom=0;right=0;pointerEvents=1;fontSize=10;" vertex="1" parent="zXx96FTG_lg0kcmIFyQ1-107">
          <mxGeometry x="148" width="40" height="20" as="geometry">
            <mxRectangle width="40" height="20" as="alternateBounds" />
          </mxGeometry>
        </mxCell>
        <mxCell id="7Xz4EL3dT2qsOErIy4jS-421" value="w↑total w↑&lt;div&gt;trends↑total w↑&lt;/div&gt;&lt;div&gt;rank↑total w↑&lt;/div&gt;&lt;div&gt;&lt;font style=&quot;color: rgb(255, 181, 112);&quot;&gt;has campaign total w↓&lt;/font&gt;&lt;/div&gt;" style="text;html=1;align=left;verticalAlign=middle;resizable=0;points=[];autosize=1;strokeColor=none;fillColor=none;" parent="1" vertex="1">
          <mxGeometry x="-320" y="1050" width="150" height="70" as="geometry" />
        </mxCell>
        <mxCell id="7Xz4EL3dT2qsOErIy4jS-453" style="edgeStyle=orthogonalEdgeStyle;rounded=0;orthogonalLoop=1;jettySize=auto;html=1;exitX=1;exitY=0.5;exitDx=0;exitDy=0;entryX=0;entryY=0.5;entryDx=0;entryDy=0;" parent="1" source="7Xz4EL3dT2qsOErIy4jS-422" target="7Xz4EL3dT2qsOErIy4jS-450" edge="1">
          <mxGeometry relative="1" as="geometry">
            <Array as="points">
              <mxPoint x="700" y="1020" />
              <mxPoint x="700" y="910" />
            </Array>
          </mxGeometry>
        </mxCell>
        <mxCell id="7Xz4EL3dT2qsOErIy4jS-422" value="Keyword&amp;nbsp;&lt;span style=&quot;background-color: transparent; color: light-dark(rgb(0, 0, 0), rgb(255, 255, 255));&quot;&gt;vs&amp;nbsp;&lt;/span&gt;&lt;div&gt;&lt;span style=&quot;background-color: transparent; color: light-dark(rgb(0, 0, 0), rgb(255, 255, 255));&quot;&gt;Keyword Link Position Weight&lt;/span&gt;&lt;/div&gt;" style="rounded=1;whiteSpace=wrap;html=1;" parent="1" vertex="1">
          <mxGeometry x="500" y="990" width="160" height="60" as="geometry" />
        </mxCell>
        <mxCell id="zXx96FTG_lg0kcmIFyQ1-130" style="edgeStyle=orthogonalEdgeStyle;rounded=0;orthogonalLoop=1;jettySize=auto;html=1;exitX=1;exitY=0.5;exitDx=0;exitDy=0;entryX=0;entryY=0.5;entryDx=0;entryDy=0;" edge="1" parent="1" source="7Xz4EL3dT2qsOErIy4jS-450" target="8toNQD8QST1rocxcnVbk-70">
          <mxGeometry relative="1" as="geometry" />
        </mxCell>
        <mxCell id="zXx96FTG_lg0kcmIFyQ1-132" style="edgeStyle=orthogonalEdgeStyle;rounded=0;orthogonalLoop=1;jettySize=auto;html=1;exitX=1;exitY=0.5;exitDx=0;exitDy=0;entryX=0.5;entryY=1;entryDx=0;entryDy=0;" edge="1" parent="1" source="7Xz4EL3dT2qsOErIy4jS-450" target="8toNQD8QST1rocxcnVbk-79">
          <mxGeometry relative="1" as="geometry" />
        </mxCell>
        <mxCell id="7Xz4EL3dT2qsOErIy4jS-450" value="Link Position vs&amp;nbsp;&lt;span style=&quot;background-color: transparent; color: light-dark(rgb(0, 0, 0), rgb(255, 255, 255));&quot;&gt;Keyword&amp;nbsp;&lt;/span&gt;&lt;div&gt;vs Link Position Weight&lt;div&gt;&amp;nbsp;vs Keyword Link Position Weight&lt;/div&gt;&lt;/div&gt;&lt;div&gt;vs Keyword Url&lt;/div&gt;" style="rounded=1;whiteSpace=wrap;html=1;" parent="1" vertex="1">
          <mxGeometry x="760" y="880" width="200" height="60" as="geometry" />
        </mxCell>
        <mxCell id="7Xz4EL3dT2qsOErIy4jS-455" value="" style="shape=table;startSize=0;container=1;collapsible=0;childLayout=tableLayout;fontSize=16;" parent="1" vertex="1">
          <mxGeometry x="760" y="960" width="390" height="120" as="geometry" />
        </mxCell>
        <mxCell id="7Xz4EL3dT2qsOErIy4jS-456" value="" style="shape=tableRow;horizontal=0;startSize=0;swimlaneHead=0;swimlaneBody=0;strokeColor=inherit;top=0;left=0;bottom=0;right=0;collapsible=0;dropTarget=0;fillColor=none;points=[[0,0.5],[1,0.5]];portConstraint=eastwest;fontSize=16;" parent="7Xz4EL3dT2qsOErIy4jS-455" vertex="1">
          <mxGeometry width="390" height="20" as="geometry" />
        </mxCell>
        <mxCell id="7Xz4EL3dT2qsOErIy4jS-457" value="url1" style="shape=partialRectangle;html=1;whiteSpace=wrap;connectable=0;strokeColor=inherit;overflow=hidden;fillColor=none;top=0;left=0;bottom=0;right=0;pointerEvents=1;fontSize=10;" parent="7Xz4EL3dT2qsOErIy4jS-456" vertex="1">
          <mxGeometry width="26" height="20" as="geometry">
            <mxRectangle width="26" height="20" as="alternateBounds" />
          </mxGeometry>
        </mxCell>
        <mxCell id="7Xz4EL3dT2qsOErIy4jS-458" value="url1_pos1" style="shape=partialRectangle;html=1;whiteSpace=wrap;connectable=0;strokeColor=inherit;overflow=hidden;fillColor=none;top=0;left=0;bottom=0;right=0;pointerEvents=1;fontSize=10;" parent="7Xz4EL3dT2qsOErIy4jS-456" vertex="1">
          <mxGeometry x="26" width="64" height="20" as="geometry">
            <mxRectangle width="64" height="20" as="alternateBounds" />
          </mxGeometry>
        </mxCell>
        <mxCell id="7Xz4EL3dT2qsOErIy4jS-459" value="weight3" style="shape=partialRectangle;html=1;whiteSpace=wrap;connectable=0;strokeColor=inherit;overflow=hidden;fillColor=none;top=0;left=0;bottom=0;right=0;pointerEvents=1;fontSize=10;" parent="7Xz4EL3dT2qsOErIy4jS-456" vertex="1">
          <mxGeometry x="90" width="50" height="20" as="geometry">
            <mxRectangle width="50" height="20" as="alternateBounds" />
          </mxGeometry>
        </mxCell>
        <mxCell id="7Xz4EL3dT2qsOErIy4jS-460" value="PSERP" style="shape=partialRectangle;html=1;whiteSpace=wrap;connectable=0;strokeColor=inherit;overflow=hidden;fillColor=none;top=0;left=0;bottom=0;right=0;pointerEvents=1;fontSize=10;" parent="7Xz4EL3dT2qsOErIy4jS-456" vertex="1">
          <mxGeometry x="140" width="40" height="20" as="geometry">
            <mxRectangle width="40" height="20" as="alternateBounds" />
          </mxGeometry>
        </mxCell>
        <mxCell id="7Xz4EL3dT2qsOErIy4jS-476" value="kw1" style="shape=partialRectangle;html=1;whiteSpace=wrap;connectable=0;strokeColor=inherit;overflow=hidden;fillColor=none;top=0;left=0;bottom=0;right=0;pointerEvents=1;fontSize=10;" parent="7Xz4EL3dT2qsOErIy4jS-456" vertex="1">
          <mxGeometry x="180" width="30" height="20" as="geometry">
            <mxRectangle width="30" height="20" as="alternateBounds" />
          </mxGeometry>
        </mxCell>
        <mxCell id="7Xz4EL3dT2qsOErIy4jS-480" value="kw1 ex1" style="shape=partialRectangle;html=1;whiteSpace=wrap;connectable=0;strokeColor=inherit;overflow=hidden;fillColor=none;top=0;left=0;bottom=0;right=0;pointerEvents=1;fontSize=10;" parent="7Xz4EL3dT2qsOErIy4jS-456" vertex="1">
          <mxGeometry x="210" width="50" height="20" as="geometry">
            <mxRectangle width="50" height="20" as="alternateBounds" />
          </mxGeometry>
        </mxCell>
        <mxCell id="7Xz4EL3dT2qsOErIy4jS-484" value="kw link pos w1" style="shape=partialRectangle;html=1;whiteSpace=wrap;connectable=0;strokeColor=inherit;overflow=hidden;fillColor=none;top=0;left=0;bottom=0;right=0;pointerEvents=1;fontSize=10;" parent="7Xz4EL3dT2qsOErIy4jS-456" vertex="1">
          <mxGeometry x="260" width="80" height="20" as="geometry">
            <mxRectangle width="80" height="20" as="alternateBounds" />
          </mxGeometry>
        </mxCell>
        <mxCell id="8toNQD8QST1rocxcnVbk-59" value="kw_url1" style="shape=partialRectangle;html=1;whiteSpace=wrap;connectable=0;strokeColor=inherit;overflow=hidden;fillColor=none;top=0;left=0;bottom=0;right=0;pointerEvents=1;fontSize=10;" parent="7Xz4EL3dT2qsOErIy4jS-456" vertex="1">
          <mxGeometry x="340" width="50" height="20" as="geometry">
            <mxRectangle width="50" height="20" as="alternateBounds" />
          </mxGeometry>
        </mxCell>
        <mxCell id="7Xz4EL3dT2qsOErIy4jS-461" style="shape=tableRow;horizontal=0;startSize=0;swimlaneHead=0;swimlaneBody=0;strokeColor=inherit;top=0;left=0;bottom=0;right=0;collapsible=0;dropTarget=0;fillColor=none;points=[[0,0.5],[1,0.5]];portConstraint=eastwest;fontSize=16;" parent="7Xz4EL3dT2qsOErIy4jS-455" vertex="1">
          <mxGeometry y="20" width="390" height="20" as="geometry" />
        </mxCell>
        <mxCell id="7Xz4EL3dT2qsOErIy4jS-462" value="url1" style="shape=partialRectangle;html=1;whiteSpace=wrap;connectable=0;strokeColor=inherit;overflow=hidden;fillColor=none;top=0;left=0;bottom=0;right=0;pointerEvents=1;fontSize=10;fontColor=#000000;" parent="7Xz4EL3dT2qsOErIy4jS-461" vertex="1">
          <mxGeometry width="26" height="20" as="geometry">
            <mxRectangle width="26" height="20" as="alternateBounds" />
          </mxGeometry>
        </mxCell>
        <mxCell id="7Xz4EL3dT2qsOErIy4jS-463" value="url1_pos2" style="shape=partialRectangle;html=1;whiteSpace=wrap;connectable=0;strokeColor=inherit;overflow=hidden;fillColor=none;top=0;left=0;bottom=0;right=0;pointerEvents=1;fontSize=10;fontColor=#000000;" parent="7Xz4EL3dT2qsOErIy4jS-461" vertex="1">
          <mxGeometry x="26" width="64" height="20" as="geometry">
            <mxRectangle width="64" height="20" as="alternateBounds" />
          </mxGeometry>
        </mxCell>
        <mxCell id="7Xz4EL3dT2qsOErIy4jS-464" value="weight3" style="shape=partialRectangle;html=1;whiteSpace=wrap;connectable=0;strokeColor=inherit;overflow=hidden;fillColor=none;top=0;left=0;bottom=0;right=0;pointerEvents=1;fontSize=10;fontColor=#000000;" parent="7Xz4EL3dT2qsOErIy4jS-461" vertex="1">
          <mxGeometry x="90" width="50" height="20" as="geometry">
            <mxRectangle width="50" height="20" as="alternateBounds" />
          </mxGeometry>
        </mxCell>
        <mxCell id="7Xz4EL3dT2qsOErIy4jS-465" value="PSERP" style="shape=partialRectangle;html=1;whiteSpace=wrap;connectable=0;strokeColor=inherit;overflow=hidden;fillColor=none;top=0;left=0;bottom=0;right=0;pointerEvents=1;fontSize=10;fontColor=#000000;" parent="7Xz4EL3dT2qsOErIy4jS-461" vertex="1">
          <mxGeometry x="140" width="40" height="20" as="geometry">
            <mxRectangle width="40" height="20" as="alternateBounds" />
          </mxGeometry>
        </mxCell>
        <mxCell id="7Xz4EL3dT2qsOErIy4jS-477" value="kw1" style="shape=partialRectangle;html=1;whiteSpace=wrap;connectable=0;strokeColor=inherit;overflow=hidden;fillColor=none;top=0;left=0;bottom=0;right=0;pointerEvents=1;fontSize=10;fontColor=#000000;" parent="7Xz4EL3dT2qsOErIy4jS-461" vertex="1">
          <mxGeometry x="180" width="30" height="20" as="geometry">
            <mxRectangle width="30" height="20" as="alternateBounds" />
          </mxGeometry>
        </mxCell>
        <mxCell id="7Xz4EL3dT2qsOErIy4jS-481" value="kw1 ex2" style="shape=partialRectangle;html=1;whiteSpace=wrap;connectable=0;strokeColor=inherit;overflow=hidden;fillColor=none;top=0;left=0;bottom=0;right=0;pointerEvents=1;fontSize=10;fontColor=#000000;" parent="7Xz4EL3dT2qsOErIy4jS-461" vertex="1">
          <mxGeometry x="210" width="50" height="20" as="geometry">
            <mxRectangle width="50" height="20" as="alternateBounds" />
          </mxGeometry>
        </mxCell>
        <mxCell id="7Xz4EL3dT2qsOErIy4jS-485" value="kw link pos w1" style="shape=partialRectangle;html=1;whiteSpace=wrap;connectable=0;strokeColor=inherit;overflow=hidden;fillColor=none;top=0;left=0;bottom=0;right=0;pointerEvents=1;fontSize=10;fontColor=#000000;" parent="7Xz4EL3dT2qsOErIy4jS-461" vertex="1">
          <mxGeometry x="260" width="80" height="20" as="geometry">
            <mxRectangle width="80" height="20" as="alternateBounds" />
          </mxGeometry>
        </mxCell>
        <mxCell id="8toNQD8QST1rocxcnVbk-60" value="kw_url2" style="shape=partialRectangle;html=1;whiteSpace=wrap;connectable=0;strokeColor=inherit;overflow=hidden;fillColor=none;top=0;left=0;bottom=0;right=0;pointerEvents=1;fontSize=10;fontColor=#000000;" parent="7Xz4EL3dT2qsOErIy4jS-461" vertex="1">
          <mxGeometry x="340" width="50" height="20" as="geometry">
            <mxRectangle width="50" height="20" as="alternateBounds" />
          </mxGeometry>
        </mxCell>
        <mxCell id="zXx96FTG_lg0kcmIFyQ1-112" style="shape=tableRow;horizontal=0;startSize=0;swimlaneHead=0;swimlaneBody=0;strokeColor=inherit;top=0;left=0;bottom=0;right=0;collapsible=0;dropTarget=0;fillColor=none;points=[[0,0.5],[1,0.5]];portConstraint=eastwest;fontSize=16;" vertex="1" parent="7Xz4EL3dT2qsOErIy4jS-455">
          <mxGeometry y="40" width="390" height="20" as="geometry" />
        </mxCell>
        <mxCell id="zXx96FTG_lg0kcmIFyQ1-113" value="url1" style="shape=partialRectangle;html=1;whiteSpace=wrap;connectable=0;strokeColor=inherit;overflow=hidden;fillColor=none;top=0;left=0;bottom=0;right=0;pointerEvents=1;fontSize=10;fontColor=#000000;" vertex="1" parent="zXx96FTG_lg0kcmIFyQ1-112">
          <mxGeometry width="26" height="20" as="geometry">
            <mxRectangle width="26" height="20" as="alternateBounds" />
          </mxGeometry>
        </mxCell>
        <mxCell id="zXx96FTG_lg0kcmIFyQ1-114" value="url1_pos3" style="shape=partialRectangle;html=1;whiteSpace=wrap;connectable=0;strokeColor=inherit;overflow=hidden;fillColor=none;top=0;left=0;bottom=0;right=0;pointerEvents=1;fontSize=10;fontColor=#000000;" vertex="1" parent="zXx96FTG_lg0kcmIFyQ1-112">
          <mxGeometry x="26" width="64" height="20" as="geometry">
            <mxRectangle width="64" height="20" as="alternateBounds" />
          </mxGeometry>
        </mxCell>
        <mxCell id="zXx96FTG_lg0kcmIFyQ1-115" value="weight3" style="shape=partialRectangle;html=1;whiteSpace=wrap;connectable=0;strokeColor=inherit;overflow=hidden;fillColor=none;top=0;left=0;bottom=0;right=0;pointerEvents=1;fontSize=10;fontColor=#000000;" vertex="1" parent="zXx96FTG_lg0kcmIFyQ1-112">
          <mxGeometry x="90" width="50" height="20" as="geometry">
            <mxRectangle width="50" height="20" as="alternateBounds" />
          </mxGeometry>
        </mxCell>
        <mxCell id="zXx96FTG_lg0kcmIFyQ1-116" value="PSERP" style="shape=partialRectangle;html=1;whiteSpace=wrap;connectable=0;strokeColor=inherit;overflow=hidden;fillColor=none;top=0;left=0;bottom=0;right=0;pointerEvents=1;fontSize=10;fontColor=#000000;" vertex="1" parent="zXx96FTG_lg0kcmIFyQ1-112">
          <mxGeometry x="140" width="40" height="20" as="geometry">
            <mxRectangle width="40" height="20" as="alternateBounds" />
          </mxGeometry>
        </mxCell>
        <mxCell id="zXx96FTG_lg0kcmIFyQ1-117" value="kw2" style="shape=partialRectangle;html=1;whiteSpace=wrap;connectable=0;strokeColor=inherit;overflow=hidden;fillColor=none;top=0;left=0;bottom=0;right=0;pointerEvents=1;fontSize=10;fontColor=#000000;" vertex="1" parent="zXx96FTG_lg0kcmIFyQ1-112">
          <mxGeometry x="180" width="30" height="20" as="geometry">
            <mxRectangle width="30" height="20" as="alternateBounds" />
          </mxGeometry>
        </mxCell>
        <mxCell id="zXx96FTG_lg0kcmIFyQ1-118" value="kw2 ex1" style="shape=partialRectangle;html=1;whiteSpace=wrap;connectable=0;strokeColor=inherit;overflow=hidden;fillColor=none;top=0;left=0;bottom=0;right=0;pointerEvents=1;fontSize=10;fontColor=#000000;" vertex="1" parent="zXx96FTG_lg0kcmIFyQ1-112">
          <mxGeometry x="210" width="50" height="20" as="geometry">
            <mxRectangle width="50" height="20" as="alternateBounds" />
          </mxGeometry>
        </mxCell>
        <mxCell id="zXx96FTG_lg0kcmIFyQ1-119" value="kw link pos w1" style="shape=partialRectangle;html=1;whiteSpace=wrap;connectable=0;strokeColor=inherit;overflow=hidden;fillColor=none;top=0;left=0;bottom=0;right=0;pointerEvents=1;fontSize=10;fontColor=#000000;" vertex="1" parent="zXx96FTG_lg0kcmIFyQ1-112">
          <mxGeometry x="260" width="80" height="20" as="geometry">
            <mxRectangle width="80" height="20" as="alternateBounds" />
          </mxGeometry>
        </mxCell>
        <mxCell id="zXx96FTG_lg0kcmIFyQ1-120" value="kw_url3" style="shape=partialRectangle;html=1;whiteSpace=wrap;connectable=0;strokeColor=inherit;overflow=hidden;fillColor=none;top=0;left=0;bottom=0;right=0;pointerEvents=1;fontSize=10;fontColor=#000000;" vertex="1" parent="zXx96FTG_lg0kcmIFyQ1-112">
          <mxGeometry x="340" width="50" height="20" as="geometry">
            <mxRectangle width="50" height="20" as="alternateBounds" />
          </mxGeometry>
        </mxCell>
        <mxCell id="7Xz4EL3dT2qsOErIy4jS-466" style="shape=tableRow;horizontal=0;startSize=0;swimlaneHead=0;swimlaneBody=0;strokeColor=inherit;top=0;left=0;bottom=0;right=0;collapsible=0;dropTarget=0;fillColor=none;points=[[0,0.5],[1,0.5]];portConstraint=eastwest;fontSize=16;" parent="7Xz4EL3dT2qsOErIy4jS-455" vertex="1">
          <mxGeometry y="60" width="390" height="20" as="geometry" />
        </mxCell>
        <mxCell id="7Xz4EL3dT2qsOErIy4jS-467" value="url2" style="shape=partialRectangle;html=1;whiteSpace=wrap;connectable=0;strokeColor=inherit;overflow=hidden;fillColor=none;top=0;left=0;bottom=0;right=0;pointerEvents=1;fontSize=10;fontColor=#000000;" parent="7Xz4EL3dT2qsOErIy4jS-466" vertex="1">
          <mxGeometry width="26" height="20" as="geometry">
            <mxRectangle width="26" height="20" as="alternateBounds" />
          </mxGeometry>
        </mxCell>
        <mxCell id="7Xz4EL3dT2qsOErIy4jS-468" value="url2_pos1" style="shape=partialRectangle;html=1;whiteSpace=wrap;connectable=0;strokeColor=inherit;overflow=hidden;fillColor=none;top=0;left=0;bottom=0;right=0;pointerEvents=1;fontSize=10;fontColor=#000000;" parent="7Xz4EL3dT2qsOErIy4jS-466" vertex="1">
          <mxGeometry x="26" width="64" height="20" as="geometry">
            <mxRectangle width="64" height="20" as="alternateBounds" />
          </mxGeometry>
        </mxCell>
        <mxCell id="7Xz4EL3dT2qsOErIy4jS-469" value="weight4" style="shape=partialRectangle;html=1;whiteSpace=wrap;connectable=0;strokeColor=inherit;overflow=hidden;fillColor=none;top=0;left=0;bottom=0;right=0;pointerEvents=1;fontSize=10;fontColor=#000000;" parent="7Xz4EL3dT2qsOErIy4jS-466" vertex="1">
          <mxGeometry x="90" width="50" height="20" as="geometry">
            <mxRectangle width="50" height="20" as="alternateBounds" />
          </mxGeometry>
        </mxCell>
        <mxCell id="7Xz4EL3dT2qsOErIy4jS-470" value="CSERP" style="shape=partialRectangle;html=1;whiteSpace=wrap;connectable=0;strokeColor=inherit;overflow=hidden;fillColor=none;top=0;left=0;bottom=0;right=0;pointerEvents=1;fontSize=10;fontColor=#000000;" parent="7Xz4EL3dT2qsOErIy4jS-466" vertex="1">
          <mxGeometry x="140" width="40" height="20" as="geometry">
            <mxRectangle width="40" height="20" as="alternateBounds" />
          </mxGeometry>
        </mxCell>
        <mxCell id="7Xz4EL3dT2qsOErIy4jS-478" value="kw1" style="shape=partialRectangle;html=1;whiteSpace=wrap;connectable=0;strokeColor=inherit;overflow=hidden;fillColor=none;top=0;left=0;bottom=0;right=0;pointerEvents=1;fontSize=10;fontColor=#000000;" parent="7Xz4EL3dT2qsOErIy4jS-466" vertex="1">
          <mxGeometry x="180" width="30" height="20" as="geometry">
            <mxRectangle width="30" height="20" as="alternateBounds" />
          </mxGeometry>
        </mxCell>
        <mxCell id="7Xz4EL3dT2qsOErIy4jS-482" value="kw2 ex1" style="shape=partialRectangle;html=1;whiteSpace=wrap;connectable=0;strokeColor=inherit;overflow=hidden;fillColor=none;top=0;left=0;bottom=0;right=0;pointerEvents=1;fontSize=10;fontColor=#000000;" parent="7Xz4EL3dT2qsOErIy4jS-466" vertex="1">
          <mxGeometry x="210" width="50" height="20" as="geometry">
            <mxRectangle width="50" height="20" as="alternateBounds" />
          </mxGeometry>
        </mxCell>
        <mxCell id="7Xz4EL3dT2qsOErIy4jS-486" value="kw link pos w2" style="shape=partialRectangle;html=1;whiteSpace=wrap;connectable=0;strokeColor=inherit;overflow=hidden;fillColor=none;top=0;left=0;bottom=0;right=0;pointerEvents=1;fontSize=10;fontColor=#000000;" parent="7Xz4EL3dT2qsOErIy4jS-466" vertex="1">
          <mxGeometry x="260" width="80" height="20" as="geometry">
            <mxRectangle width="80" height="20" as="alternateBounds" />
          </mxGeometry>
        </mxCell>
        <mxCell id="8toNQD8QST1rocxcnVbk-61" value="kw_url3" style="shape=partialRectangle;html=1;whiteSpace=wrap;connectable=0;strokeColor=inherit;overflow=hidden;fillColor=none;top=0;left=0;bottom=0;right=0;pointerEvents=1;fontSize=10;fontColor=#000000;" parent="7Xz4EL3dT2qsOErIy4jS-466" vertex="1">
          <mxGeometry x="340" width="50" height="20" as="geometry">
            <mxRectangle width="50" height="20" as="alternateBounds" />
          </mxGeometry>
        </mxCell>
        <mxCell id="7Xz4EL3dT2qsOErIy4jS-471" style="shape=tableRow;horizontal=0;startSize=0;swimlaneHead=0;swimlaneBody=0;strokeColor=inherit;top=0;left=0;bottom=0;right=0;collapsible=0;dropTarget=0;fillColor=none;points=[[0,0.5],[1,0.5]];portConstraint=eastwest;fontSize=16;" parent="7Xz4EL3dT2qsOErIy4jS-455" vertex="1">
          <mxGeometry y="80" width="390" height="20" as="geometry" />
        </mxCell>
        <mxCell id="7Xz4EL3dT2qsOErIy4jS-472" value="url2" style="shape=partialRectangle;html=1;whiteSpace=wrap;connectable=0;strokeColor=inherit;overflow=hidden;fillColor=none;top=0;left=0;bottom=0;right=0;pointerEvents=1;fontSize=10;" parent="7Xz4EL3dT2qsOErIy4jS-471" vertex="1">
          <mxGeometry width="26" height="20" as="geometry">
            <mxRectangle width="26" height="20" as="alternateBounds" />
          </mxGeometry>
        </mxCell>
        <mxCell id="7Xz4EL3dT2qsOErIy4jS-473" value="url2_pos2" style="shape=partialRectangle;html=1;whiteSpace=wrap;connectable=0;strokeColor=inherit;overflow=hidden;fillColor=none;top=0;left=0;bottom=0;right=0;pointerEvents=1;fontSize=10;" parent="7Xz4EL3dT2qsOErIy4jS-471" vertex="1">
          <mxGeometry x="26" width="64" height="20" as="geometry">
            <mxRectangle width="64" height="20" as="alternateBounds" />
          </mxGeometry>
        </mxCell>
        <mxCell id="7Xz4EL3dT2qsOErIy4jS-474" value="weight4" style="shape=partialRectangle;html=1;whiteSpace=wrap;connectable=0;strokeColor=inherit;overflow=hidden;fillColor=none;top=0;left=0;bottom=0;right=0;pointerEvents=1;fontSize=10;" parent="7Xz4EL3dT2qsOErIy4jS-471" vertex="1">
          <mxGeometry x="90" width="50" height="20" as="geometry">
            <mxRectangle width="50" height="20" as="alternateBounds" />
          </mxGeometry>
        </mxCell>
        <mxCell id="7Xz4EL3dT2qsOErIy4jS-475" value="CSERP" style="shape=partialRectangle;html=1;whiteSpace=wrap;connectable=0;strokeColor=inherit;overflow=hidden;fillColor=none;top=0;left=0;bottom=0;right=0;pointerEvents=1;fontSize=10;" parent="7Xz4EL3dT2qsOErIy4jS-471" vertex="1">
          <mxGeometry x="140" width="40" height="20" as="geometry">
            <mxRectangle width="40" height="20" as="alternateBounds" />
          </mxGeometry>
        </mxCell>
        <mxCell id="7Xz4EL3dT2qsOErIy4jS-479" value="kw2" style="shape=partialRectangle;html=1;whiteSpace=wrap;connectable=0;strokeColor=inherit;overflow=hidden;fillColor=none;top=0;left=0;bottom=0;right=0;pointerEvents=1;fontSize=10;" parent="7Xz4EL3dT2qsOErIy4jS-471" vertex="1">
          <mxGeometry x="180" width="30" height="20" as="geometry">
            <mxRectangle width="30" height="20" as="alternateBounds" />
          </mxGeometry>
        </mxCell>
        <mxCell id="7Xz4EL3dT2qsOErIy4jS-483" value="kw2 ex2" style="shape=partialRectangle;html=1;whiteSpace=wrap;connectable=0;strokeColor=inherit;overflow=hidden;fillColor=none;top=0;left=0;bottom=0;right=0;pointerEvents=1;fontSize=10;" parent="7Xz4EL3dT2qsOErIy4jS-471" vertex="1">
          <mxGeometry x="210" width="50" height="20" as="geometry">
            <mxRectangle width="50" height="20" as="alternateBounds" />
          </mxGeometry>
        </mxCell>
        <mxCell id="7Xz4EL3dT2qsOErIy4jS-487" value="kw link pos w2" style="shape=partialRectangle;html=1;whiteSpace=wrap;connectable=0;strokeColor=inherit;overflow=hidden;fillColor=none;top=0;left=0;bottom=0;right=0;pointerEvents=1;fontSize=10;" parent="7Xz4EL3dT2qsOErIy4jS-471" vertex="1">
          <mxGeometry x="260" width="80" height="20" as="geometry">
            <mxRectangle width="80" height="20" as="alternateBounds" />
          </mxGeometry>
        </mxCell>
        <mxCell id="8toNQD8QST1rocxcnVbk-62" value="kw_url4" style="shape=partialRectangle;html=1;whiteSpace=wrap;connectable=0;strokeColor=inherit;overflow=hidden;fillColor=none;top=0;left=0;bottom=0;right=0;pointerEvents=1;fontSize=10;" parent="7Xz4EL3dT2qsOErIy4jS-471" vertex="1">
          <mxGeometry x="340" width="50" height="20" as="geometry">
            <mxRectangle width="50" height="20" as="alternateBounds" />
          </mxGeometry>
        </mxCell>
        <mxCell id="zXx96FTG_lg0kcmIFyQ1-121" style="shape=tableRow;horizontal=0;startSize=0;swimlaneHead=0;swimlaneBody=0;strokeColor=inherit;top=0;left=0;bottom=0;right=0;collapsible=0;dropTarget=0;fillColor=none;points=[[0,0.5],[1,0.5]];portConstraint=eastwest;fontSize=16;" vertex="1" parent="7Xz4EL3dT2qsOErIy4jS-455">
          <mxGeometry y="100" width="390" height="20" as="geometry" />
        </mxCell>
        <mxCell id="zXx96FTG_lg0kcmIFyQ1-122" value="url2" style="shape=partialRectangle;html=1;whiteSpace=wrap;connectable=0;strokeColor=inherit;overflow=hidden;fillColor=none;top=0;left=0;bottom=0;right=0;pointerEvents=1;fontSize=10;" vertex="1" parent="zXx96FTG_lg0kcmIFyQ1-121">
          <mxGeometry width="26" height="20" as="geometry">
            <mxRectangle width="26" height="20" as="alternateBounds" />
          </mxGeometry>
        </mxCell>
        <mxCell id="zXx96FTG_lg0kcmIFyQ1-123" value="url2_pos3" style="shape=partialRectangle;html=1;whiteSpace=wrap;connectable=0;strokeColor=inherit;overflow=hidden;fillColor=none;top=0;left=0;bottom=0;right=0;pointerEvents=1;fontSize=10;" vertex="1" parent="zXx96FTG_lg0kcmIFyQ1-121">
          <mxGeometry x="26" width="64" height="20" as="geometry">
            <mxRectangle width="64" height="20" as="alternateBounds" />
          </mxGeometry>
        </mxCell>
        <mxCell id="zXx96FTG_lg0kcmIFyQ1-124" value="weight4" style="shape=partialRectangle;html=1;whiteSpace=wrap;connectable=0;strokeColor=inherit;overflow=hidden;fillColor=none;top=0;left=0;bottom=0;right=0;pointerEvents=1;fontSize=10;" vertex="1" parent="zXx96FTG_lg0kcmIFyQ1-121">
          <mxGeometry x="90" width="50" height="20" as="geometry">
            <mxRectangle width="50" height="20" as="alternateBounds" />
          </mxGeometry>
        </mxCell>
        <mxCell id="zXx96FTG_lg0kcmIFyQ1-125" value="CSERP" style="shape=partialRectangle;html=1;whiteSpace=wrap;connectable=0;strokeColor=inherit;overflow=hidden;fillColor=none;top=0;left=0;bottom=0;right=0;pointerEvents=1;fontSize=10;" vertex="1" parent="zXx96FTG_lg0kcmIFyQ1-121">
          <mxGeometry x="140" width="40" height="20" as="geometry">
            <mxRectangle width="40" height="20" as="alternateBounds" />
          </mxGeometry>
        </mxCell>
        <mxCell id="zXx96FTG_lg0kcmIFyQ1-126" value="kw1" style="shape=partialRectangle;html=1;whiteSpace=wrap;connectable=0;strokeColor=inherit;overflow=hidden;fillColor=none;top=0;left=0;bottom=0;right=0;pointerEvents=1;fontSize=10;" vertex="1" parent="zXx96FTG_lg0kcmIFyQ1-121">
          <mxGeometry x="180" width="30" height="20" as="geometry">
            <mxRectangle width="30" height="20" as="alternateBounds" />
          </mxGeometry>
        </mxCell>
        <mxCell id="zXx96FTG_lg0kcmIFyQ1-127" value="kw1 ex2" style="shape=partialRectangle;html=1;whiteSpace=wrap;connectable=0;strokeColor=inherit;overflow=hidden;fillColor=none;top=0;left=0;bottom=0;right=0;pointerEvents=1;fontSize=10;" vertex="1" parent="zXx96FTG_lg0kcmIFyQ1-121">
          <mxGeometry x="210" width="50" height="20" as="geometry">
            <mxRectangle width="50" height="20" as="alternateBounds" />
          </mxGeometry>
        </mxCell>
        <mxCell id="zXx96FTG_lg0kcmIFyQ1-128" value="kw link pos w1" style="shape=partialRectangle;html=1;whiteSpace=wrap;connectable=0;strokeColor=inherit;overflow=hidden;fillColor=none;top=0;left=0;bottom=0;right=0;pointerEvents=1;fontSize=10;" vertex="1" parent="zXx96FTG_lg0kcmIFyQ1-121">
          <mxGeometry x="260" width="80" height="20" as="geometry">
            <mxRectangle width="80" height="20" as="alternateBounds" />
          </mxGeometry>
        </mxCell>
        <mxCell id="zXx96FTG_lg0kcmIFyQ1-129" value="kw_url2" style="shape=partialRectangle;html=1;whiteSpace=wrap;connectable=0;strokeColor=inherit;overflow=hidden;fillColor=none;top=0;left=0;bottom=0;right=0;pointerEvents=1;fontSize=10;" vertex="1" parent="zXx96FTG_lg0kcmIFyQ1-121">
          <mxGeometry x="340" width="50" height="20" as="geometry">
            <mxRectangle width="50" height="20" as="alternateBounds" />
          </mxGeometry>
        </mxCell>
        <mxCell id="7Xz4EL3dT2qsOErIy4jS-488" value="ex:&lt;div&gt;kw_url1 w=2&lt;/div&gt;&lt;div&gt;kw_url2 w=5&lt;/div&gt;&lt;div&gt;kw_url3 w=5&lt;/div&gt;&lt;div&gt;kw_url4 w=3&lt;/div&gt;&lt;div&gt;url1_pos1 w=2&lt;/div&gt;&lt;div&gt;url1_pos2 w=2&lt;/div&gt;&lt;div&gt;url1_pos3 w=2&lt;/div&gt;&lt;div&gt;url2_pos1 w=3&lt;/div&gt;&lt;div&gt;url2_pos2 w=3&lt;/div&gt;&lt;div&gt;url2_pos3 w=3&lt;/div&gt;&lt;div&gt;then:&lt;/div&gt;&lt;div&gt;url1_pos1=kw_url1&lt;/div&gt;&lt;div&gt;url1_pos2=kw_url2&lt;/div&gt;&lt;div&gt;url1_pos3=kw_url3&lt;/div&gt;&lt;div&gt;url2_pos1=kw_url3&lt;/div&gt;&lt;div&gt;url2_pos2=kw_url4&lt;/div&gt;&lt;div&gt;url2_pos3=kw_url2&lt;/div&gt;" style="text;html=1;align=left;verticalAlign=middle;resizable=0;points=[];autosize=1;strokeColor=none;fillColor=none;" parent="1" vertex="1">
          <mxGeometry x="760" y="1085" width="120" height="270" as="geometry" />
        </mxCell>
        <mxCell id="7Xz4EL3dT2qsOErIy4jS-504" value="Google Ads Data(CSV/Excel)" style="ellipse;whiteSpace=wrap;html=1;fillColor=#f8cecc;strokeColor=#b85450;" parent="1" vertex="1">
          <mxGeometry x="310" y="440" width="120" height="80" as="geometry" />
        </mxCell>
        <mxCell id="7Xz4EL3dT2qsOErIy4jS-505" value="Call BA&#39;s API&lt;div&gt;(Token, Price)&lt;/div&gt;" style="ellipse;whiteSpace=wrap;html=1;fillColor=#f8cecc;strokeColor=#b85450;" parent="1" vertex="1">
          <mxGeometry x="315" y="640" width="120" height="80" as="geometry" />
        </mxCell>
        <mxCell id="7Xz4EL3dT2qsOErIy4jS-513" value="&lt;font color=&quot;#ffb570&quot;&gt;Future Feature&lt;/font&gt;" style="text;html=1;align=center;verticalAlign=middle;resizable=0;points=[];autosize=1;strokeColor=none;fillColor=none;" parent="1" vertex="1">
          <mxGeometry x="-325" y="-80" width="100" height="30" as="geometry" />
        </mxCell>
        <mxCell id="7Xz4EL3dT2qsOErIy4jS-515" value="Need Support" style="ellipse;whiteSpace=wrap;html=1;fillColor=#f8cecc;strokeColor=#b85450;" parent="1" vertex="1">
          <mxGeometry x="-160" y="-80" width="120" height="80" as="geometry" />
        </mxCell>
        <mxCell id="8toNQD8QST1rocxcnVbk-80" style="edgeStyle=orthogonalEdgeStyle;rounded=0;orthogonalLoop=1;jettySize=auto;html=1;exitX=0.75;exitY=1;exitDx=0;exitDy=0;entryX=0.5;entryY=0;entryDx=0;entryDy=0;" parent="1" source="7Xz4EL3dT2qsOErIy4jS-516" target="7Xz4EL3dT2qsOErIy4jS-517" edge="1">
          <mxGeometry relative="1" as="geometry" />
        </mxCell>
        <mxCell id="8toNQD8QST1rocxcnVbk-81" style="edgeStyle=orthogonalEdgeStyle;rounded=0;orthogonalLoop=1;jettySize=auto;html=1;exitX=0.75;exitY=1;exitDx=0;exitDy=0;entryX=0.5;entryY=0;entryDx=0;entryDy=0;" parent="1" source="7Xz4EL3dT2qsOErIy4jS-516" target="7Xz4EL3dT2qsOErIy4jS-518" edge="1">
          <mxGeometry relative="1" as="geometry" />
        </mxCell>
        <mxCell id="8toNQD8QST1rocxcnVbk-82" style="edgeStyle=orthogonalEdgeStyle;rounded=0;orthogonalLoop=1;jettySize=auto;html=1;exitX=0.75;exitY=1;exitDx=0;exitDy=0;" parent="1" source="7Xz4EL3dT2qsOErIy4jS-516" target="7Xz4EL3dT2qsOErIy4jS-519" edge="1">
          <mxGeometry relative="1" as="geometry" />
        </mxCell>
        <mxCell id="8toNQD8QST1rocxcnVbk-83" style="edgeStyle=orthogonalEdgeStyle;rounded=0;orthogonalLoop=1;jettySize=auto;html=1;exitX=0.75;exitY=1;exitDx=0;exitDy=0;" parent="1" source="7Xz4EL3dT2qsOErIy4jS-516" target="7Xz4EL3dT2qsOErIy4jS-520" edge="1">
          <mxGeometry relative="1" as="geometry" />
        </mxCell>
        <mxCell id="8toNQD8QST1rocxcnVbk-84" style="edgeStyle=orthogonalEdgeStyle;rounded=0;orthogonalLoop=1;jettySize=auto;html=1;exitX=0.75;exitY=1;exitDx=0;exitDy=0;" parent="1" source="7Xz4EL3dT2qsOErIy4jS-516" target="7Xz4EL3dT2qsOErIy4jS-522" edge="1">
          <mxGeometry relative="1" as="geometry" />
        </mxCell>
        <mxCell id="8toNQD8QST1rocxcnVbk-85" style="edgeStyle=orthogonalEdgeStyle;rounded=0;orthogonalLoop=1;jettySize=auto;html=1;exitX=0.75;exitY=1;exitDx=0;exitDy=0;" parent="1" source="7Xz4EL3dT2qsOErIy4jS-516" target="7Xz4EL3dT2qsOErIy4jS-521" edge="1">
          <mxGeometry relative="1" as="geometry" />
        </mxCell>
        <mxCell id="8toNQD8QST1rocxcnVbk-92" value="Visit" style="edgeLabel;html=1;align=center;verticalAlign=middle;resizable=0;points=[];" parent="8toNQD8QST1rocxcnVbk-85" vertex="1" connectable="0">
          <mxGeometry x="-0.9534" y="1" relative="1" as="geometry">
            <mxPoint as="offset" />
          </mxGeometry>
        </mxCell>
        <mxCell id="8toNQD8QST1rocxcnVbk-99" style="edgeStyle=orthogonalEdgeStyle;rounded=0;orthogonalLoop=1;jettySize=auto;html=1;exitX=0.25;exitY=1;exitDx=0;exitDy=0;entryX=0.5;entryY=0;entryDx=0;entryDy=0;" parent="1" source="7Xz4EL3dT2qsOErIy4jS-516" target="8toNQD8QST1rocxcnVbk-98" edge="1">
          <mxGeometry relative="1" as="geometry">
            <Array as="points">
              <mxPoint x="1844" y="180" />
              <mxPoint x="1804" y="180" />
            </Array>
          </mxGeometry>
        </mxCell>
        <mxCell id="8toNQD8QST1rocxcnVbk-100" value="Visit" style="edgeLabel;html=1;align=center;verticalAlign=middle;resizable=0;points=[];" parent="8toNQD8QST1rocxcnVbk-99" vertex="1" connectable="0">
          <mxGeometry x="-0.082" y="2" relative="1" as="geometry">
            <mxPoint y="-1" as="offset" />
          </mxGeometry>
        </mxCell>
        <mxCell id="7Xz4EL3dT2qsOErIy4jS-516" value="User" style="rounded=1;whiteSpace=wrap;html=1;" parent="1" vertex="1">
          <mxGeometry x="1814" y="120" width="120" height="40" as="geometry" />
        </mxCell>
        <mxCell id="7Xz4EL3dT2qsOErIy4jS-517" value="CSERP" style="rounded=1;whiteSpace=wrap;html=1;" parent="1" vertex="1">
          <mxGeometry x="1884" y="240" width="120" height="40" as="geometry" />
        </mxCell>
        <mxCell id="7Xz4EL3dT2qsOErIy4jS-518" value="PSERP" style="rounded=1;whiteSpace=wrap;html=1;" parent="1" vertex="1">
          <mxGeometry x="2024" y="240" width="120" height="40" as="geometry" />
        </mxCell>
        <mxCell id="7Xz4EL3dT2qsOErIy4jS-519" value="PDP" style="rounded=1;whiteSpace=wrap;html=1;" parent="1" vertex="1">
          <mxGeometry x="2164" y="240" width="120" height="40" as="geometry" />
        </mxCell>
        <mxCell id="7Xz4EL3dT2qsOErIy4jS-520" value="CPP" style="rounded=1;whiteSpace=wrap;html=1;" parent="1" vertex="1">
          <mxGeometry x="2304" y="240" width="120" height="40" as="geometry" />
        </mxCell>
        <mxCell id="7Xz4EL3dT2qsOErIy4jS-521" value="Showroom" style="rounded=1;whiteSpace=wrap;html=1;" parent="1" vertex="1">
          <mxGeometry x="2584" y="240" width="119" height="40" as="geometry" />
        </mxCell>
        <mxCell id="7Xz4EL3dT2qsOErIy4jS-522" value="HomePage" style="rounded=1;whiteSpace=wrap;html=1;" parent="1" vertex="1">
          <mxGeometry x="2445" y="240" width="120" height="40" as="geometry" />
        </mxCell>
        <mxCell id="8toNQD8QST1rocxcnVbk-71" style="edgeStyle=orthogonalEdgeStyle;rounded=0;orthogonalLoop=1;jettySize=auto;html=1;exitX=0.5;exitY=1;exitDx=0;exitDy=0;" parent="1" source="7Xz4EL3dT2qsOErIy4jS-523" target="8toNQD8QST1rocxcnVbk-68" edge="1">
          <mxGeometry relative="1" as="geometry" />
        </mxCell>
        <mxCell id="8toNQD8QST1rocxcnVbk-74" value="Extract Keywords by Article" style="edgeLabel;html=1;align=center;verticalAlign=middle;resizable=0;points=[];" parent="8toNQD8QST1rocxcnVbk-71" vertex="1" connectable="0">
          <mxGeometry x="-0.075" relative="1" as="geometry">
            <mxPoint as="offset" />
          </mxGeometry>
        </mxCell>
        <mxCell id="7Xz4EL3dT2qsOErIy4jS-523" value="Inside-Business" style="rounded=1;whiteSpace=wrap;html=1;" parent="1" vertex="1">
          <mxGeometry x="1281" y="120" width="120" height="40" as="geometry" />
        </mxCell>
        <mxCell id="8toNQD8QST1rocxcnVbk-67" value="&lt;b&gt;Keyword &amp;amp; Internal Link Generate&lt;/b&gt;" style="text;html=1;align=left;verticalAlign=middle;resizable=0;points=[];autosize=1;strokeColor=none;fillColor=none;" parent="1" vertex="1">
          <mxGeometry x="-360" y="50" width="220" height="30" as="geometry" />
        </mxCell>
        <mxCell id="8toNQD8QST1rocxcnVbk-72" value="Generate Keyword Article Mapping" style="edgeStyle=orthogonalEdgeStyle;rounded=0;orthogonalLoop=1;jettySize=auto;html=1;exitX=0.5;exitY=1;exitDx=0;exitDy=0;entryX=0.5;entryY=0;entryDx=0;entryDy=0;" parent="1" source="8toNQD8QST1rocxcnVbk-68" target="8toNQD8QST1rocxcnVbk-69" edge="1">
          <mxGeometry relative="1" as="geometry" />
        </mxCell>
        <mxCell id="8toNQD8QST1rocxcnVbk-68" value="Keywords Sum by Article" style="rounded=1;whiteSpace=wrap;html=1;" parent="1" vertex="1">
          <mxGeometry x="1281" y="240" width="120" height="40" as="geometry" />
        </mxCell>
        <mxCell id="8toNQD8QST1rocxcnVbk-73" style="edgeStyle=orthogonalEdgeStyle;rounded=0;orthogonalLoop=1;jettySize=auto;html=1;exitX=0.5;exitY=1;exitDx=0;exitDy=0;entryX=0.5;entryY=0;entryDx=0;entryDy=0;" parent="1" source="8toNQD8QST1rocxcnVbk-69" target="8toNQD8QST1rocxcnVbk-70" edge="1">
          <mxGeometry relative="1" as="geometry" />
        </mxCell>
        <mxCell id="8toNQD8QST1rocxcnVbk-75" value="Match Keyword" style="edgeLabel;html=1;align=center;verticalAlign=middle;resizable=0;points=[];" parent="8toNQD8QST1rocxcnVbk-73" vertex="1" connectable="0">
          <mxGeometry x="-0.175" y="1" relative="1" as="geometry">
            <mxPoint as="offset" />
          </mxGeometry>
        </mxCell>
        <mxCell id="8toNQD8QST1rocxcnVbk-69" value="Keyword vs Article" style="rounded=1;whiteSpace=wrap;html=1;" parent="1" vertex="1">
          <mxGeometry x="1281" y="360" width="120" height="40" as="geometry" />
        </mxCell>
        <mxCell id="zXx96FTG_lg0kcmIFyQ1-131" style="edgeStyle=orthogonalEdgeStyle;rounded=0;orthogonalLoop=1;jettySize=auto;html=1;exitX=1;exitY=0.5;exitDx=0;exitDy=0;entryX=0;entryY=0.5;entryDx=0;entryDy=0;" edge="1" parent="1" source="8toNQD8QST1rocxcnVbk-70" target="8toNQD8QST1rocxcnVbk-101">
          <mxGeometry relative="1" as="geometry">
            <Array as="points">
              <mxPoint x="1600" y="500" />
              <mxPoint x="1600" y="380" />
            </Array>
          </mxGeometry>
        </mxCell>
        <mxCell id="8toNQD8QST1rocxcnVbk-70" value="Keyword vs Article vs Sales Keyword Url" style="rounded=1;whiteSpace=wrap;html=1;" parent="1" vertex="1">
          <mxGeometry x="1281" y="480" width="120" height="40" as="geometry" />
        </mxCell>
        <mxCell id="8toNQD8QST1rocxcnVbk-78" value="&lt;b&gt;&lt;font style=&quot;color: rgb(255, 181, 112);&quot;&gt;Inside-Business Internal Link Generate&lt;/font&gt;&lt;/b&gt;" style="text;html=1;align=left;verticalAlign=middle;resizable=0;points=[];autosize=1;strokeColor=none;fillColor=none;" parent="1" vertex="1">
          <mxGeometry x="1241" y="50" width="250" height="30" as="geometry" />
        </mxCell>
        <mxCell id="8toNQD8QST1rocxcnVbk-79" value="Display Keyword vs Internal Link Url" style="rounded=1;whiteSpace=wrap;html=1;" parent="1" vertex="1">
          <mxGeometry x="1884" y="360" width="120" height="40" as="geometry" />
        </mxCell>
        <mxCell id="8toNQD8QST1rocxcnVbk-102" style="edgeStyle=orthogonalEdgeStyle;rounded=0;orthogonalLoop=1;jettySize=auto;html=1;exitX=0.5;exitY=1;exitDx=0;exitDy=0;entryX=0.5;entryY=0;entryDx=0;entryDy=0;" parent="1" source="8toNQD8QST1rocxcnVbk-98" target="8toNQD8QST1rocxcnVbk-101" edge="1">
          <mxGeometry relative="1" as="geometry" />
        </mxCell>
        <mxCell id="8toNQD8QST1rocxcnVbk-103" value="Display in Article as Ancher Text" style="edgeLabel;html=1;align=center;verticalAlign=middle;resizable=0;points=[];" parent="8toNQD8QST1rocxcnVbk-102" vertex="1" connectable="0">
          <mxGeometry x="0.05" y="-3" relative="1" as="geometry">
            <mxPoint as="offset" />
          </mxGeometry>
        </mxCell>
        <mxCell id="8toNQD8QST1rocxcnVbk-98" value="Inside-Business" style="rounded=1;whiteSpace=wrap;html=1;" parent="1" vertex="1">
          <mxGeometry x="1744" y="240" width="120" height="40" as="geometry" />
        </mxCell>
        <mxCell id="8toNQD8QST1rocxcnVbk-101" value="Display Keyword&amp;nbsp;vs Internal Link Url" style="rounded=1;whiteSpace=wrap;html=1;fillColor=#ffe6cc;strokeColor=#d79b00;" parent="1" vertex="1">
          <mxGeometry x="1744" y="360" width="120" height="40" as="geometry" />
        </mxCell>
        <mxCell id="8toNQD8QST1rocxcnVbk-107" value="&lt;b&gt;User Visit&lt;/b&gt;" style="text;html=1;align=left;verticalAlign=middle;resizable=0;points=[];autosize=1;strokeColor=none;fillColor=none;" parent="1" vertex="1">
          <mxGeometry x="1654" y="50" width="80" height="30" as="geometry" />
        </mxCell>
        <mxCell id="8toNQD8QST1rocxcnVbk-109" value="&lt;span style=&quot;text-wrap-mode: nowrap;&quot;&gt;&lt;font style=&quot;color: rgb(0, 0, 0);&quot;&gt;Future Feature&lt;/font&gt;&lt;/span&gt;" style="rounded=1;whiteSpace=wrap;html=1;fillColor=#ffe6cc;strokeColor=#d79b00;" parent="1" vertex="1">
          <mxGeometry x="-320" y="-40" width="120" height="40" as="geometry" />
        </mxCell>
        <mxCell id="8toNQD8QST1rocxcnVbk-110" value="Inside-Business Data" style="ellipse;whiteSpace=wrap;html=1;fillColor=#f8cecc;strokeColor=#b85450;" parent="1" vertex="1">
          <mxGeometry x="1431" y="160" width="120" height="80" as="geometry" />
        </mxCell>
        <mxCell id="8toNQD8QST1rocxcnVbk-113" value="Inside-Business Internal Link Get &amp;amp; Display" style="ellipse;whiteSpace=wrap;html=1;fillColor=#f8cecc;strokeColor=#b85450;" parent="1" vertex="1">
          <mxGeometry x="1664" y="410" width="120" height="80" as="geometry" />
        </mxCell>
        <mxCell id="8toNQD8QST1rocxcnVbk-114" value="SERP,PDP,&lt;div&gt;CPP,&lt;span style=&quot;background-color: transparent; color: light-dark(rgb(0, 0, 0), rgb(255, 255, 255));&quot;&gt;HomePage&amp;nbsp;&lt;/span&gt;&lt;div&gt;Internal Link Get &amp;amp;&amp;nbsp;&lt;/div&gt;&lt;div&gt;Display&lt;/div&gt;&lt;/div&gt;" style="ellipse;whiteSpace=wrap;html=1;fillColor=#f8cecc;strokeColor=#b85450;" parent="1" vertex="1">
          <mxGeometry x="2034" y="340" width="120" height="80" as="geometry" />
        </mxCell>
        <mxCell id="zXx96FTG_lg0kcmIFyQ1-2" value="" style="shape=table;startSize=0;container=1;collapsible=0;childLayout=tableLayout;fontSize=16;" vertex="1" parent="1">
          <mxGeometry x="-320" y="930" width="360" height="80" as="geometry" />
        </mxCell>
        <mxCell id="zXx96FTG_lg0kcmIFyQ1-3" value="" style="shape=tableRow;horizontal=0;startSize=0;swimlaneHead=0;swimlaneBody=0;strokeColor=inherit;top=0;left=0;bottom=0;right=0;collapsible=0;dropTarget=0;fillColor=none;points=[[0,0.5],[1,0.5]];portConstraint=eastwest;fontSize=16;" vertex="1" parent="zXx96FTG_lg0kcmIFyQ1-2">
          <mxGeometry width="360" height="20" as="geometry" />
        </mxCell>
        <mxCell id="zXx96FTG_lg0kcmIFyQ1-4" value="kw1" style="shape=partialRectangle;html=1;whiteSpace=wrap;connectable=0;strokeColor=inherit;overflow=hidden;fillColor=none;top=0;left=0;bottom=0;right=0;pointerEvents=1;fontSize=10;" vertex="1" parent="zXx96FTG_lg0kcmIFyQ1-3">
          <mxGeometry width="29" height="20" as="geometry">
            <mxRectangle width="29" height="20" as="alternateBounds" />
          </mxGeometry>
        </mxCell>
        <mxCell id="zXx96FTG_lg0kcmIFyQ1-5" value="kw1 ex1" style="shape=partialRectangle;html=1;whiteSpace=wrap;connectable=0;strokeColor=inherit;overflow=hidden;fillColor=none;top=0;left=0;bottom=0;right=0;pointerEvents=1;fontSize=10;" vertex="1" parent="zXx96FTG_lg0kcmIFyQ1-3">
          <mxGeometry x="29" width="41" height="20" as="geometry">
            <mxRectangle width="41" height="20" as="alternateBounds" />
          </mxGeometry>
        </mxCell>
        <mxCell id="zXx96FTG_lg0kcmIFyQ1-6" value="w1" style="shape=partialRectangle;html=1;whiteSpace=wrap;connectable=0;strokeColor=inherit;overflow=hidden;fillColor=none;top=0;left=0;bottom=0;right=0;pointerEvents=1;fontSize=10;" vertex="1" parent="zXx96FTG_lg0kcmIFyQ1-3">
          <mxGeometry x="70" width="30" height="20" as="geometry">
            <mxRectangle width="30" height="20" as="alternateBounds" />
          </mxGeometry>
        </mxCell>
        <mxCell id="zXx96FTG_lg0kcmIFyQ1-7" value="trends1" style="shape=partialRectangle;html=1;whiteSpace=wrap;connectable=0;strokeColor=inherit;overflow=hidden;fillColor=none;top=0;left=0;bottom=0;right=0;pointerEvents=1;fontSize=10;" vertex="1" parent="zXx96FTG_lg0kcmIFyQ1-3">
          <mxGeometry x="100" width="40" height="20" as="geometry">
            <mxRectangle width="40" height="20" as="alternateBounds" />
          </mxGeometry>
        </mxCell>
        <mxCell id="zXx96FTG_lg0kcmIFyQ1-8" value="competition1" style="shape=partialRectangle;html=1;whiteSpace=wrap;connectable=0;strokeColor=inherit;overflow=hidden;fillColor=none;top=0;left=0;bottom=0;right=0;pointerEvents=1;fontSize=10;" vertex="1" parent="zXx96FTG_lg0kcmIFyQ1-3">
          <mxGeometry x="140" width="60" height="20" as="geometry">
            <mxRectangle width="60" height="20" as="alternateBounds" />
          </mxGeometry>
        </mxCell>
        <mxCell id="zXx96FTG_lg0kcmIFyQ1-9" value="rank1" style="shape=partialRectangle;html=1;whiteSpace=wrap;connectable=0;strokeColor=inherit;overflow=hidden;fillColor=none;top=0;left=0;bottom=0;right=0;pointerEvents=1;fontSize=10;" vertex="1" parent="zXx96FTG_lg0kcmIFyQ1-3">
          <mxGeometry x="200" width="40" height="20" as="geometry">
            <mxRectangle width="40" height="20" as="alternateBounds" />
          </mxGeometry>
        </mxCell>
        <mxCell id="zXx96FTG_lg0kcmIFyQ1-10" style="shape=partialRectangle;html=1;whiteSpace=wrap;connectable=0;strokeColor=inherit;overflow=hidden;fillColor=none;top=0;left=0;bottom=0;right=0;pointerEvents=1;fontSize=10;fontColor=#FFB570;" vertex="1" parent="zXx96FTG_lg0kcmIFyQ1-3">
          <mxGeometry x="240" width="30" height="20" as="geometry">
            <mxRectangle width="30" height="20" as="alternateBounds" />
          </mxGeometry>
        </mxCell>
        <mxCell id="zXx96FTG_lg0kcmIFyQ1-11" value="kw_url1" style="shape=partialRectangle;html=1;whiteSpace=wrap;connectable=0;strokeColor=inherit;overflow=hidden;fillColor=none;top=0;left=0;bottom=0;right=0;pointerEvents=1;fontSize=10;fontColor=#000000;" vertex="1" parent="zXx96FTG_lg0kcmIFyQ1-3">
          <mxGeometry x="270" width="40" height="20" as="geometry">
            <mxRectangle width="40" height="20" as="alternateBounds" />
          </mxGeometry>
        </mxCell>
        <mxCell id="zXx96FTG_lg0kcmIFyQ1-39" value="total w1" style="shape=partialRectangle;html=1;whiteSpace=wrap;connectable=0;strokeColor=inherit;overflow=hidden;fillColor=none;top=0;left=0;bottom=0;right=0;pointerEvents=1;fontSize=10;fontColor=#000000;" vertex="1" parent="zXx96FTG_lg0kcmIFyQ1-3">
          <mxGeometry x="310" width="50" height="20" as="geometry">
            <mxRectangle width="50" height="20" as="alternateBounds" />
          </mxGeometry>
        </mxCell>
        <mxCell id="zXx96FTG_lg0kcmIFyQ1-12" style="shape=tableRow;horizontal=0;startSize=0;swimlaneHead=0;swimlaneBody=0;strokeColor=inherit;top=0;left=0;bottom=0;right=0;collapsible=0;dropTarget=0;fillColor=none;points=[[0,0.5],[1,0.5]];portConstraint=eastwest;fontSize=16;" vertex="1" parent="zXx96FTG_lg0kcmIFyQ1-2">
          <mxGeometry y="20" width="360" height="20" as="geometry" />
        </mxCell>
        <mxCell id="zXx96FTG_lg0kcmIFyQ1-13" value="kw1" style="shape=partialRectangle;html=1;whiteSpace=wrap;connectable=0;strokeColor=inherit;overflow=hidden;fillColor=none;top=0;left=0;bottom=0;right=0;pointerEvents=1;fontSize=10;" vertex="1" parent="zXx96FTG_lg0kcmIFyQ1-12">
          <mxGeometry width="29" height="20" as="geometry">
            <mxRectangle width="29" height="20" as="alternateBounds" />
          </mxGeometry>
        </mxCell>
        <mxCell id="zXx96FTG_lg0kcmIFyQ1-14" value="kw1 ex2" style="shape=partialRectangle;html=1;whiteSpace=wrap;connectable=0;strokeColor=inherit;overflow=hidden;fillColor=none;top=0;left=0;bottom=0;right=0;pointerEvents=1;fontSize=10;" vertex="1" parent="zXx96FTG_lg0kcmIFyQ1-12">
          <mxGeometry x="29" width="41" height="20" as="geometry">
            <mxRectangle width="41" height="20" as="alternateBounds" />
          </mxGeometry>
        </mxCell>
        <mxCell id="zXx96FTG_lg0kcmIFyQ1-15" value="w1" style="shape=partialRectangle;html=1;whiteSpace=wrap;connectable=0;strokeColor=inherit;overflow=hidden;fillColor=none;top=0;left=0;bottom=0;right=0;pointerEvents=1;fontSize=10;" vertex="1" parent="zXx96FTG_lg0kcmIFyQ1-12">
          <mxGeometry x="70" width="30" height="20" as="geometry">
            <mxRectangle width="30" height="20" as="alternateBounds" />
          </mxGeometry>
        </mxCell>
        <mxCell id="zXx96FTG_lg0kcmIFyQ1-16" value="trends2" style="shape=partialRectangle;html=1;whiteSpace=wrap;connectable=0;strokeColor=inherit;overflow=hidden;fillColor=none;top=0;left=0;bottom=0;right=0;pointerEvents=1;fontSize=10;" vertex="1" parent="zXx96FTG_lg0kcmIFyQ1-12">
          <mxGeometry x="100" width="40" height="20" as="geometry">
            <mxRectangle width="40" height="20" as="alternateBounds" />
          </mxGeometry>
        </mxCell>
        <mxCell id="zXx96FTG_lg0kcmIFyQ1-17" value="competition2" style="shape=partialRectangle;html=1;whiteSpace=wrap;connectable=0;strokeColor=inherit;overflow=hidden;fillColor=none;top=0;left=0;bottom=0;right=0;pointerEvents=1;fontSize=10;" vertex="1" parent="zXx96FTG_lg0kcmIFyQ1-12">
          <mxGeometry x="140" width="60" height="20" as="geometry">
            <mxRectangle width="60" height="20" as="alternateBounds" />
          </mxGeometry>
        </mxCell>
        <mxCell id="zXx96FTG_lg0kcmIFyQ1-18" value="rank2" style="shape=partialRectangle;html=1;whiteSpace=wrap;connectable=0;strokeColor=inherit;overflow=hidden;fillColor=none;top=0;left=0;bottom=0;right=0;pointerEvents=1;fontSize=10;" vertex="1" parent="zXx96FTG_lg0kcmIFyQ1-12">
          <mxGeometry x="200" width="40" height="20" as="geometry">
            <mxRectangle width="40" height="20" as="alternateBounds" />
          </mxGeometry>
        </mxCell>
        <mxCell id="zXx96FTG_lg0kcmIFyQ1-19" value="cost1" style="shape=partialRectangle;html=1;whiteSpace=wrap;connectable=0;strokeColor=inherit;overflow=hidden;fillColor=none;top=0;left=0;bottom=0;right=0;pointerEvents=1;fontSize=10;fontColor=#FFB570;" vertex="1" parent="zXx96FTG_lg0kcmIFyQ1-12">
          <mxGeometry x="240" width="30" height="20" as="geometry">
            <mxRectangle width="30" height="20" as="alternateBounds" />
          </mxGeometry>
        </mxCell>
        <mxCell id="zXx96FTG_lg0kcmIFyQ1-20" value="kw_url2" style="shape=partialRectangle;html=1;whiteSpace=wrap;connectable=0;strokeColor=inherit;overflow=hidden;fillColor=none;top=0;left=0;bottom=0;right=0;pointerEvents=1;fontSize=10;fontColor=#000000;" vertex="1" parent="zXx96FTG_lg0kcmIFyQ1-12">
          <mxGeometry x="270" width="40" height="20" as="geometry">
            <mxRectangle width="40" height="20" as="alternateBounds" />
          </mxGeometry>
        </mxCell>
        <mxCell id="zXx96FTG_lg0kcmIFyQ1-40" value="total w2" style="shape=partialRectangle;html=1;whiteSpace=wrap;connectable=0;strokeColor=inherit;overflow=hidden;fillColor=none;top=0;left=0;bottom=0;right=0;pointerEvents=1;fontSize=10;fontColor=#000000;" vertex="1" parent="zXx96FTG_lg0kcmIFyQ1-12">
          <mxGeometry x="310" width="50" height="20" as="geometry">
            <mxRectangle width="50" height="20" as="alternateBounds" />
          </mxGeometry>
        </mxCell>
        <mxCell id="zXx96FTG_lg0kcmIFyQ1-21" value="" style="shape=tableRow;horizontal=0;startSize=0;swimlaneHead=0;swimlaneBody=0;strokeColor=inherit;top=0;left=0;bottom=0;right=0;collapsible=0;dropTarget=0;fillColor=none;points=[[0,0.5],[1,0.5]];portConstraint=eastwest;fontSize=16;" vertex="1" parent="zXx96FTG_lg0kcmIFyQ1-2">
          <mxGeometry y="40" width="360" height="20" as="geometry" />
        </mxCell>
        <mxCell id="zXx96FTG_lg0kcmIFyQ1-22" value="kw2" style="shape=partialRectangle;html=1;whiteSpace=wrap;connectable=0;strokeColor=inherit;overflow=hidden;fillColor=none;top=0;left=0;bottom=0;right=0;pointerEvents=1;fontSize=10;" vertex="1" parent="zXx96FTG_lg0kcmIFyQ1-21">
          <mxGeometry width="29" height="20" as="geometry">
            <mxRectangle width="29" height="20" as="alternateBounds" />
          </mxGeometry>
        </mxCell>
        <mxCell id="zXx96FTG_lg0kcmIFyQ1-23" value="kw2 ex1" style="shape=partialRectangle;html=1;whiteSpace=wrap;connectable=0;strokeColor=inherit;overflow=hidden;fillColor=none;top=0;left=0;bottom=0;right=0;pointerEvents=1;fontSize=10;" vertex="1" parent="zXx96FTG_lg0kcmIFyQ1-21">
          <mxGeometry x="29" width="41" height="20" as="geometry">
            <mxRectangle width="41" height="20" as="alternateBounds" />
          </mxGeometry>
        </mxCell>
        <mxCell id="zXx96FTG_lg0kcmIFyQ1-24" value="w2" style="shape=partialRectangle;html=1;whiteSpace=wrap;connectable=0;strokeColor=inherit;overflow=hidden;fillColor=none;top=0;left=0;bottom=0;right=0;pointerEvents=1;fontSize=10;" vertex="1" parent="zXx96FTG_lg0kcmIFyQ1-21">
          <mxGeometry x="70" width="30" height="20" as="geometry">
            <mxRectangle width="30" height="20" as="alternateBounds" />
          </mxGeometry>
        </mxCell>
        <mxCell id="zXx96FTG_lg0kcmIFyQ1-25" value="trends3" style="shape=partialRectangle;html=1;whiteSpace=wrap;connectable=0;strokeColor=inherit;overflow=hidden;fillColor=none;top=0;left=0;bottom=0;right=0;pointerEvents=1;fontSize=10;" vertex="1" parent="zXx96FTG_lg0kcmIFyQ1-21">
          <mxGeometry x="100" width="40" height="20" as="geometry">
            <mxRectangle width="40" height="20" as="alternateBounds" />
          </mxGeometry>
        </mxCell>
        <mxCell id="zXx96FTG_lg0kcmIFyQ1-26" value="competition3" style="shape=partialRectangle;html=1;whiteSpace=wrap;connectable=0;strokeColor=inherit;overflow=hidden;fillColor=none;top=0;left=0;bottom=0;right=0;pointerEvents=1;fontSize=10;" vertex="1" parent="zXx96FTG_lg0kcmIFyQ1-21">
          <mxGeometry x="140" width="60" height="20" as="geometry">
            <mxRectangle width="60" height="20" as="alternateBounds" />
          </mxGeometry>
        </mxCell>
        <mxCell id="zXx96FTG_lg0kcmIFyQ1-27" value="rank3" style="shape=partialRectangle;html=1;whiteSpace=wrap;connectable=0;strokeColor=inherit;overflow=hidden;fillColor=none;top=0;left=0;bottom=0;right=0;pointerEvents=1;fontSize=10;" vertex="1" parent="zXx96FTG_lg0kcmIFyQ1-21">
          <mxGeometry x="200" width="40" height="20" as="geometry">
            <mxRectangle width="40" height="20" as="alternateBounds" />
          </mxGeometry>
        </mxCell>
        <mxCell id="zXx96FTG_lg0kcmIFyQ1-28" style="shape=partialRectangle;html=1;whiteSpace=wrap;connectable=0;strokeColor=inherit;overflow=hidden;fillColor=none;top=0;left=0;bottom=0;right=0;pointerEvents=1;fontSize=10;fontColor=#FFB570;" vertex="1" parent="zXx96FTG_lg0kcmIFyQ1-21">
          <mxGeometry x="240" width="30" height="20" as="geometry">
            <mxRectangle width="30" height="20" as="alternateBounds" />
          </mxGeometry>
        </mxCell>
        <mxCell id="zXx96FTG_lg0kcmIFyQ1-29" value="kw_url3" style="shape=partialRectangle;html=1;whiteSpace=wrap;connectable=0;strokeColor=inherit;overflow=hidden;fillColor=none;top=0;left=0;bottom=0;right=0;pointerEvents=1;fontSize=10;fontColor=#000000;" vertex="1" parent="zXx96FTG_lg0kcmIFyQ1-21">
          <mxGeometry x="270" width="40" height="20" as="geometry">
            <mxRectangle width="40" height="20" as="alternateBounds" />
          </mxGeometry>
        </mxCell>
        <mxCell id="zXx96FTG_lg0kcmIFyQ1-41" value="total w3" style="shape=partialRectangle;html=1;whiteSpace=wrap;connectable=0;strokeColor=inherit;overflow=hidden;fillColor=none;top=0;left=0;bottom=0;right=0;pointerEvents=1;fontSize=10;fontColor=#000000;" vertex="1" parent="zXx96FTG_lg0kcmIFyQ1-21">
          <mxGeometry x="310" width="50" height="20" as="geometry">
            <mxRectangle width="50" height="20" as="alternateBounds" />
          </mxGeometry>
        </mxCell>
        <mxCell id="zXx96FTG_lg0kcmIFyQ1-30" style="shape=tableRow;horizontal=0;startSize=0;swimlaneHead=0;swimlaneBody=0;strokeColor=inherit;top=0;left=0;bottom=0;right=0;collapsible=0;dropTarget=0;fillColor=none;points=[[0,0.5],[1,0.5]];portConstraint=eastwest;fontSize=16;" vertex="1" parent="zXx96FTG_lg0kcmIFyQ1-2">
          <mxGeometry y="60" width="360" height="20" as="geometry" />
        </mxCell>
        <mxCell id="zXx96FTG_lg0kcmIFyQ1-31" value="kw2" style="shape=partialRectangle;html=1;whiteSpace=wrap;connectable=0;strokeColor=inherit;overflow=hidden;fillColor=none;top=0;left=0;bottom=0;right=0;pointerEvents=1;fontSize=10;" vertex="1" parent="zXx96FTG_lg0kcmIFyQ1-30">
          <mxGeometry width="29" height="20" as="geometry">
            <mxRectangle width="29" height="20" as="alternateBounds" />
          </mxGeometry>
        </mxCell>
        <mxCell id="zXx96FTG_lg0kcmIFyQ1-32" value="kw2 ex2" style="shape=partialRectangle;html=1;whiteSpace=wrap;connectable=0;strokeColor=inherit;overflow=hidden;fillColor=none;top=0;left=0;bottom=0;right=0;pointerEvents=1;fontSize=10;" vertex="1" parent="zXx96FTG_lg0kcmIFyQ1-30">
          <mxGeometry x="29" width="41" height="20" as="geometry">
            <mxRectangle width="41" height="20" as="alternateBounds" />
          </mxGeometry>
        </mxCell>
        <mxCell id="zXx96FTG_lg0kcmIFyQ1-33" value="w2" style="shape=partialRectangle;html=1;whiteSpace=wrap;connectable=0;strokeColor=inherit;overflow=hidden;fillColor=none;top=0;left=0;bottom=0;right=0;pointerEvents=1;fontSize=10;" vertex="1" parent="zXx96FTG_lg0kcmIFyQ1-30">
          <mxGeometry x="70" width="30" height="20" as="geometry">
            <mxRectangle width="30" height="20" as="alternateBounds" />
          </mxGeometry>
        </mxCell>
        <mxCell id="zXx96FTG_lg0kcmIFyQ1-34" value="trends4" style="shape=partialRectangle;html=1;whiteSpace=wrap;connectable=0;strokeColor=inherit;overflow=hidden;fillColor=none;top=0;left=0;bottom=0;right=0;pointerEvents=1;fontSize=10;" vertex="1" parent="zXx96FTG_lg0kcmIFyQ1-30">
          <mxGeometry x="100" width="40" height="20" as="geometry">
            <mxRectangle width="40" height="20" as="alternateBounds" />
          </mxGeometry>
        </mxCell>
        <mxCell id="zXx96FTG_lg0kcmIFyQ1-35" value="competition4" style="shape=partialRectangle;html=1;whiteSpace=wrap;connectable=0;strokeColor=inherit;overflow=hidden;fillColor=none;top=0;left=0;bottom=0;right=0;pointerEvents=1;fontSize=10;" vertex="1" parent="zXx96FTG_lg0kcmIFyQ1-30">
          <mxGeometry x="140" width="60" height="20" as="geometry">
            <mxRectangle width="60" height="20" as="alternateBounds" />
          </mxGeometry>
        </mxCell>
        <mxCell id="zXx96FTG_lg0kcmIFyQ1-36" value="rank4" style="shape=partialRectangle;html=1;whiteSpace=wrap;connectable=0;strokeColor=inherit;overflow=hidden;fillColor=none;top=0;left=0;bottom=0;right=0;pointerEvents=1;fontSize=10;" vertex="1" parent="zXx96FTG_lg0kcmIFyQ1-30">
          <mxGeometry x="200" width="40" height="20" as="geometry">
            <mxRectangle width="40" height="20" as="alternateBounds" />
          </mxGeometry>
        </mxCell>
        <mxCell id="zXx96FTG_lg0kcmIFyQ1-37" style="shape=partialRectangle;html=1;whiteSpace=wrap;connectable=0;strokeColor=inherit;overflow=hidden;fillColor=none;top=0;left=0;bottom=0;right=0;pointerEvents=1;fontSize=10;fontColor=#FFB570;" vertex="1" parent="zXx96FTG_lg0kcmIFyQ1-30">
          <mxGeometry x="240" width="30" height="20" as="geometry">
            <mxRectangle width="30" height="20" as="alternateBounds" />
          </mxGeometry>
        </mxCell>
        <mxCell id="zXx96FTG_lg0kcmIFyQ1-38" value="kw_url4" style="shape=partialRectangle;html=1;whiteSpace=wrap;connectable=0;strokeColor=inherit;overflow=hidden;fillColor=none;top=0;left=0;bottom=0;right=0;pointerEvents=1;fontSize=10;fontColor=#000000;" vertex="1" parent="zXx96FTG_lg0kcmIFyQ1-30">
          <mxGeometry x="270" width="40" height="20" as="geometry">
            <mxRectangle width="40" height="20" as="alternateBounds" />
          </mxGeometry>
        </mxCell>
        <mxCell id="zXx96FTG_lg0kcmIFyQ1-42" value="total w4" style="shape=partialRectangle;html=1;whiteSpace=wrap;connectable=0;strokeColor=inherit;overflow=hidden;fillColor=none;top=0;left=0;bottom=0;right=0;pointerEvents=1;fontSize=10;fontColor=#000000;" vertex="1" parent="zXx96FTG_lg0kcmIFyQ1-30">
          <mxGeometry x="310" width="50" height="20" as="geometry">
            <mxRectangle width="50" height="20" as="alternateBounds" />
          </mxGeometry>
        </mxCell>
        <mxCell id="zXx96FTG_lg0kcmIFyQ1-43" value="" style="shape=table;startSize=0;container=1;collapsible=0;childLayout=tableLayout;fontSize=16;" vertex="1" parent="1">
          <mxGeometry x="290" y="980" width="190" height="80" as="geometry" />
        </mxCell>
        <mxCell id="zXx96FTG_lg0kcmIFyQ1-44" value="" style="shape=tableRow;horizontal=0;startSize=0;swimlaneHead=0;swimlaneBody=0;strokeColor=inherit;top=0;left=0;bottom=0;right=0;collapsible=0;dropTarget=0;fillColor=none;points=[[0,0.5],[1,0.5]];portConstraint=eastwest;fontSize=16;" vertex="1" parent="zXx96FTG_lg0kcmIFyQ1-43">
          <mxGeometry width="190" height="20" as="geometry" />
        </mxCell>
        <mxCell id="zXx96FTG_lg0kcmIFyQ1-45" value="kw1" style="shape=partialRectangle;html=1;whiteSpace=wrap;connectable=0;strokeColor=inherit;overflow=hidden;fillColor=none;top=0;left=0;bottom=0;right=0;pointerEvents=1;fontSize=10;" vertex="1" parent="zXx96FTG_lg0kcmIFyQ1-44">
          <mxGeometry width="33" height="20" as="geometry">
            <mxRectangle width="33" height="20" as="alternateBounds" />
          </mxGeometry>
        </mxCell>
        <mxCell id="zXx96FTG_lg0kcmIFyQ1-46" value="kw1 ex1" style="shape=partialRectangle;html=1;whiteSpace=wrap;connectable=0;strokeColor=inherit;overflow=hidden;fillColor=none;top=0;left=0;bottom=0;right=0;pointerEvents=1;fontSize=10;" vertex="1" parent="zXx96FTG_lg0kcmIFyQ1-44">
          <mxGeometry x="33" width="45" height="20" as="geometry">
            <mxRectangle width="45" height="20" as="alternateBounds" />
          </mxGeometry>
        </mxCell>
        <mxCell id="zXx96FTG_lg0kcmIFyQ1-49" value="kw link pos w1" style="shape=partialRectangle;html=1;whiteSpace=wrap;connectable=0;strokeColor=inherit;overflow=hidden;fillColor=none;top=0;left=0;bottom=0;right=0;pointerEvents=1;fontSize=10;" vertex="1" parent="zXx96FTG_lg0kcmIFyQ1-44">
          <mxGeometry x="78" width="72" height="20" as="geometry">
            <mxRectangle width="72" height="20" as="alternateBounds" />
          </mxGeometry>
        </mxCell>
        <mxCell id="zXx96FTG_lg0kcmIFyQ1-52" value="kw_url1" style="shape=partialRectangle;html=1;whiteSpace=wrap;connectable=0;strokeColor=inherit;overflow=hidden;fillColor=none;top=0;left=0;bottom=0;right=0;pointerEvents=1;fontSize=10;fontColor=#000000;" vertex="1" parent="zXx96FTG_lg0kcmIFyQ1-44">
          <mxGeometry x="150" width="40" height="20" as="geometry">
            <mxRectangle width="40" height="20" as="alternateBounds" />
          </mxGeometry>
        </mxCell>
        <mxCell id="zXx96FTG_lg0kcmIFyQ1-54" style="shape=tableRow;horizontal=0;startSize=0;swimlaneHead=0;swimlaneBody=0;strokeColor=inherit;top=0;left=0;bottom=0;right=0;collapsible=0;dropTarget=0;fillColor=none;points=[[0,0.5],[1,0.5]];portConstraint=eastwest;fontSize=16;" vertex="1" parent="zXx96FTG_lg0kcmIFyQ1-43">
          <mxGeometry y="20" width="190" height="20" as="geometry" />
        </mxCell>
        <mxCell id="zXx96FTG_lg0kcmIFyQ1-55" value="kw1" style="shape=partialRectangle;html=1;whiteSpace=wrap;connectable=0;strokeColor=inherit;overflow=hidden;fillColor=none;top=0;left=0;bottom=0;right=0;pointerEvents=1;fontSize=10;" vertex="1" parent="zXx96FTG_lg0kcmIFyQ1-54">
          <mxGeometry width="33" height="20" as="geometry">
            <mxRectangle width="33" height="20" as="alternateBounds" />
          </mxGeometry>
        </mxCell>
        <mxCell id="zXx96FTG_lg0kcmIFyQ1-56" value="kw1 ex2" style="shape=partialRectangle;html=1;whiteSpace=wrap;connectable=0;strokeColor=inherit;overflow=hidden;fillColor=none;top=0;left=0;bottom=0;right=0;pointerEvents=1;fontSize=10;" vertex="1" parent="zXx96FTG_lg0kcmIFyQ1-54">
          <mxGeometry x="33" width="45" height="20" as="geometry">
            <mxRectangle width="45" height="20" as="alternateBounds" />
          </mxGeometry>
        </mxCell>
        <mxCell id="zXx96FTG_lg0kcmIFyQ1-59" value="kw link pos w2" style="shape=partialRectangle;html=1;whiteSpace=wrap;connectable=0;strokeColor=inherit;overflow=hidden;fillColor=none;top=0;left=0;bottom=0;right=0;pointerEvents=1;fontSize=10;" vertex="1" parent="zXx96FTG_lg0kcmIFyQ1-54">
          <mxGeometry x="78" width="72" height="20" as="geometry">
            <mxRectangle width="72" height="20" as="alternateBounds" />
          </mxGeometry>
        </mxCell>
        <mxCell id="zXx96FTG_lg0kcmIFyQ1-62" value="kw_url2" style="shape=partialRectangle;html=1;whiteSpace=wrap;connectable=0;strokeColor=inherit;overflow=hidden;fillColor=none;top=0;left=0;bottom=0;right=0;pointerEvents=1;fontSize=10;fontColor=#000000;" vertex="1" parent="zXx96FTG_lg0kcmIFyQ1-54">
          <mxGeometry x="150" width="40" height="20" as="geometry">
            <mxRectangle width="40" height="20" as="alternateBounds" />
          </mxGeometry>
        </mxCell>
        <mxCell id="zXx96FTG_lg0kcmIFyQ1-64" value="" style="shape=tableRow;horizontal=0;startSize=0;swimlaneHead=0;swimlaneBody=0;strokeColor=inherit;top=0;left=0;bottom=0;right=0;collapsible=0;dropTarget=0;fillColor=none;points=[[0,0.5],[1,0.5]];portConstraint=eastwest;fontSize=16;" vertex="1" parent="zXx96FTG_lg0kcmIFyQ1-43">
          <mxGeometry y="40" width="190" height="20" as="geometry" />
        </mxCell>
        <mxCell id="zXx96FTG_lg0kcmIFyQ1-65" value="kw2" style="shape=partialRectangle;html=1;whiteSpace=wrap;connectable=0;strokeColor=inherit;overflow=hidden;fillColor=none;top=0;left=0;bottom=0;right=0;pointerEvents=1;fontSize=10;" vertex="1" parent="zXx96FTG_lg0kcmIFyQ1-64">
          <mxGeometry width="33" height="20" as="geometry">
            <mxRectangle width="33" height="20" as="alternateBounds" />
          </mxGeometry>
        </mxCell>
        <mxCell id="zXx96FTG_lg0kcmIFyQ1-66" value="kw2 ex1" style="shape=partialRectangle;html=1;whiteSpace=wrap;connectable=0;strokeColor=inherit;overflow=hidden;fillColor=none;top=0;left=0;bottom=0;right=0;pointerEvents=1;fontSize=10;" vertex="1" parent="zXx96FTG_lg0kcmIFyQ1-64">
          <mxGeometry x="33" width="45" height="20" as="geometry">
            <mxRectangle width="45" height="20" as="alternateBounds" />
          </mxGeometry>
        </mxCell>
        <mxCell id="zXx96FTG_lg0kcmIFyQ1-69" value="kw link pos w3" style="shape=partialRectangle;html=1;whiteSpace=wrap;connectable=0;strokeColor=inherit;overflow=hidden;fillColor=none;top=0;left=0;bottom=0;right=0;pointerEvents=1;fontSize=10;" vertex="1" parent="zXx96FTG_lg0kcmIFyQ1-64">
          <mxGeometry x="78" width="72" height="20" as="geometry">
            <mxRectangle width="72" height="20" as="alternateBounds" />
          </mxGeometry>
        </mxCell>
        <mxCell id="zXx96FTG_lg0kcmIFyQ1-72" value="kw_url3" style="shape=partialRectangle;html=1;whiteSpace=wrap;connectable=0;strokeColor=inherit;overflow=hidden;fillColor=none;top=0;left=0;bottom=0;right=0;pointerEvents=1;fontSize=10;fontColor=#000000;" vertex="1" parent="zXx96FTG_lg0kcmIFyQ1-64">
          <mxGeometry x="150" width="40" height="20" as="geometry">
            <mxRectangle width="40" height="20" as="alternateBounds" />
          </mxGeometry>
        </mxCell>
        <mxCell id="zXx96FTG_lg0kcmIFyQ1-74" style="shape=tableRow;horizontal=0;startSize=0;swimlaneHead=0;swimlaneBody=0;strokeColor=inherit;top=0;left=0;bottom=0;right=0;collapsible=0;dropTarget=0;fillColor=none;points=[[0,0.5],[1,0.5]];portConstraint=eastwest;fontSize=16;" vertex="1" parent="zXx96FTG_lg0kcmIFyQ1-43">
          <mxGeometry y="60" width="190" height="20" as="geometry" />
        </mxCell>
        <mxCell id="zXx96FTG_lg0kcmIFyQ1-75" value="kw2" style="shape=partialRectangle;html=1;whiteSpace=wrap;connectable=0;strokeColor=inherit;overflow=hidden;fillColor=none;top=0;left=0;bottom=0;right=0;pointerEvents=1;fontSize=10;" vertex="1" parent="zXx96FTG_lg0kcmIFyQ1-74">
          <mxGeometry width="33" height="20" as="geometry">
            <mxRectangle width="33" height="20" as="alternateBounds" />
          </mxGeometry>
        </mxCell>
        <mxCell id="zXx96FTG_lg0kcmIFyQ1-76" value="kw2 ex2" style="shape=partialRectangle;html=1;whiteSpace=wrap;connectable=0;strokeColor=inherit;overflow=hidden;fillColor=none;top=0;left=0;bottom=0;right=0;pointerEvents=1;fontSize=10;" vertex="1" parent="zXx96FTG_lg0kcmIFyQ1-74">
          <mxGeometry x="33" width="45" height="20" as="geometry">
            <mxRectangle width="45" height="20" as="alternateBounds" />
          </mxGeometry>
        </mxCell>
        <mxCell id="zXx96FTG_lg0kcmIFyQ1-79" value="kw link pos w4" style="shape=partialRectangle;html=1;whiteSpace=wrap;connectable=0;strokeColor=inherit;overflow=hidden;fillColor=none;top=0;left=0;bottom=0;right=0;pointerEvents=1;fontSize=10;" vertex="1" parent="zXx96FTG_lg0kcmIFyQ1-74">
          <mxGeometry x="78" width="72" height="20" as="geometry">
            <mxRectangle width="72" height="20" as="alternateBounds" />
          </mxGeometry>
        </mxCell>
        <mxCell id="zXx96FTG_lg0kcmIFyQ1-82" value="kw_url4" style="shape=partialRectangle;html=1;whiteSpace=wrap;connectable=0;strokeColor=inherit;overflow=hidden;fillColor=none;top=0;left=0;bottom=0;right=0;pointerEvents=1;fontSize=10;fontColor=#000000;" vertex="1" parent="zXx96FTG_lg0kcmIFyQ1-74">
          <mxGeometry x="150" width="40" height="20" as="geometry">
            <mxRectangle width="40" height="20" as="alternateBounds" />
          </mxGeometry>
        </mxCell>
        <mxCell id="zXx96FTG_lg0kcmIFyQ1-133" value="" style="rounded=0;whiteSpace=wrap;html=1;" vertex="1" parent="1">
          <mxGeometry x="1270" y="1100" width="190" height="240" as="geometry" />
        </mxCell>
        <mxCell id="zXx96FTG_lg0kcmIFyQ1-134" value="pos1" style="ellipse;whiteSpace=wrap;html=1;" vertex="1" parent="1">
          <mxGeometry x="1281" y="1270" width="30" height="20" as="geometry" />
        </mxCell>
        <mxCell id="zXx96FTG_lg0kcmIFyQ1-135" value="PSERP1" style="text;html=1;align=right;verticalAlign=middle;resizable=0;points=[];autosize=1;strokeColor=none;fillColor=none;" vertex="1" parent="1">
          <mxGeometry x="1390" y="1100" width="70" height="30" as="geometry" />
        </mxCell>
        <mxCell id="zXx96FTG_lg0kcmIFyQ1-136" value="pos2" style="ellipse;whiteSpace=wrap;html=1;" vertex="1" parent="1">
          <mxGeometry x="1340" y="1270" width="30" height="20" as="geometry" />
        </mxCell>
        <mxCell id="zXx96FTG_lg0kcmIFyQ1-137" value="pos3" style="ellipse;whiteSpace=wrap;html=1;" vertex="1" parent="1">
          <mxGeometry x="1401" y="1270" width="30" height="20" as="geometry" />
        </mxCell>
        <mxCell id="zXx96FTG_lg0kcmIFyQ1-138" value="" style="rounded=0;whiteSpace=wrap;html=1;" vertex="1" parent="1">
          <mxGeometry x="1500" y="1100" width="190" height="240" as="geometry" />
        </mxCell>
        <mxCell id="zXx96FTG_lg0kcmIFyQ1-139" value="pos1" style="ellipse;whiteSpace=wrap;html=1;" vertex="1" parent="1">
          <mxGeometry x="1511" y="1270" width="30" height="20" as="geometry" />
        </mxCell>
        <mxCell id="zXx96FTG_lg0kcmIFyQ1-140" value="CSERP1" style="text;html=1;align=right;verticalAlign=middle;resizable=0;points=[];autosize=1;strokeColor=none;fillColor=none;" vertex="1" parent="1">
          <mxGeometry x="1620" y="1100" width="70" height="30" as="geometry" />
        </mxCell>
        <mxCell id="zXx96FTG_lg0kcmIFyQ1-141" value="pos2" style="ellipse;whiteSpace=wrap;html=1;" vertex="1" parent="1">
          <mxGeometry x="1570" y="1270" width="30" height="20" as="geometry" />
        </mxCell>
        <mxCell id="zXx96FTG_lg0kcmIFyQ1-142" value="pos3" style="ellipse;whiteSpace=wrap;html=1;" vertex="1" parent="1">
          <mxGeometry x="1631" y="1270" width="30" height="20" as="geometry" />
        </mxCell>
        <mxCell id="zXx96FTG_lg0kcmIFyQ1-148" style="edgeStyle=orthogonalEdgeStyle;rounded=0;orthogonalLoop=1;jettySize=auto;html=1;exitX=0.5;exitY=1;exitDx=0;exitDy=0;entryX=0.5;entryY=0;entryDx=0;entryDy=0;curved=1;" edge="1" parent="1" source="zXx96FTG_lg0kcmIFyQ1-143" target="zXx96FTG_lg0kcmIFyQ1-134">
          <mxGeometry relative="1" as="geometry" />
        </mxCell>
        <mxCell id="zXx96FTG_lg0kcmIFyQ1-143" value="kw1_Showroom" style="rounded=0;whiteSpace=wrap;html=1;" vertex="1" parent="1">
          <mxGeometry x="1270" y="1040" width="90" height="30" as="geometry" />
        </mxCell>
        <mxCell id="zXx96FTG_lg0kcmIFyQ1-150" style="edgeStyle=orthogonalEdgeStyle;rounded=0;orthogonalLoop=1;jettySize=auto;html=1;exitX=0.75;exitY=1;exitDx=0;exitDy=0;curved=1;" edge="1" parent="1" source="zXx96FTG_lg0kcmIFyQ1-144" target="zXx96FTG_lg0kcmIFyQ1-142">
          <mxGeometry relative="1" as="geometry" />
        </mxCell>
        <mxCell id="zXx96FTG_lg0kcmIFyQ1-156" style="edgeStyle=orthogonalEdgeStyle;rounded=0;orthogonalLoop=1;jettySize=auto;html=1;exitX=0.25;exitY=1;exitDx=0;exitDy=0;curved=1;" edge="1" parent="1" source="zXx96FTG_lg0kcmIFyQ1-144" target="zXx96FTG_lg0kcmIFyQ1-136">
          <mxGeometry relative="1" as="geometry" />
        </mxCell>
        <mxCell id="zXx96FTG_lg0kcmIFyQ1-144" value="kw1_CSERP" style="rounded=0;whiteSpace=wrap;html=1;" vertex="1" parent="1">
          <mxGeometry x="1500" y="1040" width="90" height="30" as="geometry" />
        </mxCell>
        <mxCell id="zXx96FTG_lg0kcmIFyQ1-152" style="edgeStyle=orthogonalEdgeStyle;rounded=0;orthogonalLoop=1;jettySize=auto;html=1;exitX=0.5;exitY=0;exitDx=0;exitDy=0;entryX=0.5;entryY=1;entryDx=0;entryDy=0;curved=1;" edge="1" parent="1" source="zXx96FTG_lg0kcmIFyQ1-145" target="zXx96FTG_lg0kcmIFyQ1-137">
          <mxGeometry relative="1" as="geometry" />
        </mxCell>
        <mxCell id="zXx96FTG_lg0kcmIFyQ1-153" style="edgeStyle=orthogonalEdgeStyle;rounded=0;orthogonalLoop=1;jettySize=auto;html=1;exitX=0.75;exitY=0;exitDx=0;exitDy=0;entryX=0.5;entryY=1;entryDx=0;entryDy=0;curved=1;" edge="1" parent="1" source="zXx96FTG_lg0kcmIFyQ1-145" target="zXx96FTG_lg0kcmIFyQ1-139">
          <mxGeometry relative="1" as="geometry" />
        </mxCell>
        <mxCell id="zXx96FTG_lg0kcmIFyQ1-145" value="kw2_Showroom" style="rounded=0;whiteSpace=wrap;html=1;" vertex="1" parent="1">
          <mxGeometry x="1270" y="1370" width="90" height="30" as="geometry" />
        </mxCell>
        <mxCell id="zXx96FTG_lg0kcmIFyQ1-155" style="edgeStyle=orthogonalEdgeStyle;rounded=0;orthogonalLoop=1;jettySize=auto;html=1;exitX=0.5;exitY=0;exitDx=0;exitDy=0;entryX=0.5;entryY=1;entryDx=0;entryDy=0;curved=1;" edge="1" parent="1" source="zXx96FTG_lg0kcmIFyQ1-146" target="zXx96FTG_lg0kcmIFyQ1-141">
          <mxGeometry relative="1" as="geometry" />
        </mxCell>
        <mxCell id="zXx96FTG_lg0kcmIFyQ1-146" value="kw2_CSERP" style="rounded=0;whiteSpace=wrap;html=1;" vertex="1" parent="1">
          <mxGeometry x="1500" y="1370" width="90" height="30" as="geometry" />
        </mxCell>
      </root>
    </mxGraphModel>
  </diagram>
</mxfile>
